<?xml version="1.0" encoding="UTF-8" standalone="no"?>
<!-- Created with Inkscape (http://www.inkscape.org/) -->

<svg
   xmlns:dc="http://purl.org/dc/elements/1.1/"
   xmlns:cc="http://creativecommons.org/ns#"
   xmlns:rdf="http://www.w3.org/1999/02/22-rdf-syntax-ns#"
   xmlns:svg="http://www.w3.org/2000/svg"
   xmlns="http://www.w3.org/2000/svg"
   xmlns:sodipodi="http://sodipodi.sourceforge.net/DTD/sodipodi-0.dtd"
   xmlns:inkscape="http://www.inkscape.org/namespaces/inkscape"
   width="512"
   height="160"
   viewBox="0 0 512.00001 160"
   id="svg4706"
   version="1.1"
   inkscape:version="0.91 r13725"
   sodipodi:docname="logo-site.svg"
   inkscape:export-filename="/Users/mikko/code/trees/opsec/site/static/logo-site.png"
   inkscape:export-xdpi="107.99"
   inkscape:export-ydpi="107.99">
  <defs
     id="defs4708" />
  <sodipodi:namedview
     id="base"
     pagecolor="#e7e7e7"
     bordercolor="#666666"
     borderopacity="1.0"
     inkscape:pageopacity="0"
     inkscape:pageshadow="2"
     inkscape:zoom="0.7"
     inkscape:cx="240.00322"
     inkscape:cy="132.78386"
     inkscape:document-units="px"
     inkscape:current-layer="layer1"
     showgrid="false"
     units="px"
     inkscape:window-width="1404"
     inkscape:window-height="855"
     inkscape:window-x="0"
     inkscape:window-y="0"
     inkscape:window-maximized="1" />
  <metadata
     id="metadata4711">
    <rdf:RDF>
      <cc:Work
         rdf:about="">
        <dc:format>image/svg+xml</dc:format>
        <dc:type
           rdf:resource="http://purl.org/dc/dcmitype/StillImage" />
        <dc:title></dc:title>
      </cc:Work>
    </rdf:RDF>
  </metadata>
  <g
     inkscape:label="Layer 1"
     inkscape:groupmode="layer"
     id="layer1"
     transform="translate(0,-892.36216)">
    <path
       inkscape:connector-curvature="0"
       style="fill:#777777;fill-opacity:1"
       d="m 91.396443,900.84519 c -1.074327,-0.01 -1.988516,0.032 -2.363965,0.1246 -0.24737,0.061 -1.427767,0.1546 -2.623883,0.2077 -1.196174,0.053 -2.226672,0.1261 -2.289582,0.1627 -0.105316,0.062 -1.624026,0.2172 -3.338397,0.3428 -0.390352,0.029 -0.768259,0.087 -0.839422,0.1281 -0.07118,0.041 -0.345551,0.087 -0.609825,0.1013 -0.773539,0.043 -2.213732,0.2462 -2.7249,0.3851 -0.465212,0.1265 -1.680791,0.343 -3.072068,0.547 -0.776133,0.1139 -2.368459,0.3627 -3.661676,0.5722 -0.03808,0.01 -0.07507,0.015 -0.112963,0.022 l -0.492267,0 c -0.08782,0 -0.185058,-0.037 -0.26358,0 -0.111053,0.052 -0.152522,0.1952 -0.263585,0.2475 -0.07853,0.037 -0.201491,-0.059 -0.263575,0 -0.04866,0.046 -0.03915,0.1148 -0.01836,0.1878 -0.09977,0.031 -0.204503,0.059 -0.307667,0.079 -0.287469,0.056 -0.892869,0.2027 -1.345456,0.3263 -0.452601,0.1236 -0.86215,0.2019 -0.910143,0.174 -0.04804,-0.028 -0.343535,0.1221 -0.656657,0.3341 -0.463185,0.3136 -0.67358,0.5789 -1.125967,1.4229 -0.224642,0.4192 -0.463356,0.888 -0.616247,1.2057 -0.16742,0.033 -0.263328,0.12 -0.146028,0.3237 -0.07128,0.1739 -0.175221,0.4599 -0.299404,0.8197 -0.03565,0.03 -0.07109,0.06 -0.10469,0.092 -0.08781,0.083 -0.208063,0.1438 -0.263589,0.2484 -0.03925,0.074 0.02774,0.17 0,0.2485 -0.635944,1.798 0.07557,-0.3917 -0.52716,0.7443 -0.05624,0.106 0,1.1431 0,1.2412 l 0,0.2095 c -0.08525,0.2875 -0.15736,0.5396 -0.193786,0.6924 -0.290846,1.2192 -0.87801,3.192 -0.989117,3.3228 -0.06019,0.071 -0.136851,0.3041 -0.169912,0.5184 -0.02579,0.1676 -0.0724,0.3838 -0.127651,0.6189 -0.03318,0.033 -0.09605,0.094 -0.100109,0.1 -0.04865,0.069 0.04866,0.1787 0,0.2476 -0.13775,0.1947 -0.415189,0.2875 -0.526242,0.4968 -0.07853,0.148 0.07853,0.3479 0,0.4959 -0.111058,0.2094 -0.416111,0.2875 -0.527169,0.4968 -0.07853,0.1481 0.03444,0.3346 0,0.4969 -0.108891,0.5131 -0.392484,0.981 -0.527164,1.4887 -0.02132,0.08 0,0.1657 0,0.2484 0,0.2482 0.04333,0.5004 0,0.7452 -0.04566,0.2581 -0.208209,0.4878 -0.262662,0.7444 -0.02273,0.1069 4.42e-4,0.2182 0.0092,0.328 -0.04416,0.1389 -0.08431,0.2677 -0.115727,0.3765 -0.06199,0.093 -0.129268,0.1836 -0.157044,0.2883 -0.03138,0.1182 -0.03551,0.2515 -0.02939,0.3912 -0.133806,0.472 -0.304927,1.0387 -0.440831,1.4549 -0.511844,1.5676 -1.113693,3.9572 -1.473127,5.845 -0.09005,0.4732 -0.142938,0.746 -0.205722,1.0741 -0.101041,0.2104 -0.110985,0.4593 -0.221328,0.6674 -0.05549,0.1046 -0.160285,0.1835 -0.263585,0.2484 -0.163354,0.1026 -0.438451,0.083 -0.526251,0.2484 -0.07458,0.1405 -0.0087,0.3124 0.02113,0.476 -0.0075,0.01 -0.01525,0.012 -0.02113,0.02 0.0085,0.01 0.01773,0.015 0.02662,0.021 0.0075,0.054 0.0092,0.1068 -0.0029,0.1567 -0.05527,-0.051 -0.07313,-0.1092 -0.02477,-0.1775 -0.314399,0.2125 -1.395129,-0.1055 -1.843237,0 -1.706907,0.4022 1.242466,0.2013 -1.580577,0.4969 -0.436295,0.046 -0.880694,-0.046 -1.316993,0 -0.669891,-0.042 -1.21141,0.4107 -1.844154,0.4959 -0.34766,0.047 -0.710584,-0.072 -1.053409,0 -0.461544,0.097 -0.862386,0.3744 -1.316995,0.4968 -0.168846,0.046 -0.355904,-0.04 -0.526244,0 -0.380916,0.09 -0.672489,0.4071 -1.053411,0.4969 -0.170348,0.04 -0.351562,0 -0.527162,0 l -1.844152,0 c -0.263396,0 -0.534297,-0.06 -0.789829,0 -0.240916,0.057 -0.291583,0.4219 -0.527171,0.4959 -0.333156,0.1047 -0.720236,-0.1047 -1.053401,0 -0.117788,0.037 -0.14221,0.22 -0.262665,0.2484 -0.255519,0.06 -0.55517,-0.111 -0.790746,0 -0.1756,0.083 -0.124767,0.366 -0.263584,0.4968 -0.138808,0.1309 -0.362896,0.1449 -0.526247,0.2476 -0.22198,0.1394 -0.892467,0.9431 -1.053409,0.9936 -0.166573,0.052 -0.360577,-0.052 -0.527162,0 -0.573795,-0.093 -0.08802,0.4132 -0.263586,0.496 -0.15706,0.074 -0.350653,0 -0.526242,0 -0.08782,0 -0.201502,-0.059 -0.263582,0 -0.124161,0.117 0.124161,0.3798 0,0.4968 -0.639727,0.6029 -0.387351,-0.074 -0.790744,0.4959 -0.1089,0.154 -0.09927,0.3942 -0.262669,0.4968 -0.146109,0.092 -0.381059,-0.092 -0.527162,0 -0.163349,0.1027 -0.12477,0.3652 -0.263582,0.496 -0.0621,0.059 -0.201504,-0.059 -0.263582,0 -0.01687,0.016 -0.493543,0.9465 -0.526249,0.9928 -0.403404,0.5702 -0.150093,-0.1061 -0.78982,0.4968 -0.0621,0.059 0.03926,0.1744 0,0.2484 -0.387559,0.7305 -0.263584,-0.3856 -0.263584,0.7443 0,0.083 -0.0621,0.19 0,0.2485 0.0269,0.025 1.226963,-0.019 1.311478,0 -0.06584,0.098 -0.103776,0.1785 -0.103776,0.2337 0,0.1007 0.151001,0.3272 0.335219,0.5028 0.184205,0.1757 0.475873,0.4991 0.648392,0.7184 0.29426,0.3742 1.365751,0.9928 1.71925,0.9928 0.08771,0 0.352438,0.097 0.588699,0.2155 0.236261,0.1187 0.669181,0.3175 0.961567,0.4414 0.292384,0.124 0.74734,0.3403 1.011164,0.4804 1.014187,0.5385 1.407787,0.6363 3.006855,0.7513 2.041007,0.1467 3.346806,0.1461 4.146593,0 0.34993,-0.065 1.034495,-0.142 1.521797,-0.1705 0.487313,-0.029 1.099344,-0.07 1.359237,-0.092 0.259897,-0.022 0.897307,-0.075 1.417103,-0.1185 0.02228,0 0.04707,-0.01 0.06979,-0.01 0.05997,0.01 0.119512,0.019 0.180014,0.026 0.261343,0.031 0.527358,0 0.790745,0 0.688751,0 1.42616,-0.053 2.106824,0 0.705397,0.055 1.401051,0.1972 2.106817,0.2484 0.351327,0.025 0.704431,0.01 1.057078,0 0.04962,0.1291 0.09996,0.2752 0.155213,0.4414 0.246749,0.7432 0.280766,0.9897 0.191946,1.3762 -0.160022,0.6965 -0.694657,2.0774 -1.001056,2.5863 -0.0096,0.016 -0.02089,0.037 -0.03123,0.055 -0.04197,-0.012 -0.0822,-0.019 -0.108372,0.01 -0.06274,0.059 -0.04143,0.1477 -0.01559,0.2398 -0.07533,0.1615 -0.158137,0.3636 -0.242459,0.5799 -0.04012,-0.1361 0.179112,-0.8432 -0.26817,0.4215 -0.02774,0.079 0.0621,0.1899 0,0.2484 -0.0621,0.058 -0.224316,-0.074 -0.263585,0 -0.07853,0.148 0.05549,0.3398 0,0.4968 -0.07853,0.222 -0.389414,0.3012 -0.527159,0.4959 -0.160406,0.2268 -0.224292,0.603 -0.526252,0.7453 -0.07854,0.037 -0.201505,-0.059 -0.263584,0 -0.05388,0.051 0.05218,0.6459 0,0.7443 -0.15804,0.2979 -0.631786,0.4465 -0.789828,0.7444 -0.08002,0.1508 0.07993,1.3389 0,1.4896 -0.05548,0.1046 -0.208063,0.1437 -0.26358,0.2484 -0.03925,0.074 0.0621,0.1899 0,0.2484 -0.124173,0.117 -0.448647,-0.148 -0.527169,0 -0.07853,0.148 0.04255,0.3354 0,0.4959 -0.302664,1.141 -0.26358,0.057 -0.26358,0.7453 0,0.2482 0.117786,0.5223 0,0.7443 -0.03925,0.074 -0.223408,-0.074 -0.262662,0 -0.111885,0.2109 0.09476,1.2217 0,1.4896 -0.03926,0.111 -0.208058,0.1438 -0.263581,0.2484 -0.02958,0.056 0,0.9338 0,0.9928 l 0,0.9928 c 0,0.1655 -0.05548,0.3389 0,0.4959 0.0621,0.1755 0.175774,0.3313 0.263581,0.4968 0.08781,0.1655 0.123843,0.366 0.262662,0.4968 0.0541,0.051 0.166866,-0.032 0.236033,-0.014 0.01758,0.027 0.03119,0.048 0.04868,0.075 -4.86e-4,0.059 -0.04105,0.1305 -0.02113,0.1869 0.0621,0.1756 0.175789,0.3314 0.26358,0.4969 0.05346,0.1007 0.100211,0.205 0.152458,0.3063 0.0393,0.013 0.0659,0.02 0.221329,0.1368 0.04824,0.036 0.08192,0.088 0.131339,0.1229 0.03905,0.028 0.09134,0.034 0.130411,0.062 0.04942,0.035 0.08765,0.082 0.131334,0.1229 l 0.131333,0.1238 c 0.02186,0.02 0.04809,0.037 0.0652,0.061 0.02711,0.038 0.04338,0.083 0.06521,0.1238 0.04367,0.02 0.104243,0.023 0.131334,0.062 0.02424,0.034 -0.01384,0.085 0,0.1238 0.0098,0.028 0.05139,0.035 0.06521,0.061 0.157885,0.2976 -0.04785,0.1257 0.196536,0.4328 0.08718,0.1095 0.127141,0.058 0.262662,0.1852 0.03454,0.033 0.03065,0.091 0.06521,0.1238 0.05568,0.052 0.135044,0.076 0.196541,0.1229 0.04823,0.036 0.08309,0.087 0.131333,0.1237 0.0615,0.046 0.133538,0.079 0.196536,0.1238 0.141864,0.1003 -0.02565,0.069 0.261748,0.1229 0.04284,0.01 0.0885,-0.01 0.131334,0 0.131581,-0.014 0.213756,0.097 0.327864,0.1238 0.113769,0.027 0.279314,-0.027 0.393082,0 0.02997,0.01 0.0359,0.052 0.06521,0.062 0.04143,0.013 0.09498,-0.023 0.131333,0 0.04061,0.026 0.02613,0.096 0.0652,0.1237 0.05525,0.039 0.139066,0.025 0.196541,0.062 0.01812,0.012 -0.0098,0.044 0,0.062 0.03225,0.061 0.230422,0.1859 0.262661,0.2467 0.03089,0.058 0.02375,0.1331 0.06521,0.1852 0.02929,0.037 0.109489,0.021 0.131333,0.062 0.02929,0.055 -0.02434,0.1279 0,0.1852 0.02293,0.054 0.102791,0.071 0.130406,0.1229 0.01958,0.037 -0.01054,0.084 0,0.1238 0.01185,0.045 0.0443,0.083 0.06613,0.1238 0,0.082 -0.01438,0.1655 0,0.2467 0.0081,0.046 0.05563,0.079 0.0652,0.1238 0.01282,0.061 -0.01282,0.1246 0,0.1852 0.0096,0.045 0.04338,0.082 0.06521,0.1229 0,0.062 -0.01078,0.1252 0,0.1861 0.01132,0.064 0.0443,0.1234 0.06613,0.1852 0.02181,0.062 0.04338,0.1235 0.0652,0.1852 0.02181,0.062 0.03434,0.127 0.06521,0.1852 0.01384,0.026 0.05864,0.033 0.06612,0.062 0.01588,0.06 0,0.1234 0,0.1852 l 0,0.5557 c 0,0.3818 -0.01622,-0.028 0.06521,0.4327 0.01438,0.081 0,0.1644 0,0.2467 l 0,0.7409 0,0.4328 c 0,0.041 0.01958,0.086 0,0.1229 -0.02764,0.052 -0.09274,0.078 -0.131333,0.1238 -0.156656,0.1845 -0.08293,0.2067 -0.326952,0.3089 -0.126233,0.053 -0.272323,0.06 -0.393077,0.123 -0.081,0.042 -0.120622,0.1351 -0.196536,0.1852 -0.144259,0.095 -0.307103,0.1639 -0.459202,0.2475 -0.110014,0.06 -0.209618,0.1407 -0.32787,0.1853 -0.0899,0.034 -0.188322,0.038 -0.283792,0.054 0.0085,0.2918 0.02108,0.6799 -0.0065,0.7833 -0.03352,0.1263 -0.141831,0.2262 -0.185515,0.3497 -0.03643,0.1031 0,0.7757 0,0.8733 l 0,1.397 c 0,0.1746 0.08289,0.3683 0,0.5245 -0.0188,0.035 -0.08406,5e-4 -0.133174,-0.01 0.493915,1.1488 0.960345,2.276 1.201274,2.9402 0.381541,1.052 0.413489,1.1264 0.853198,2.0037 0.723774,1.4442 0.604283,1.7897 -0.44634,1.288 -0.329287,-0.1573 -0.664089,-0.2857 -0.743912,-0.2857 -0.07982,0 -0.281281,-0.116 -0.447258,-0.2579 -0.165992,-0.1419 -0.540615,-0.3464 -0.832991,-0.4544 -0.292394,-0.108 -0.744845,-0.2907 -1.004738,-0.406 -0.259903,-0.1153 -0.844728,-0.3414 -1.299544,-0.5019 -0.371679,-0.1313 -0.726811,-0.2576 -0.985452,-0.3497 -2.22e-4,0.1084 -0.0092,0.2179 -0.0092,0.3263 l 0,1.7293 0,4.6929 0,5.1872 0,1.4827 c 0,0.247 0.05141,0.4987 0,0.7408 -0.03832,0.1806 -0.224335,0.3137 -0.262658,0.4943 -0.0514,0.2422 0,0.4939 0,0.7409 l 0,1.23511 c 0,0.247 0.06357,0.5013 0,0.7409 -0.0073,0.027 -0.739078,1.6654 -0.78616,1.976 -0.04942,0.3261 0,0.6591 0,0.9884 l 0,0.9877 c 0,0.4116 0.05418,0.8266 0,1.2351 -0.03428,0.2583 -0.222668,0.4831 -0.261743,0.7409 -0.04942,0.326 0.03861,0.6611 0,0.9884 -0.0492,0.4173 -0.207404,0.8185 -0.262663,1.2351 -0.03249,0.2451 0.06357,0.5013 0,0.7409 -0.114107,0.4302 -0.422341,0.8023 -0.524405,1.2352 -0.07581,0.3215 0.04942,0.6615 0,0.9875 -0.03907,0.2578 -0.22267,0.4832 -0.26175,0.7409 -0.04942,0.326 0.05745,0.6636 0,0.9885 -0.09084,0.5136 -0.827762,0.8388 -0.524405,1.4818 -0.118305,0.8919 0.105333,1.8243 0,2.7178 -0.0492,0.4172 -0.221401,0.8161 -0.261746,1.2342 -0.06328,0.656 0,1.3182 0,1.9769 0,0.3293 0.0386,0.6602 0,0.9876 -0.0492,0.4172 -0.174377,0.8234 -0.261746,1.2351 0,0.4117 0.04345,0.8254 0,1.2351 -0.04434,0.4178 -0.218319,0.8174 -0.262665,1.2351 -0.04344,0.4096 0.07815,0.8301 0,1.2351 -0.09884,0.5124 -0.390396,0.9766 -0.524407,1.4818 -0.128893,0.4859 -0.166682,0.9891 -0.261748,1.4818 -0.07969,0.4131 -0.198744,0.8195 -0.261741,1.2351 -0.210451,1.3884 -0.279421,2.8143 -0.52441,4.1996 -0.146474,0.8283 -0.369574,1.6434 -0.524408,2.4702 -0.107364,0.5734 -0.120252,1.1626 -0.261747,1.7294 -0.01918,0.077 -0.04679,0.1515 -0.06888,0.2276 l 0.631862,0 c -0.217572,0.073 -0.510868,0.071 -0.631862,0 -0.05832,0.2011 -0.121599,0.4008 -0.191949,0.599 0.01561,-0.028 0.02086,-0.048 0.04684,-0.085 0.135648,-0.1929 0.333905,-0.3014 0.501449,-0.2969 0.07619,0 0.145548,0.027 0.200212,0.079 0.07533,0.071 -0.01694,0.1718 -0.266341,0.289 -0.333637,0.1569 -0.502171,0.2038 -0.527162,0.1411 -0.180536,0.5003 -0.370609,0.9977 -0.480326,1.5147 -0.09132,0.4303 -0.1256,0.8689 -0.155206,1.3078 0.180024,-0.025 0.284879,-0.1528 0.287461,-0.3851 0.0033,-0.3049 0.227416,-0.3231 0.277356,-0.022 0.04514,0.2715 -0.03579,0.2672 0.972589,0.051 l 0.820135,-0.1757 0,-0.4536 c 0,-0.4431 0.0055,-0.4495 0.231438,-0.257 0.225622,0.1924 0.22905,0.1883 0.167149,-0.1774 -0.06668,-0.394 0.110617,-0.9868 0.294808,-0.9868 0.05954,0 0.142751,0.1285 0.184602,0.2857 0.05132,0.1929 0.141534,0.2725 0.278269,0.2458 0.311704,-0.061 0.216113,-0.6502 -0.150614,-0.9279 -0.332357,-0.2517 -0.286553,-0.3834 0.134088,-0.3834 0.193109,0 0.295713,0.082 0.348074,0.2787 0.04077,0.1531 0.154002,0.2778 0.251644,0.2778 0.138929,0 0.160838,-0.085 0.100104,-0.3895 -0.05132,-0.2577 -0.03273,-0.3895 0.05511,-0.3895 0.05645,0 0.08284,-0.051 0.08082,-0.1471 0.163239,0 0.326446,-0.01 0.48951,-0.01 0.06605,0 0.135375,0 0.202044,0 0.08206,0 0.1643,0.01 0.246131,0.012 0.107319,0.01 0.214565,0.019 0.321446,0.031 -0.203705,0.1042 -0.335298,0.3479 -0.355421,0.695 -0.01506,0.2598 0.04589,0.5788 0.135008,0.7088 0.202852,0.296 0.103387,0.7725 -0.123989,0.5947 -0.114985,-0.09 -0.171693,-0.062 -0.229601,0.1099 -0.09785,0.2905 -0.251803,0.2933 -0.331547,0.01 -0.07149,-0.2576 -0.40058,-0.2851 -0.716348,-0.06 -0.22545,0.1609 -0.161323,0.4418 0.08173,0.3583 0.07523,-0.026 0.231154,0.03 0.346244,0.1247 0.18212,0.1495 0.334988,0.1537 1.181066,0.035 0.53461,-0.075 1.144418,-0.1472 1.354645,-0.1619 0.367674,-0.026 0.849334,-0.2977 0.527163,-0.2977 -0.078,0 -0.141434,-0.071 -0.141434,-0.1584 0,-0.116 0.13934,-0.1532 0.521653,-0.1393 0.690407,0.025 0.774336,-0.085 0.345322,-0.4544 -0.195224,-0.168 -0.388433,-0.3932 -0.429809,-0.5003 -0.04139,-0.1072 -0.151759,-0.1947 -0.2443,-0.1947 -0.157861,0 -0.262586,-0.1558 -0.29756,-0.4233 0.135827,0.035 0.271363,0.074 0.406849,0.1117 0.0443,0.078 0.101387,0.1181 0.160727,0.1056 0.202219,-0.043 0.353988,0.18 0.356334,0.521 4.86e-4,0.2221 0.03007,0.242 0.179093,0.1255 0.09742,-0.076 0.177247,-0.2026 0.177247,-0.2804 0,-0.078 0.0694,-0.1667 0.154299,-0.1973 0.119808,-0.043 0.142998,0.094 0.10286,0.6171 l -0.05143,0.6733 0.390324,-0.073 c 0.214942,-0.04 0.405104,-0.088 0.422465,-0.1039 0.01739,-0.016 0.09841,-0.2789 0.180011,-0.5834 0.09646,-0.3599 0.177567,-0.5727 0.274602,-0.6941 l 0.438995,0 c 0.0238,0.097 0.02876,0.2558 0.02293,0.5115 -0.0075,0.3569 -0.07318,0.7528 -0.145109,0.8794 -0.102547,0.1805 -0.09211,0.2605 0.0496,0.3713 0.151516,0.1185 0.191897,0.1025 0.247972,-0.1 0.03682,-0.1325 0.119233,-0.2415 0.183673,-0.2415 0.06637,0 0.0847,0.1225 0.04226,0.2822 -0.05506,0.2066 0.0081,0.3849 0.236946,0.6681 0.355625,0.4394 0.515973,0.4829 0.604307,0.1645 0.04556,-0.1644 0.148301,-0.2145 0.396754,-0.1947 0.184057,0.014 0.328846,-0.024 0.322356,-0.085 -0.0064,-0.061 -0.106939,-0.096 -0.22317,-0.078 -0.118767,0.019 -0.288523,-0.078 -0.388486,-0.2224 -0.159158,-0.2294 -0.157793,-0.3155 0.01559,-0.8136 0.106599,-0.3062 0.263153,-0.6228 0.348077,-0.7037 0.08493,-0.081 0.154295,-0.2415 0.154295,-0.3575 0,-0.02 0.0049,-0.041 0.01103,-0.062 0.181288,0 0.36245,0.01 0.543689,0.011 -0.05676,0.097 -0.162062,0.196 -0.295722,0.2683 -0.276986,0.1498 -0.353638,0.2808 -0.404098,0.6907 -0.07287,0.5924 0.08832,0.8347 0.340727,0.5124 0.09305,-0.1188 0.168994,-0.3321 0.168994,-0.4734 0,-0.1414 0.05348,-0.2571 0.11847,-0.2571 0.06498,0 0.117553,0.1029 0.117553,0.2285 0,0.1255 0.08181,0.3758 0.180928,0.5565 0.193267,0.3523 0.409608,0.436 0.409608,0.1584 0,-0.093 0.142121,-0.2202 0.315011,-0.2821 l 0.314093,-0.1125 -0.359088,-0.3575 c -0.399552,-0.3983 -0.387418,-0.6003 0.0459,-0.7556 0.129745,-0.047 0.208102,-0.1056 0.240623,-0.1835 0.0938,0 0.187322,-0.01 0.281033,-0.013 -0.0064,0.021 -0.01103,0.043 -0.01103,0.07 0,0.1593 0.07617,0.2311 0.245213,0.2311 0.169057,0 0.233031,-0.06 0.205722,-0.193 -0.01069,-0.053 -0.03245,-0.096 -0.06061,-0.1316 0.687171,-0.048 1.124913,-0.084 1.36934,-0.1125 -0.01613,0.1727 -0.05871,0.3401 -0.13041,0.4484 -0.120341,0.1815 -0.102111,0.2576 0.113875,0.4743 0.17304,0.1736 0.235362,0.339 0.189196,0.5054 -0.03833,0.138 -0.01491,0.2476 0.05326,0.2476 0.236776,0 0.495746,-0.1365 0.497776,-0.2623 4.86e-4,-0.07 0.136789,-0.2476 0.301236,-0.3947 0.325397,-0.2909 0.475704,-0.2341 0.56482,0.2121 0.0306,0.1531 0.09131,0.3612 0.134083,0.4622 0.0427,0.101 0.02069,0.2166 -0.04867,0.257 -0.06946,0.04 -0.126738,0.1207 -0.126738,0.1783 0,0.1241 0.161513,0.1378 0.281951,0.024 0.04673,-0.044 0.202594,-0.082 0.345318,-0.084 0.394937,0 0.403812,-0.439 0.01651,-0.7773 -0.26594,-0.2322 -0.303712,-0.3363 -0.236946,-0.6422 0.04372,-0.2006 0.108562,-0.5528 0.144192,-0.7824 0.01603,-0.1029 0.03182,-0.1792 0.05143,-0.238 0.255109,0.011 0.509435,0.02 0.763193,0 0.310552,-0.024 0.616052,-0.087 0.922072,-0.1455 -0.02817,0.2915 -0.127296,0.6154 -0.238777,0.6154 -0.264682,0 -0.29699,0.1861 -0.167153,0.9521 0.09411,0.5554 0.09046,0.7808 -0.0138,0.8993 -0.07662,0.087 -0.103062,0.1921 -0.05878,0.2337 0.140703,0.1326 1.527273,0.04 1.627417,-0.1082 0.07501,-0.1108 0.09494,-0.1109 0.09643,0 4.85e-4,0.087 0.173375,0.1385 0.461961,0.1385 0.551185,0 1.119882,-0.41 1.384953,-0.9997 0.130648,-0.2907 0.1993,-0.3491 0.275519,-0.2328 0.119778,0.1826 0.0289,0.4613 -0.204798,0.6266 -0.09144,0.065 -0.148243,0.2338 -0.12582,0.3756 0.03361,0.2127 0.120549,0.2622 0.493176,0.2831 0.27414,0.015 0.520825,-0.04 0.627274,-0.1403 0.131051,-0.1234 0.210292,-0.1332 0.310421,-0.039 0.07374,0.07 0.203953,0.1263 0.289295,0.1263 0.123353,0 0.117577,-0.084 -0.02662,-0.4093 -0.221679,-0.5 -0.07267,-0.6379 0.431651,-0.4008 0.19076,0.09 0.422314,0.1358 0.515224,0.1021 0.220513,-0.08 0.359346,0.1357 0.19011,0.2952 -0.158448,0.1494 -0.176892,0.747 -0.02293,0.747 0.05997,0 0.344312,0.1685 0.630951,0.3747 l 0.520728,0.3748 0.521651,-0.1869 c 0.602403,-0.2159 1.123272,-0.6324 1.188417,-0.9513 0.05528,-0.2705 0.455535,-0.3739 0.455535,-0.1177 0,0.098 0.135044,0.2264 0.300312,0.2857 0.261594,0.094 0.418852,0.03 1.211374,-0.4899 0.500681,-0.3286 1.069722,-0.6713 1.264641,-0.7617 0.558781,-0.2593 2.240928,-0.5265 3.708517,-0.5895 1.284795,-0.055 1.363536,-0.072 1.74681,-0.3894 0.525222,-0.4346 1.409158,-0.8576 2.575205,-1.2308 0.518445,-0.166 0.983973,-0.3694 1.034122,-0.4527 0.502177,-0.8338 1.30763,-2.7106 1.554859,-3.6223 0.34081,-1.2566 0.940882,-2.5459 2.210599,-4.7466 1.050938,-1.8214 1.247717,-2.072 2.154571,-2.7463 0.576352,-0.4287 0.922889,-0.8316 1.669658,-1.9457 0.616402,-0.9197 1.024494,-1.4199 1.181072,-1.4472 0.131663,-0.023 0.709176,-0.095 1.28393,-0.1592 0.757932,-0.085 1.196504,-0.2006 1.595269,-0.4181 0.695692,-0.3795 1.170672,-0.5965 2.187642,-0.9997 0.981349,-0.389 2.13745,-1.3453 2.72307,-2.2539 0.22276,-0.3455 0.54701,-0.7541 0.72094,-0.9071 0.17394,-0.1529 0.45104,-0.5266 0.61534,-0.8308 0.26678,-0.4941 0.292,-0.6485 0.2397,-1.4473 l -0.0579,-0.894 0.51064,-0.3618 c 0.28109,-0.199 0.64541,-0.3618 0.81004,-0.3618 0.17136,0 0.36278,-0.096 0.44726,-0.2233 0.0895,-0.1351 0.27501,-0.2225 0.47205,-0.2225 0.19706,0 0.38353,-0.087 0.47298,-0.2224 0.0811,-0.1225 0.2694,-0.2224 0.4188,-0.2224 0.14939,0 0.48,-0.1009 0.73472,-0.2233 0.25472,-0.1225 0.58877,-0.2225 0.74207,-0.2225 0.15331,0 0.39874,-0.1293 0.54461,-0.2873 0.16326,-0.177 0.33556,-0.2618 0.4491,-0.2208 0.11475,0.041 0.33513,-0.071 0.58227,-0.2969 0.30464,-0.2788 0.39765,-0.457 0.39859,-0.7634 4.8e-4,-0.3196 0.0615,-0.4254 0.30215,-0.5288 0.37456,-0.1608 0.76228,-0.1678 0.76228,-0.013 0,0.064 -0.13251,0.2321 -0.29389,0.373 -0.34208,0.2988 -0.25248,0.4967 0.0937,0.2069 0.22627,-0.1894 0.22898,-0.1886 0.0762,0.046 -0.23273,0.3572 0.0228,0.5944 0.64013,0.5928 0.3825,0 0.64546,-0.1055 1.22148,-0.4846 0.40381,-0.2659 0.93604,-0.6683 1.18198,-0.8941 l 0.44635,-0.4112 0.0376,0.283 c 0.0435,0.3296 0.11122,0.3457 0.46838,0.11 0.26004,-0.1717 0.4987,-0.1374 0.4987,0.072 0,0.06 -0.093,0.1397 -0.20665,0.1774 -0.1137,0.038 -0.325,0.1685 -0.4693,0.2909 -0.21643,0.1834 -0.29363,0.1979 -0.44267,0.081 -0.1463,-0.1145 -0.18092,-0.1143 -0.18092,0 0,0.2018 0.35701,0.5514 0.56297,0.5514 0.12417,0 0.15091,0.077 0.0974,0.2787 -0.0861,0.3234 0.008,0.3474 0.3839,0.1 0.30914,-0.204 0.42361,-0.4464 0.74207,-1.5796 0.20631,-0.7341 0.21062,-0.8359 0.0477,-1.0551 -0.27739,-0.3732 -0.22229,-0.5531 0.32604,-1.0603 0.42521,-0.3932 0.58297,-0.4682 0.98085,-0.4682 0.26067,0 0.53736,-0.061 0.61533,-0.1341 0.24755,-0.2334 0.16101,-0.6983 -0.18919,-1.0145 -0.37896,-0.3422 -0.63387,-0.377 -0.86146,-0.1186 -0.0873,0.099 -0.53792,0.4213 -1.00106,0.7158 -0.54334,0.3456 -0.89583,0.6562 -0.99279,0.8768 -0.0923,0.2102 -0.2356,0.3428 -0.37196,0.3428 -0.27962,0 -0.2849,-0.1327 -0.0119,-0.2934 0.14647,-0.086 0.21706,-0.2842 0.23419,-0.6553 0.0182,-0.3946 0.0882,-0.5732 0.27002,-0.6932 0.29256,-0.1931 0.27377,-0.669 -0.0331,-0.85 -0.16815,-0.099 -0.26662,-0.052 -0.55564,0.2666 -0.19344,0.2133 -0.35466,0.5009 -0.35725,0.6387 -0.003,0.1908 -0.0735,0.2502 -0.29481,0.2502 -0.26988,0 -0.77238,0.3746 -0.77238,0.5756 0,0.1317 -0.95673,0.5654 -1.04606,0.4743 -0.0424,-0.043 -0.0237,-0.097 0.0413,-0.1195 0.065,-0.022 0.2912,-0.14 0.50237,-0.2614 0.32733,-0.188 0.38389,-0.2847 0.38389,-0.6543 0,-0.3779 0.046,-0.4508 0.3591,-0.573 0.1975,-0.077 0.42374,-0.2244 0.50237,-0.3272 0.0786,-0.1027 0.23919,-0.2206 0.35725,-0.2622 0.2608,-0.092 0.2392,-0.7094 -0.0229,-0.657 -0.22185,0.044 -0.60522,-0.3006 -0.60522,-0.5443 0,-0.2863 -0.22287,-0.3743 -0.32603,-0.129 -0.0482,0.1144 -0.30979,0.3955 -0.58135,0.6249 -0.43861,0.3705 -0.52059,0.4018 -0.73564,0.2752 -0.18565,-0.1093 -0.32373,-0.1139 -0.59237,-0.018 -0.31735,0.1129 -0.35396,0.1026 -0.38666,-0.1134 0.006,-0.015 0.0123,-0.03 0.0193,-0.044 0.12468,-0.2585 0.33338,-0.5886 0.56758,-0.9262 0.0111,0.02 0.0231,0.038 0.0367,0.054 0.08,0.091 0.19219,0.1374 0.2498,0.1039 0.1457,-0.085 0.12882,-0.3714 -0.011,-0.5427 0.26006,-0.3514 0.52716,-0.6849 0.73748,-0.9227 0.0546,-0.062 0.11793,-0.1162 0.18276,-0.1696 0.11666,0.059 0.25609,-0.014 0.32236,-0.2225 0.0439,-0.1378 0.19089,-0.3331 0.32695,-0.4345 0.21321,-0.1588 0.22509,-0.2094 0.0863,-0.367 -0.11307,-0.1284 -0.25367,-0.1634 -0.39124,-0.1342 l 0,-0.4093 0,-0.1195 c 0.11741,-0.1716 0.20021,-0.346 0.20021,-0.4345 0,-0.1304 0.17148,-0.2922 0.37564,-0.4068 0.14511,0.096 0.30637,0.1752 0.47756,0.2156 0.0643,0.015 0.13007,0.018 0.19654,0.016 -0.006,0.023 -0.0113,0.048 -0.0156,0.076 -0.0212,0.1412 0.0249,0.3287 0.10286,0.4172 0.11576,0.1314 0.0972,0.161 -0.10194,0.161 -0.13406,0 -0.2767,-0.049 -0.31685,-0.1108 -0.15367,-0.2343 -0.29572,-0.095 -0.29572,0.29 0,0.3677 0.0239,0.396 0.28195,0.3349 0.21622,-0.051 0.29631,-0.015 0.34348,0.155 0.0408,0.1471 0.161,0.2215 0.35817,0.2215 0.23397,0 0.31341,-0.071 0.37471,-0.334 0.0556,-0.2384 0.14716,-0.3341 0.31961,-0.3341 0.20943,0 0.23158,-0.048 0.16531,-0.3601 -0.0545,-0.2568 -0.14078,-0.4268 -0.28379,-0.5332 l 0.54369,0 c -4.8e-4,0.01 -0.002,0.014 -0.005,0.021 -0.0316,0.2029 4.9e-4,0.4571 0.0726,0.5652 0.17094,0.258 0.18243,0.253 0.32696,-0.1376 0.0898,-0.243 0.19907,-0.3341 0.40041,-0.3341 0.16484,0 0.28449,-0.045 0.34165,-0.1142 l 1.14065,0 c 0.1756,0 0.35499,0.032 0.52718,0 0.27224,-0.051 0.51497,-0.2115 0.78983,-0.2485 0.12071,-0.017 0.24275,-0.011 0.36552,0 -0.14117,0.081 -0.31422,0.1436 -0.41236,0.1436 -0.28108,0 -0.36979,0.1767 -0.22043,0.4397 0.1101,0.1938 0.1647,0.2044 0.43717,0.088 0.28178,-0.121 0.33519,-0.1043 0.55287,0.1705 0.25526,0.3222 0.44998,0.2311 0.34166,-0.1593 -0.0514,-0.1853 -0.0149,-0.2058 0.25163,-0.1428 0.26195,0.062 0.31043,0.037 0.31043,-0.161 0,-0.2448 0.16879,-0.3159 0.2948,-0.1238 0.0401,0.061 0.28178,0.1117 0.53635,0.1117 0.50225,0 0.73066,-0.2106 0.88994,-0.8205 0.0403,-0.1546 0.1784,-0.4306 0.32235,-0.6561 0.0859,-0.04 0.17802,-0.082 0.28103,-0.1273 0.6811,-0.2962 1.42573,-0.448 2.10682,-0.7443 0.0231,-0.01 0.0459,-0.021 0.0689,-0.031 -0.007,0.019 -0.0119,0.037 -0.0119,0.055 0,0.1756 0.29103,0.1024 0.74024,-0.1852 0.44855,-0.28731 0.54235,-0.46431 0.28103,-0.41461 0.77849,-0.4752 1.51704,-1.0196 2.34561,-1.41 0.67094,-0.3161 1.4153,-0.4733 2.10773,-0.7452 0.75469,-0.2964 1.70347,-0.8483 2.3704,-1.2412 0.0336,-0.02 0.0965,-0.057 0.14603,-0.086 0.0444,0.047 0.0939,0.081 0.14143,0.091 0.10756,0.023 0.2989,-0.01 0.42431,-0.064 0.211,-0.099 0.21301,-0.1166 0.0294,-0.2432 -0.0341,-0.024 -0.0664,-0.057 -0.0946,-0.095 0.10832,-0.073 0.21368,-0.1482 0.31134,-0.2251 0.0401,0 0.0789,-0.035 0.1102,-0.089 0.11291,-0.098 0.20303,-0.194 0.24889,-0.2804 0.0785,-0.1481 0,-0.3314 0,-0.4969 l 0,-0.4959 0,-0.4553 c 0.0689,0.01 0.14471,0 0.22961,-0.01 0.45679,-0.073 0.65023,-0.2201 0.65023,-0.4968 0,-0.1728 -0.0576,-0.2083 -0.25624,-0.1593 -0.14046,0.034 -0.35534,0.012 -0.47757,-0.049 -0.0557,-0.028 -0.10206,-0.043 -0.14603,-0.046 l 0,-0.2155 c 0.0994,0.037 0.20122,0.064 0.29573,0.072 0.50824,0.043 0.82682,-0.01 0.75217,-0.1229 -0.0404,-0.062 0.0401,-0.2634 0.17909,-0.4475 l 0.25348,-0.3341 0.3389,0.2519 c 0.48705,0.3621 0.45899,0.5736 -0.0634,0.4813 -0.57553,-0.1018 -0.65226,0.1495 -0.22317,0.7331 l 0.33522,0.4552 0.30766,-0.3471 c 0.1692,-0.191 0.36981,-0.347 0.44543,-0.347 0.15187,0 0.49502,0.6941 0.49502,1.0014 0,0.2939 0.60169,1.2486 0.82105,1.3026 0.18322,0.045 0.63842,1.522 0.95055,3.0822 0.0598,0.2986 0.19106,0.628 0.29113,0.7322 0.10009,0.1043 0.18185,0.2393 0.18185,0.3004 0,0.061 0.13237,0.2284 0.29481,0.37211 0.39342,0.3484 0.39342,0.6047 0,0.5116 -0.3946,-0.093 -0.37274,0.029 0.11204,0.6275 0.46537,0.5743 0.60344,0.6437 1.28577,0.6413 0.71401,0 0.82367,-0.1099 0.88167,-0.8655 0.0458,-0.5963 0.0228,-0.68 -0.22685,-0.8448 -0.23839,-0.15731 -0.25685,-0.21391 -0.13133,-0.40331 0.2573,-0.3882 0.18223,-1.1682 -0.14878,-1.5389 -0.16244,-0.1819 -0.29573,-0.4133 -0.29574,-0.5141 0,-0.3531 -0.49545,-0.8422 -0.85319,-0.8422 -0.29593,0 -0.32159,-0.025 -0.21399,-0.2146 0.1891,-0.3331 0.14494,-0.6566 -0.10653,-0.7834 -0.12564,-0.063 -0.24486,-0.2531 -0.26542,-0.4215 -0.0298,-0.2436 -0.10671,-0.313 -0.37471,-0.3419 -0.32888,-0.035 -0.33426,-0.049 -0.25623,-0.5392 0.0581,-0.3651 0.0327,-0.5528 -0.0909,-0.6872 -0.0936,-0.1018 -0.20511,-0.3234 -0.24798,-0.4934 -0.0429,-0.1699 -0.18913,-0.4145 -0.32511,-0.5427 -0.13596,-0.1281 -0.28039,-0.342 -0.32144,-0.476 -0.0791,-0.2576 -1.63184,-1.6237 -2.62296,-2.3075 -0.37982,-0.262 -0.67163,-0.3859 -0.82198,-0.3488 -0.17217,0.042 -0.23327,10e-5 -0.23327,-0.1558 0,-0.3022 -0.22905,-0.4813 -0.61717,-0.4813 -0.24624,0 -0.36257,-0.072 -0.4445,-0.2752 -0.054,-0.1338 -0.18206,-0.2508 -0.33338,-0.3151 -0.0194,-0.034 -0.039,-0.067 -0.057,-0.1004 -0.0878,-0.1655 -0.10019,-0.3933 -0.26358,-0.4959 -0.14609,-0.092 -0.36059,0.052 -0.52716,0 -0.11781,-0.037 -0.14488,-0.2114 -0.26266,-0.2484 -0.0265,-0.01 -0.0542,-0.011 -0.0817,-0.013 -0.0795,-0.095 -0.1295,-0.1763 -0.1295,-0.226 0,-0.1697 -0.79315,-0.8863 -0.98085,-0.8863 -0.24621,0 -0.32182,-0.1211 -0.20481,-0.3271 0.15075,-0.2654 0.006,-0.3947 -0.45828,-0.4094 -0.22187,-0.01 -0.46123,-0.083 -0.53176,-0.1688 -0.0705,-0.086 -0.27744,-0.2452 -0.4592,-0.3549 -0.40044,-0.2415 -0.74983,-0.7567 -0.92116,-1.3563 -0.07,-0.2449 -0.2194,-0.5457 -0.33154,-0.6682 -0.28147,-0.3073 -0.63266,-0.8312 -0.80361,-1.1987 -0.0787,-0.1694 -0.22493,-0.3369 -0.32511,-0.3731 -0.1002,-0.036 -0.18185,-0.1547 -0.18185,-0.2631 0,-0.1084 -0.0798,-0.2596 -0.17724,-0.3358 -0.0974,-0.076 -0.17726,-0.1806 -0.17726,-0.232 0,-0.051 -0.28827,-0.5457 -0.64013,-1.0984 -0.35187,-0.5526 -0.81283,-1.3597 -1.02494,-1.7934 -0.21211,-0.4336 -0.47183,-0.8477 -0.57675,-0.92 -0.063,-0.043 -0.22936,-0.2116 -0.42339,-0.4181 l 0,-0.1281 0,-1.9007 c 0.0483,-0.016 0.0887,-0.02 0.11756,-0.01 0.24864,0.09 0.37117,-0.4538 0.18643,-0.8283 -0.17785,-0.3606 -0.38348,-0.9179 -0.58594,-1.5554 0.005,-0.275 0.0193,-0.5608 0.0193,-0.6708 0,-0.083 0.0621,-0.189 0,-0.2475 -0.0621,-0.058 -0.2015,0.059 -0.26358,0 -0.0621,-0.058 0.0392,-0.1744 0,-0.2484 -0.0621,-0.1171 -0.11194,-0.1821 -0.15338,-0.2164 -0.25969,-0.9848 -0.47389,-1.9788 -0.54921,-2.6633 -0.0649,-0.5897 -0.17265,-1.2083 -0.2397,-1.3744 -0.067,-0.1663 -0.15581,-0.9717 -0.19745,-1.79 -0.0712,-1.3994 -0.0896,-1.4865 -0.31134,-1.4645 -0.25254,0.025 -0.25279,0.023 -0.36737,-1.8132 -0.051,-0.8175 -0.16562,-2.4152 -0.29113,-4.0637 -0.0871,-1.1438 -0.0211,-1.5168 0.36461,-2.06 0.26357,-0.3713 0.34806,-0.8708 0.19378,-1.1425 -0.01,-0.017 -0.0163,-0.032 -0.0239,-0.047 0.0416,-0.037 0.12859,-0.085 0.23695,-0.1384 0.14999,0 0.3709,0.019 0.70808,0.045 0.57519,0.045 1.11793,0.1188 1.20587,0.1645 0.0879,0.046 0.35938,0.017 0.60431,-0.062 0.2449,-0.08 1.29013,-0.2732 2.32173,-0.4311 2.17746,-0.3332 2.93389,-0.4878 3.37421,-0.6898 0.17456,-0.08 0.38865,-0.1198 0.47574,-0.088 0.0871,0.032 0.34001,-0.069 0.56206,-0.2233 0.22205,-0.1544 0.45189,-0.2813 0.51155,-0.2813 0.062,0 0.31018,-0.1017 0.66125,-0.2622 0.0639,0 0.1149,-0.01 0.13133,-0.015 0.0443,-0.021 0.0774,-0.058 0.10837,-0.096 0.20046,-0.095 0.42073,-0.2009 0.66768,-0.3229 0.0931,-0.025 0.18696,-0.049 0.27828,-0.078 0.0365,-0.034 0.0686,-0.073 0.10195,-0.1117 0.0906,-0.046 0.17492,-0.087 0.26909,-0.135 0.0587,0.014 0.11769,0.034 0.15521,0 0.0344,-0.032 0.0579,-0.073 0.0762,-0.1177 0.24102,-0.1232 0.48801,-0.251 0.74299,-0.3843 0.17532,0.039 0.35118,0.074 0.49778,0.01 0.0785,-0.037 -0.0487,-0.1795 0,-0.2484 0.007,-0.011 0.0169,-0.02 0.0248,-0.031 0.24868,-0.132 0.49885,-0.2665 0.74759,-0.4015 -0.11298,0.2488 -0.0241,0.1281 0.008,-0.01 0.004,0 0.009,0 0.0137,-0.01 l 0.94872,-0.5159 0.22317,-0.8906 c 0.12259,-0.4898 0.23989,-1.2087 0.26083,-1.5978 0.0237,-0.4404 0.0982,-0.7427 0.19745,-0.8006 0.1316,-0.077 0.12709,-0.128 -0.0257,-0.2943 -0.1019,-0.1109 -0.24846,-0.4777 -0.32603,-0.8144 -0.5569,-2.4179 -0.68452,-2.8182 -0.97993,-3.0649 -0.14885,-0.1243 -0.4784,-0.4671 -0.73197,-0.7625 -0.46769,-0.545 -2.41949,-1.9828 -2.87736,-2.1197 -0.13761,-0.041 -0.41949,-0.2566 -0.62635,-0.4787 -0.67738,-0.727 -1.55693,-1.3675 -1.87906,-1.3675 -0.1681,0 -0.41094,-0.068 -0.5391,-0.1524 -0.12818,-0.084 -0.65761,-0.3116 -1.17739,-0.5054 -0.5198,-0.1939 -1.07834,-0.4389 -1.24077,-0.5445 -0.26486,-0.1721 -0.73869,-0.382 -2.16008,-0.9555 -0.24587,-0.099 -0.5798,-0.18 -0.74208,-0.18 -0.16226,0 -0.32357,-0.07 -0.35817,-0.155 -0.0346,-0.085 -0.2289,-0.1851 -0.43165,-0.2233 -0.20275,-0.038 -0.46305,-0.1498 -0.5786,-0.2484 -0.11555,-0.099 -0.29494,-0.1491 -0.39859,-0.1116 -0.10361,0.037 -0.39577,-0.031 -0.64932,-0.1532 -0.25354,-0.1219 -0.53063,-0.2216 -0.61624,-0.2216 -0.23734,0 -0.56298,-0.4148 -0.56298,-0.7175 0,-0.1484 0.0539,-0.403 0.1194,-0.5652 0.14524,-0.3601 0.0451,-0.5617 -0.18828,-0.3791 -0.13497,0.1055 -0.16715,0.083 -0.16715,-0.1169 0,-0.1531 0.0894,-0.2685 0.23603,-0.3047 0.29157,-0.072 0.32521,-0.6037 0.0514,-0.8179 -0.11752,-0.092 -0.1577,-0.2297 -0.1093,-0.3756 0.23627,-0.7127 0.42923,-2.2253 0.484,-3.7928 0.0483,-1.3828 0.10522,-1.8439 0.2544,-2.06 0.37283,-0.5398 0.68571,-3.9426 0.39308,-4.2749 -0.18455,-0.2095 -0.28891,-1.6992 -0.12582,-1.7942 0.0638,-0.037 0.1148,-0.3278 0.1148,-0.6457 -2.2e-4,-0.3179 0.0598,-1.0781 0.13317,-1.6904 0.10985,-0.9167 0.099,-1.4085 -0.0606,-2.7836 -0.26117,-2.2495 -0.5163,-3.8314 -0.67962,-4.2099 -0.17259,-0.4 -1.30006,-1.4242 -1.77803,-1.6151 -0.37859,-0.1512 -1.12695,-0.6331 -1.33536,-0.8603 -0.18737,-0.2043 -1.41195,-0.7184 -1.71098,-0.7184 -0.14901,0 -0.33013,-0.067 -0.40227,-0.148 -0.0721,-0.082 -0.47678,-0.29 -0.89912,-0.4631 -0.42232,-0.1731 -0.95365,-0.423 -1.18106,-0.5548 -0.22741,-0.1318 -0.86575,-0.4044 -1.41802,-0.6059 -0.55228,-0.2015 -1.24319,-0.4659 -1.53557,-0.5877 -0.82162,-0.3423 -0.93215,-0.38 -2.06733,-0.7045 -0.58476,-0.1672 -1.27568,-0.4163 -1.53557,-0.554 -0.20566,-0.1089 -0.69797,-0.2547 -1.20035,-0.3626 -0.046,-0.038 -0.0961,-0.073 -0.15154,-0.099 -0.12433,-0.059 -0.27191,-0.025 -0.41512,-0.01 -0.5982,-0.1025 -1.33945,-0.2383 -1.73487,-0.3185 -0.43162,-0.088 -0.93666,-0.1589 -1.12229,-0.1592 -0.10936,-1e-4 -0.35816,-0.024 -0.67043,-0.06 0.017,-0.078 0.0565,-0.1687 -0.008,-0.199 -0.062,-0.029 -0.8804,0 -1.05342,0 l -0.44267,0 c -0.764024,-0.1105 -1.493977,-0.2283 -1.754146,-0.2943 -0.261117,-0.066 -0.616379,-0.096 -0.788913,-0.067 -0.172516,0.029 -0.74607,-0.04 -1.274745,-0.154 -0.456517,-0.098 -1.230478,-0.1794 -2.111417,-0.238 -0.08835,-0.016 -0.17833,-0.019 -0.269093,-0.016 -0.839407,-0.05 -1.752032,-0.081 -2.573369,-0.086 l 4.85e-4,0 z m -3.242879,1.2922 c 0.01069,2e-4 0.01681,0 0.02575,0 -0.07127,0.017 -0.14151,0.035 -0.21123,0.057 -0.186243,0.058 -0.332372,0.2254 -0.527169,0.2484 -0.461661,0.054 -0.931123,-0.023 -1.39597,-0.01 0.359288,-0.058 0.770664,-0.1245 1.353729,-0.2225 0.306899,-0.052 0.600989,-0.08 0.754929,-0.075 z m -3.22084,0.4631 c -0.863505,0.1962 -1.715751,0.4747 -2.627555,0.3583 0.53174,-0.085 1.238197,-0.1808 2.282228,-0.3125 0.119821,-0.015 0.231801,-0.031 0.345327,-0.046 z m 36.675546,16.9783 c -0.0179,0 -0.0294,0.038 -0.033,0.1195 -0.005,0.1173 0.0223,0.1824 0.0615,0.1454 0.0392,-0.037 0.0438,-0.1326 0.0101,-0.213 -0.0142,-0.033 -0.027,-0.05 -0.0377,-0.052 l -4.8e-4,0 z m -84.731971,25.0373 c 0.110897,-2e-4 0.202269,0.01 0.257148,0.028 0.230561,0.087 0.288398,0.4317 0.527168,0.496 0.42209,0.1136 0.886532,-0.081 1.316991,0 0.463622,0.087 0.868454,0.3559 1.31699,0.4968 0.917686,0.2883 1.660465,0.3135 2.633066,0.4968 0.354966,0.067 0.706266,0.1538 1.054333,0.2476 0.158123,0.043 0.310255,0.1072 0.464711,0.1618 -0.172232,0.01 -0.350368,0.018 -0.52717,0.024 -0.746493,0.024 -1.669697,0.077 -2.051713,0.1159 -0.679753,0.07 -1.081336,-0.023 -2.585305,-0.5989 -0.234851,-0.09 -2.290474,-1.0511 -2.841542,-1.3286 -0.07021,-0.035 -0.126253,-0.072 -0.170826,-0.1091 0.206726,-0.012 0.42869,-0.03 0.606149,-0.03 z m 89.359811,7.7111 c -0.0486,0.1006 -0.16378,0.1498 -0.45185,0.1956 0.12411,-0.063 0.2413,-0.1425 0.37471,-0.1844 0.0162,0 0.046,-0.01 0.0771,-0.011 z m -1.5521,0.2345 c 0.0465,0 0.0993,0.01 0.15888,0.025 0.12417,-0.029 0.25511,-0.012 0.38574,0.01 -0.25143,0.027 -0.53257,0.052 -0.77606,0.07 0.0606,-0.058 0.13319,-0.099 0.23144,-0.1013 z m -3.23646,5.388 c -0.065,0 -0.11847,0.05 -0.11847,0.1117 0,0.061 0.0535,0.1116 0.11847,0.1116 0.065,0 0.11848,-0.05 0.11848,-0.1116 0,-0.061 -0.0535,-0.1117 -0.11848,-0.1117 z m 2.61011,23.907 c 0.0191,0.1035 0.0592,0.2055 0.1203,0.3038 -0.0517,-0.066 -0.10677,-0.1302 -0.16163,-0.1948 0.0155,-0.033 0.0308,-0.068 0.0413,-0.109 z m 0.20388,0.4206 c 0.0288,0.035 0.0594,0.069 0.0937,0.103 l 0.31134,0.3064 -0.0367,0.074 c -0.063,-0.013 -0.12255,-0.03 -0.17817,-0.054 -0.0405,-0.1125 -0.0847,-0.2237 -0.13593,-0.3324 -0.0158,-0.034 -0.0343,-0.065 -0.0542,-0.097 z m -66.431846,0.174 c 0.02851,0.063 0.06106,0.1233 0.112044,0.1714 0.0085,0.01 0.01812,0.013 0.02754,0.02 -0.02288,0.036 -0.0537,0.058 -0.08817,0.058 -0.06936,0 -0.09965,-0.088 -0.06796,-0.1948 0.0075,-0.024 0.0095,-0.033 0.01656,-0.054 z m 67.310766,0.18 c 0.11739,0 0.32052,0.2168 0.32052,0.3808 0,0.014 0.004,0.031 0.009,0.049 -0.11843,-0.068 -0.24128,-0.1314 -0.3646,-0.1895 -0.0293,-0.014 -0.0601,-0.025 -0.0918,-0.034 0.0276,-0.084 0.051,-0.1506 0.0624,-0.1705 0.0144,-0.025 0.0372,-0.035 0.0643,-0.034 z m -67.344745,3.3046 c 0.01695,0 0.04712,0.04 0.103777,0.1325 0.06754,0.1094 0.10485,0.2506 0.08265,0.3133 -0.06316,0.1784 -0.212469,-0.022 -0.208471,-0.2796 4.86e-4,-0.107 0.0053,-0.1618 0.02205,-0.1662 z m -3.85914,0.6552 c 0.04313,0 0.07281,0 0.09276,0.015 -0.07597,0.014 -0.150808,0.026 -0.218585,0.016 0.03264,-0.019 0.07701,-0.031 0.125825,-0.031 z m 79.860755,4.2498 c 0.0459,0.102 0.123,0.1646 0.23052,0.1826 0.38459,0.065 0.45161,0.2001 0.28011,0.5653 -0.16467,0.3506 -0.45736,0.4691 -0.45736,0.1852 0,-0.061 -0.0182,-0.1083 -0.0533,-0.1428 l 0,-0.5687 0,-0.2216 z m -69.420333,0.6414 c 0.05132,0.022 0.10176,0.047 0.148781,0.076 0.07576,0.048 0.135773,0.1143 0.196536,0.1792 -0.078,0.4134 0.07674,0.5937 0.375629,0.4579 0.0085,0.058 0.0024,0.1082 -0.04498,0.1082 -0.288591,0 -0.552239,-0.2595 -0.772378,-0.483 0.03177,-0.1128 0.06304,-0.2261 0.09643,-0.3384 z m 75.804163,7.4669 c 0.0974,0 0.14489,0.05 0.1047,0.1117 -0.0401,0.061 -0.15235,0.1116 -0.24981,0.1116 -0.0974,0 -0.14489,-0.05 -0.10469,-0.1116 0.0401,-0.061 0.15234,-0.1117 0.2498,-0.1117 z m -16.01054,1.64201 c -0.0688,0 -0.1249,0.05 -0.1249,0.1116 0,0.061 0.0227,0.1108 0.0514,0.1108 0.0287,0 0.0857,-0.05 0.12582,-0.1108 0.0401,-0.061 0.0165,-0.1116 -0.0524,-0.1116 z m -0.80452,0.5565 c -0.065,0 -0.18452,0.075 -0.26542,0.1671 -0.0821,0.093 -0.0944,0.167 -0.0285,0.167 0.065,0 0.18361,-0.075 0.2645,-0.167 0.0821,-0.093 0.0953,-0.1671 0.0294,-0.1671 z m -1.89926,0.3696 c -0.20447,0.4003 -0.80138,0.6883 -1.01024,0.521 0.57868,-0.1583 0.65937,-0.287 1.01024,-0.521 z m -9.24925,0.2207 c 0.1177,0.01 0.19695,0.098 0.27093,0.2034 -0.0412,0.016 -0.0822,0.031 -0.11847,0.048 -0.0681,0.032 -0.1227,0.055 -0.16991,0.07 l 0,-0.074 c 0,-0.081 0.008,-0.164 0.0174,-0.2467 z m 5.30746,0.9036 c -0.0537,-0.01 -0.0946,0.059 -0.0946,0.1697 0,0.126 0.0526,0.2293 0.11756,0.2293 0.065,0 0.11847,-0.073 0.11847,-0.1609 0,-0.088 -0.0535,-0.1907 -0.11847,-0.2285 -0.008,0 -0.0152,-0.01 -0.0229,-0.01 z m -3.36045,0.1792 c 0.14913,-0.012 0.31227,0.047 0.31227,0.1575 0,0.088 -0.0409,0.1846 -0.0909,0.2138 -0.13913,0.081 -0.51418,-0.1512 -0.43625,-0.27 0.0407,-0.062 0.12542,-0.094 0.2149,-0.1013 z m 2.83329,0.067 c -0.0608,0 -0.13448,0.026 -0.21307,0.08 -0.13331,0.092 -0.19083,0.2232 -0.14603,0.3333 0.0861,0.2114 0.38612,0.1372 0.49134,-0.1212 0.0734,-0.1803 4.9e-4,-0.2941 -0.13224,-0.2917 z m 3.52483,0.2796 c -0.0122,0 -0.0258,0 -0.0404,0.01 -0.0756,0.024 -0.21479,0.1538 -0.3095,0.2883 -0.18939,0.2687 -0.12911,0.3043 0.21858,0.1289 0.22794,-0.115 0.31305,-0.4452 0.13133,-0.4258 z m -2.69826,0.059 c -0.0736,0.01 -0.16616,0.039 -0.29298,0.1004 -0.36004,0.1755 -0.42444,0.366 -0.19562,0.5817 0.0985,0.093 0.10188,0.1333 0.0101,0.1333 -0.0726,0 -0.15007,-0.042 -0.17175,-0.093 -0.0217,-0.052 -0.1776,-0.1262 -0.34715,-0.1653 -0.22207,-0.051 -0.36547,-0.011 -0.51339,0.1428 -0.21513,0.224 -0.16109,0.4501 0.10745,0.4501 0.0866,0 0.19165,0.084 0.23328,0.1861 0.0766,0.1881 -0.10458,0.3656 -0.37563,0.3687 -0.0812,0 -0.14787,0.052 -0.14787,0.1116 0,0.06 -0.13328,0.1408 -0.29571,0.1792 -0.28301,0.067 -0.38246,0.2593 -0.21583,0.4163 0.33259,0.313 1.48561,-0.4224 1.61456,-1.03 0.0541,-0.2549 0.1187,-0.3124 0.30123,-0.2674 0.17134,0.042 0.28052,-0.032 0.41787,-0.2822 0.22122,-0.4032 0.23392,-0.5949 0.0505,-0.7677 -0.0511,-0.048 -0.10542,-0.07 -0.17909,-0.064 z m -1.86896,0.095 c -0.0541,10e-5 -0.11443,0.035 -0.1745,0.1039 -0.0831,0.094 -0.24499,0.1714 -0.35909,0.1714 -0.1853,0 -0.3125,0.1958 -0.50696,0.7824 -0.0314,0.095 -0.32893,0.2363 -0.66952,0.3186 -0.33716,0.081 -0.64209,0.2205 -0.67778,0.3081 -0.0951,0.2335 0.0486,0.3147 0.26174,0.148 0.3099,-0.2424 0.49072,0.037 0.24889,0.3852 -0.10862,0.1562 -0.14271,0.2847 -0.0762,0.2847 0.0665,0 0.12031,-0.05 0.12031,-0.1116 0,-0.061 0.0798,-0.1117 0.17725,-0.1117 0.0974,0 0.17726,-0.09 0.17726,-0.2008 0,-0.1108 0.0705,-0.2921 0.15613,-0.4024 0.1432,-0.1846 0.17094,-0.1859 0.34623,-0.021 0.17529,0.1651 0.21001,0.1536 0.43073,-0.1385 0.18034,-0.2387 0.2225,-0.4182 0.16991,-0.7237 -0.0617,-0.358 -0.0411,-0.4068 0.17449,-0.4068 0.28769,0 0.45131,-0.1961 0.29022,-0.3479 -0.0269,-0.025 -0.0566,-0.038 -0.0891,-0.038 z m 2.96461,0.1636 c -0.18468,0 -0.34442,0.2999 -0.24246,0.4553 0.13952,0.2128 0.40685,0.097 0.40685,-0.1766 0,-0.1637 -0.0676,-0.2787 -0.16439,-0.2787 z m -0.37655,0.4579 c -0.0161,0 -0.0357,4e-4 -0.0579,0.01 -0.0852,0.027 -0.17821,0.1144 -0.20664,0.1948 -0.0296,0.083 0.0152,0.1247 0.10378,0.097 0.0853,-0.027 0.17822,-0.1143 0.20664,-0.1947 0.0222,-0.063 0.002,-0.1017 -0.0459,-0.1056 z m -0.32603,1.0412 c -0.0482,-0.01 -0.14218,0.027 -0.26358,0.1135 -0.19987,0.1424 -0.20381,0.1622 -0.0285,0.1653 0.10986,0 0.23453,-0.05 0.27735,-0.1152 0.0644,-0.098 0.0629,-0.1538 0.0147,-0.1636 z m -5.17705,0.3869 c -0.10436,0 -0.18949,0.142 -0.18184,0.3965 0.009,0.2877 0.0644,0.3894 0.21215,0.3894 0.25532,0 0.33917,-0.2091 0.21307,-0.5288 -0.0698,-0.177 -0.1622,-0.2586 -0.24338,-0.2571 z m 4.63243,0.031 0,0 c -0.30683,-0.011 -1.77803,0.8934 -1.77803,1.1053 0,0.1685 0.17596,0.1 0.32695,-0.1281 0.0812,-0.1224 0.20882,-0.2224 0.28379,-0.2224 0.20827,0 1.33194,-0.7077 1.19301,-0.7513 -0.007,0 -0.0158,0 -0.0257,0 z m -2.30428,0.3558 c -0.16663,0.01 -0.41879,0.2216 -0.41879,0.4033 0,0.2639 0.1538,0.2809 0.40502,0.044 0.19911,-0.1876 0.23002,-0.3034 0.11113,-0.4154 -0.0253,-0.024 -0.0588,-0.034 -0.0974,-0.032 z m -3.89402,0.2882 c -0.10287,0 -0.18644,0.08 -0.18644,0.1766 0,0.1966 0.25395,0.1623 0.32695,-0.044 0.0257,-0.073 -0.0376,-0.1325 -0.14051,-0.1325 z m 2.89296,0.021 c -0.17359,-0.01 -0.35515,0.2616 -0.28654,0.5089 0.0381,0.1374 0.13759,0.2493 0.22042,0.2493 0.19939,0 0.34232,-0.5559 0.18184,-0.7072 -0.036,-0.034 -0.0757,-0.05 -0.11572,-0.051 z m -0.85228,0.3306 c -0.0577,0 -0.10102,0.061 -0.10102,0.1497 0,0.1021 0.0569,0.1674 0.12674,0.1455 0.0699,-0.022 0.12766,-0.087 0.12766,-0.1455 0,-0.058 -0.0578,-0.1243 -0.12766,-0.1462 -0.008,0 -0.0166,0 -0.0248,0 l -4.8e-4,0 z m -2.22896,0.1221 c -0.0342,0 -0.077,4e-4 -0.13133,0.01 -0.31802,0.046 -0.4351,0.2826 -0.20664,0.4189 0.23471,0.14 0.39299,0.062 0.43624,-0.2155 0.023,-0.1474 0.004,-0.2061 -0.0983,-0.213 z m 3.84536,0.4518 c -0.14194,-0.019 -0.77238,0.314 -0.77238,0.4189 0,0.057 0.032,0.103 0.0707,0.103 0.11692,0 0.77302,-0.4659 0.72279,-0.5133 -0.004,0 -0.0117,-0.01 -0.0211,-0.01 z m -3.1639,0.766 c 0.17215,0 0.17567,0.016 0.0229,0.109 -0.23135,0.141 -0.38813,0.141 -0.29572,0 0.0401,-0.061 0.16289,-0.1099 0.27276,-0.109 z m -1.19852,0.047 c 0.011,0 0.0201,0.01 0.0266,0.012 0.0307,0.029 -0.0968,0.202 -0.28287,0.3851 -0.3756,0.3695 -0.52991,0.4177 -0.52992,0.1644 0,-0.1588 0.62211,-0.5897 0.78615,-0.5617 z m 0.57675,0.9997 0,5e-4 c 0.0389,-0.01 0.0545,0.016 0.0542,0.074 -2.2e-4,0.086 -0.16355,0.2445 -0.36277,0.3514 -0.31318,0.168 -0.35712,0.1708 -0.3242,0.021 0.0209,-0.095 0.0729,-0.157 0.11481,-0.1385 0.042,0.018 0.18834,-0.062 0.32511,-0.1783 0.0926,-0.079 0.15397,-0.1228 0.19286,-0.1316 z m 1.3969,1.5545 c 0.0243,0 0.0435,-10e-5 0.0542,0.01 0.0433,0.041 -0.0534,0.1696 -0.2149,0.2865 -0.31084,0.2251 -0.47358,0.2718 -0.46747,0.1341 0.005,-0.1197 0.45792,-0.4133 0.62819,-0.431 z m -2.87093,0.3038 c 0.078,0 0.11205,0.071 0.11205,0.2112 0,0.1778 -0.0774,0.2219 -0.3839,0.219 l -0.38389,0 0.27827,-0.219 c 0.17707,-0.139 0.29949,-0.2083 0.37747,-0.2077 z m -2.47785,0.2657 c 0.0636,-0.01 0.10836,0.016 0.10836,0.061 0,0.059 -0.0798,0.1073 -0.17725,0.1073 -0.0974,0 -0.17724,-0.02 -0.17724,-0.044 0,-0.024 0.0798,-0.072 0.17724,-0.1073 0.0243,-0.01 0.0478,-0.014 0.0689,-0.016 z m 5.54899,0.3912 c 0.0688,0 0.0925,0.05 0.0524,0.1108 -0.0401,0.061 -0.0963,0.1117 -0.1249,0.1117 -0.0287,0 -0.0524,-0.05 -0.0524,-0.1117 0,-0.061 0.0561,-0.1108 0.12491,-0.1108 z m -1.0378,0.3506 c 0.006,0 0.009,-5e-4 0.011,0 0.0107,0.02 0.085,0.1479 0.16624,0.2848 0.19489,0.3287 0.2133,0.2934 -0.32237,0.6275 -0.25851,0.1612 -0.49696,0.2926 -0.53083,0.2926 -0.034,0 -0.0615,-0.1989 -0.0615,-0.4423 0,-0.382 0.0492,-0.4669 0.36461,-0.6206 0.17584,-0.086 0.33022,-0.1451 0.37287,-0.1454 z m -3.75719,0.9858 c 0.0457,0 0.10484,0.01 0.18276,0.019 0.24208,0.035 0.23459,0.054 -0.1249,0.3704 l -0.3793,0.3341 0.0845,-0.3341 c 0.0787,-0.3106 0.0999,-0.3885 0.23694,-0.3895 z m 4.4212,0.5643 c -0.0727,0.01 -0.15453,0.07 -0.19103,0.1732 -0.0257,0.073 0.0368,0.1324 0.1396,0.1324 0.10286,0 0.18736,-0.08 0.18736,-0.1766 0,-0.098 -0.0633,-0.1388 -0.13593,-0.129 z m -5.63533,0.3298 c 0.12083,-0.01 0.2224,0.034 0.18643,0.1368 -0.0268,0.076 -0.16412,0.1553 -0.3049,0.1748 -0.19155,0.026 -0.23782,-0.01 -0.1846,-0.1393 0.042,-0.1034 0.18225,-0.1635 0.30307,-0.1723 z m -11.217383,1.7796 c 0.05997,0 0.09092,0.035 0.09092,0.1047 0,0.061 -0.119234,0.1102 -0.265416,0.1091 -0.214937,0 -0.232434,-0.022 -0.08909,-0.1091 0.114522,-0.07 0.203619,-0.1047 0.263585,-0.1047 z m -1.858854,0.8923 c 0.06498,0 0.03876,0.049 -0.05878,0.1082 -0.09742,0.059 -0.230748,0.1082 -0.295727,0.1082 -0.06498,0 -0.03784,-0.049 0.05969,-0.1082 0.09742,-0.059 0.22984,-0.1082 0.294814,-0.1082 z m -7.800009,7.9352 c 0.07737,0 0.05697,0.037 -0.04595,0.1541 -0.0206,0.023 -0.04158,0.043 -0.06245,0.062 0.02944,-0.072 0.05955,-0.1498 0.08633,-0.2129 0.0064,0 0.01691,0 0.02205,0 z m -8.870868,12.9736 c 0.04843,0 0.06813,0.043 0.04595,0.1056 -0.02851,0.08 -0.122284,0.1688 -0.207563,0.1956 -0.08856,0.028 -0.132378,-0.014 -0.102858,-0.098 0.02842,-0.08 0.12136,-0.1679 0.206634,-0.1947 0.02215,-0.01 0.04168,-0.01 0.05786,-0.01 l 0,-5e-4 z m -2.414478,0.6734 c 4.86e-4,0.013 0.0029,0.023 0.0029,0.037 0,0.1566 -0.05255,0.2847 -0.117557,0.2847 -0.06498,0 -0.118475,-0.097 -0.118475,-0.2155 0,-0.018 0.0034,-0.035 0.0055,-0.053 0.100512,-0.025 0.164019,-0.039 0.22777,-0.054 z m -0.825651,0.2103 c -0.06647,0.042 -0.174245,0.072 -0.292054,0.082 0.08142,-0.024 0.174886,-0.05 0.292054,-0.082 z m 0.675951,0.4674 c 0.02589,0.01 0.034,0.049 0.034,0.1255 0,0.1033 -0.05493,0.2848 -0.122153,0.4033 -0.144915,0.2552 -0.232117,0.2655 -0.524405,0.064 -0.260296,-0.1793 -0.167799,-0.5477 0.112044,-0.4466 0.100726,0.036 0.262472,0 0.359094,-0.072 0.07181,-0.056 0.115483,-0.082 0.141441,-0.074 z m -2.205094,0.1653 -0.274602,0.1843 0.01744,-0.089 0.0039,0 c 0.09054,-0.014 0.17319,-0.051 0.253481,-0.095 z m 0.700743,0.2614 c 0.01511,0 0.02905,0 0.04134,0.01 0.08963,0.032 0.194214,0.2098 0.233274,0.3938 0.04352,0.2054 0.166701,0.363 0.318688,0.4086 0.31763,0.095 0.231821,0.3422 -0.10654,0.3064 -0.322473,-0.034 -0.44022,0.2327 -0.263575,0.598 0.100833,0.2081 0.193927,0.2613 0.370115,0.2087 0.193287,-0.058 0.23511,-0.02 0.23511,0.2146 0,0.3184 -0.09003,0.3741 -0.193787,0.1194 -0.03745,-0.092 -0.162314,-0.167 -0.277355,-0.167 -0.115037,0 -0.261589,-0.063 -0.326034,-0.1393 -0.179233,-0.2129 -0.299093,-0.9747 -0.153376,-0.9747 0.06786,0 0.123065,-0.1247 0.123065,-0.2778 0,-0.2808 -0.268209,-0.3879 -0.414197,-0.1653 -0.04075,0.062 -0.126529,0.083 -0.190115,0.046 -0.155689,-0.091 0.375406,-0.5753 0.603394,-0.5773 z m -2.937058,0.3176 c 0.121993,0 0.222252,0.067 0.222252,0.1489 0,0.1963 -0.555722,0.4399 -0.655738,0.2874 -0.104457,-0.1593 0.170611,-0.4363 0.433486,-0.4363 z m -2.830517,0.5185 c -0.0206,0.055 -0.04809,0.1166 -0.08266,0.1852 -0.374744,0.7442 -0.566389,0.5771 -0.240623,-0.1774 0.108654,0.01 0.216515,0.01 0.323284,-0.01 z m 4.773864,0.034 c 0.102863,0 0.166229,0.06 0.140509,0.1324 -0.07298,0.2064 -0.326947,0.2408 -0.326947,0.044 0,-0.097 0.08352,-0.1766 0.186438,-0.1766 z m -10.628695,0.4397 0,0 c 0.0024,0 0.0044,0 0.0055,0 -0.03959,0.2274 -0.174896,0.4799 -0.378383,0.6716 -0.154018,0.1452 -0.280115,0.316 -0.280115,0.38 0,0.1851 -0.438898,0.1353 -0.517974,-0.059 -0.03935,-0.097 -0.03949,-0.3665 0,-0.5989 0.0205,-0.1206 0.02579,-0.2253 0.01836,-0.309 0.140932,-0.015 0.312151,-0.032 0.506953,-0.049 0.231325,0.1559 0.320592,0.1546 0.34165,-0.028 0.101265,-0.01 0.202414,-0.01 0.303994,-0.01 z m 6.379236,0.044 c 0.01404,0 0.02973,0.01 0.0459,0.017 0.06498,0.038 0.11848,0.092 0.11848,0.1187 0,0.027 -0.05349,0.049 -0.11848,0.049 -0.06499,0 -0.117557,-0.053 -0.117557,-0.1177 0,-0.049 0.02924,-0.073 0.07164,-0.067 z m -8.103075,0.1142 c 0.0024,0.034 0.0049,0.067 0.0039,0.1022 -0.157345,-0.025 -0.268151,-0.054 -0.0039,-0.1022 z m -5.161437,0.3514 0.169907,0 0.04775,0 c 0.0444,0.1013 0.104456,0.1816 0.177251,0.2225 0.08707,0.049 0.157967,0.1587 0.157967,0.2441 0,0.089 -0.124581,0.29 -0.274601,0.457 l -0.274607,0.3012 0.01739,-0.6959 c 0.0064,-0.2345 -2.23e-4,-0.4072 -0.02113,-0.5289 z m 4.468043,0.097 c -0.02472,0 -0.05161,0.01 -0.07807,0.032 -0.03896,0.036 -0.02968,0.1301 0.02113,0.2077 0.07437,0.1131 0.102315,0.1131 0.142355,0 0.04279,-0.1211 -0.01112,-0.233 -0.08541,-0.2398 z m 3.535851,0 c -0.233876,0 -0.624339,0.4216 -0.552875,0.5971 0.05729,0.1409 0.156762,0.1692 0.403176,0.1134 0.180112,-0.041 0.336661,-0.08 0.347153,-0.086 0.06243,-0.04 -0.122419,-0.624 -0.197454,-0.624 z m 4.998875,0.212 c 0.04236,0 0.07164,0.043 0.07164,0.1117 0,0.092 -0.05257,0.1984 -0.117562,0.2362 -0.06498,0.038 -0.118471,-0.01 -0.118471,-0.099 0,-0.092 0.05347,-0.1976 0.118471,-0.2355 0.01622,-0.01 0.03182,-0.014 0.04595,-0.014 z m -19.22496,0.1212 c -0.120618,0 -0.185519,0.1011 -0.185519,0.2882 0,0.3488 0.277735,0.3106 0.33338,-0.046 0.02508,-0.1605 -0.02474,-0.2423 -0.147861,-0.2423 z m 16.64241,0.049 c 0.017,0 0.03381,0 0.05235,0.01 0.186398,0.046 0.189318,0.09 0.03123,0.5427 -0.125942,0.3605 -0.23427,0.4934 -0.404099,0.4934 -0.139586,0 -0.20766,-0.056 -0.17082,-0.1394 0.03371,-0.076 0.124091,-0.3207 0.201126,-0.5427 0.08996,-0.259 0.171593,-0.3634 0.290219,-0.3609 z m -6.314034,0.062 c -0.06498,0 -0.118475,0.075 -0.118475,0.1671 0,0.092 0.05348,0.167 0.118475,0.167 0.06498,0 0.118475,-0.075 0.118475,-0.167 0,-0.092 -0.05348,-0.1671 -0.118475,-0.1671 z m -13.811883,0.1351 c 0.11887,0 0.148598,0.065 0.03217,0.1679 -0.06061,0.053 -0.23035,0.1306 -0.376546,0.1722 -0.379511,0.1081 -0.338449,-0.1409 0.04589,-0.2787 0.123279,-0.044 0.227159,-0.063 0.298483,-0.061 z m 26.911084,0.071 c 0.185563,-0.014 0.611496,0.2314 0.566656,0.3584 -0.08366,0.2367 -0.420245,0.2177 -0.562066,-0.032 -0.07459,-0.1314 -0.10552,-0.2676 -0.06796,-0.3029 0.01462,-0.014 0.03692,-0.021 0.06337,-0.023 z m -21.383208,0.2173 c 0.02464,0 0.05058,0 0.07715,0.03 0.0458,0.043 0.03221,0.2414 -0.03033,0.4414 l -0.113879,0.3644 -0.06338,-0.2995 c -0.05431,-0.2559 0.02365,-0.5185 0.130415,-0.5366 z m 8.979242,0.043 c -0.0781,-0.01 -0.164398,0.1202 -0.164398,0.3298 0,0.206 -0.07066,0.288 -0.272766,0.315 -0.306452,0.041 -0.4695,0.3106 -0.290208,0.4796 0.07832,0.074 0.178179,0.053 0.297558,-0.059 0.160736,-0.1515 0.201772,-0.1467 0.386645,0.046 0.245874,0.2561 0.357467,0.2124 0.461962,-0.18 0.05185,-0.1945 0.02074,-0.333 -0.0946,-0.418 -0.09496,-0.07 -0.190421,-0.2247 -0.212149,-0.3428 -0.02089,-0.1137 -0.06525,-0.1661 -0.112044,-0.1705 z m 13.730137,0.087 c 0.06147,0 0.09994,0.072 0.07807,0.2181 -0.02166,0.144 -0.132791,0.2791 -0.246127,0.2995 -0.168707,0.03 -0.187778,-0.01 -0.10654,-0.2164 0.0781,-0.1989 0.195554,-0.3052 0.274601,-0.3012 z m -28.819522,0.1264 c 0.03574,0.01 0.08314,0.063 0.162555,0.1696 0.09902,0.1332 0.146625,0.2921 0.106537,0.3532 -0.193427,0.2949 -0.505951,-0.057 -0.362767,-0.4085 0.03339,-0.082 0.05793,-0.1221 0.09368,-0.1143 z m 26.915673,0.2345 c 0.192062,0 0.465629,0.1093 0.465634,0.232 0,0.077 -0.07557,0.1992 -0.167148,0.2709 -0.132101,0.1034 -0.204561,0.078 -0.352667,-0.1212 -0.102757,-0.1382 -0.14664,-0.2893 -0.09735,-0.3358 0.03289,-0.031 0.08751,-0.045 0.151531,-0.046 z m -21.455762,0.066 c 0.101255,0 0.1846,0.05 0.1846,0.1116 0,0.061 -0.04997,0.1108 -0.111129,0.1108 -0.06114,0 -0.144443,-0.05 -0.184597,-0.1108 -0.04011,-0.061 0.0097,-0.1116 0.111126,-0.1116 z m -4.227414,0.029 c 0.215456,0 0.19903,0.1409 -0.05694,0.3592 -0.294167,0.2509 -0.39845,0.2318 -0.353595,-0.066 0.02422,-0.161 0.133165,-0.2636 0.304,-0.2865 0.04025,0 0.0757,-0.01 0.106533,-0.01 z m 1.583328,0.277 c -0.118352,-0.015 -0.352665,0.163 -0.352665,0.2907 0,0.054 0.106039,0.098 0.236026,0.098 0.22702,0 0.320607,-0.218 0.158883,-0.3705 -0.01116,-0.011 -0.02534,-0.016 -0.04223,-0.018 z m 13.830256,0.053 c -0.06114,0 -0.143516,0.05 -0.183688,0.1116 -0.04012,0.061 0.0095,0.1108 0.111131,0.1108 0.101265,0 0.183678,-0.049 0.183678,-0.1108 0,-0.061 -0.04997,-0.1116 -0.111121,-0.1116 z m -3.423812,0.1246 c -0.334199,0 -0.608315,0.1206 -0.533591,0.2345 0.07576,0.1157 0.306408,0.1285 0.573082,0.032 0.259796,-0.094 0.234323,-0.2666 -0.03949,-0.2666 z m -0.876155,0.033 c -0.05069,-0.01 -0.105277,0.018 -0.135933,0.065 -0.04085,0.062 0.0089,0.1133 0.110212,0.1133 0.207505,0 0.238277,-0.066 0.07439,-0.1618 -0.01511,-0.01 -0.03177,-0.015 -0.04867,-0.016 z m 15.987576,0.3159 c -0.05356,0 -0.106341,0.01 -0.146945,0.022 -0.0812,0.031 -0.0154,0.056 0.146945,0.056 0.162437,0 0.229092,-0.026 0.147864,-0.056 -0.04066,-0.015 -0.09431,-0.022 -0.147864,-0.022 z m 20.598887,0.015 c -0.01788,0 -0.03046,0.038 -0.034,0.1194 -0.0053,0.1174 0.02317,0.1833 0.06245,0.1463 0.03925,-0.037 0.04323,-0.1334 0.0092,-0.2138 -0.01418,-0.033 -0.02686,-0.05 -0.03765,-0.052 z"
       id="path2620"
       inkscape:export-xdpi="179.89"
       inkscape:export-ydpi="179.89" />
    <text
       xml:space="preserve"
       style="font-style:normal;font-variant:normal;font-weight:500;font-stretch:normal;font-size:144.94673157px;line-height:200%;font-family:'Sofia Pro';-inkscape-font-specification:'Sofia Pro, Medium';text-align:start;letter-spacing:0px;word-spacing:0px;writing-mode:lr-tb;text-anchor:start;fill:#777777;fill-opacity:1;stroke:none;stroke-width:1px;stroke-linecap:butt;stroke-linejoin:miter;stroke-opacity:1;"
       x="159.30055"
       y="1052.7002"
       id="text4189"
       sodipodi:linespacing="200%"
       inkscape:export-xdpi="179.89"
       inkscape:export-ydpi="179.89"
       transform="scale(1.0354603,0.96575408)"><tspan
         sodipodi:role="line"
         x="159.30055"
         y="1052.7002"
         id="tspan4193"
         style="font-style:normal;font-variant:normal;font-weight:normal;font-stretch:normal;font-size:144.94673157px;line-height:200%;font-family:'Stencil Style New';-inkscape-font-specification:'Stencil Style New';text-align:start;letter-spacing:0px;writing-mode:lr-tb;text-anchor:start;fill:#777777;fill-opacity:1;"
         dy="0"
         dx="0">OPSEC</tspan></text>
  </g>
</svg>
