<?xml version="1.0" encoding="UTF-8" standalone="no"?>
<!-- Created with Inkscape (http://www.inkscape.org/) -->

<svg
   xmlns:dc="http://purl.org/dc/elements/1.1/"
   xmlns:cc="http://creativecommons.org/ns#"
   xmlns:rdf="http://www.w3.org/1999/02/22-rdf-syntax-ns#"
   xmlns:svg="http://www.w3.org/2000/svg"
   xmlns="http://www.w3.org/2000/svg"
   xmlns:sodipodi="http://sodipodi.sourceforge.net/DTD/sodipodi-0.dtd"
   xmlns:inkscape="http://www.inkscape.org/namespaces/inkscape"
   id="svg2560"
   sodipodi:docname="logo-text.svg"
   viewBox="0 0 974.77 1285.2"
   version="1.0"
   inkscape:version="0.91 r13725">
  <defs
     id="defs7" />
  <sodipodi:namedview
     id="namedview8"
     bordercolor="#666666"
     inkscape:pageshadow="2"
     guidetolerance="10"
     pagecolor="#ffffff"
     gridtolerance="10"
     inkscape:window-maximized="0"
     inkscape:zoom="0.63429568"
     objecttolerance="10"
     borderopacity="1"
     inkscape:current-layer="svg2560"
     inkscape:cx="383.51596"
     inkscape:cy="970.79863"
     inkscape:window-y="0"
     inkscape:window-x="0"
     inkscape:window-width="1225"
     showgrid="false"
     inkscape:pageopacity="0"
     inkscape:window-height="741" />
  <path
     style="fill:#333333;fill-opacity:1"
     d="M 260.48828 170.80664 C 258.20355 170.79304 256.2594 170.87911 255.46094 171.08789 C 254.93487 171.22563 252.42458 171.43687 249.88086 171.55664 C 247.33702 171.67645 245.14551 171.84114 245.01172 171.92383 C 244.78775 172.06247 241.55798 172.41378 237.91211 172.69727 C 237.08197 172.76197 236.2783 172.89282 236.12695 172.98633 C 235.97559 173.07983 235.39209 173.18194 234.83008 173.21484 C 233.18503 173.31104 230.12224 173.77049 229.03516 174.08398 C 228.04581 174.36929 225.46071 174.85792 222.50195 175.31836 C 220.85139 175.57521 217.46506 176.13681 214.71484 176.60938 C 214.63384 176.62297 214.55519 176.6428 214.47461 176.6582 L 213.42773 176.6582 C 213.24097 176.6582 213.03418 176.5747 212.86719 176.6582 C 212.63101 176.77619 212.54282 177.09871 212.30664 177.2168 C 212.13963 177.3003 211.87813 177.08474 211.74609 177.2168 C 211.64261 177.32028 211.66283 177.47583 211.70703 177.64062 C 211.49486 177.71003 211.27212 177.77343 211.05273 177.81836 C 210.44139 177.94407 209.15391 178.27583 208.19141 178.55469 C 207.22889 178.83353 206.35792 179.01035 206.25586 178.94727 C 206.15374 178.88417 205.52529 179.22276 204.85938 179.70117 C 203.87435 180.40884 203.42691 181.00747 202.46484 182.91211 C 201.98711 183.85794 201.47945 184.91579 201.1543 185.63281 C 200.79826 185.70701 200.5943 185.90359 200.84375 186.36328 C 200.69217 186.75558 200.47112 187.40102 200.20703 188.21289 C 200.13123 188.28099 200.05585 188.34844 199.98438 188.41992 C 199.79763 188.60667 199.54191 188.7443 199.42383 188.98047 C 199.34033 189.14749 199.48283 189.36388 199.42383 189.54102 C 198.07139 193.59836 199.58453 188.65715 198.30273 191.2207 C 198.18315 191.45992 198.30273 193.80005 198.30273 194.02148 L 198.30273 194.49414 C 198.12142 195.143 197.96809 195.71197 197.89062 196.05664 C 197.27209 198.80786 196.0234 203.2597 195.78711 203.55469 C 195.65913 203.71467 195.49608 204.241 195.42578 204.72461 C 195.37088 205.10275 195.2718 205.59055 195.1543 206.12109 C 195.0837 206.19529 194.95004 206.33299 194.94141 206.3457 C 194.83794 206.50114 195.04489 206.74895 194.94141 206.9043 C 194.64846 207.3437 194.05845 207.55304 193.82227 208.02539 C 193.65526 208.35937 193.98928 208.81053 193.82227 209.14453 C 193.58609 209.61687 192.93735 209.79328 192.70117 210.26562 C 192.53416 210.5996 192.77447 211.02057 192.70117 211.38672 C 192.4696 212.54467 191.86649 213.60049 191.58008 214.74609 C 191.53468 214.92717 191.58008 215.11993 191.58008 215.30664 C 191.58008 215.86679 191.67218 216.43575 191.58008 216.98828 C 191.48298 217.57069 191.13728 218.08898 191.02148 218.66797 C 190.97318 218.90932 191.02262 219.16036 191.04102 219.4082 C 190.94712 219.72151 190.86172 220.01215 190.79492 220.25781 C 190.66308 220.46726 190.52001 220.67195 190.46094 220.9082 C 190.39424 221.17503 190.38544 221.47578 190.39844 221.79102 C 190.11388 222.85627 189.74996 224.135 189.46094 225.07422 C 188.37243 228.61155 187.0925 234.00381 186.32812 238.26367 C 186.13661 239.33149 186.02414 239.94709 185.89062 240.6875 C 185.67574 241.16228 185.6546 241.72396 185.41992 242.19336 C 185.30193 242.42954 185.07906 242.60744 184.85938 242.75391 C 184.51198 242.98548 183.92694 242.94107 183.74023 243.31445 C 183.58162 243.63154 183.72176 244.0194 183.78516 244.38867 C 183.76926 244.40457 183.75273 244.41489 183.74023 244.43359 C 183.75843 244.44499 183.77797 244.46647 183.79688 244.48047 C 183.81277 244.60233 183.81642 244.72138 183.79102 244.83398 C 183.67348 244.71825 183.63551 244.58756 183.73828 244.43359 C 183.06966 244.91296 180.77133 244.19533 179.81836 244.43359 C 176.18837 245.34109 182.46065 244.88762 176.45703 245.55469 C 175.52918 245.65771 174.5841 245.45167 173.65625 245.55469 C 172.23163 245.46099 171.08 246.48158 169.73438 246.67383 C 168.99502 246.77934 168.22321 246.5118 167.49414 246.67383 C 166.5126 246.89189 165.66015 247.51869 164.69336 247.79492 C 164.33428 247.89749 163.93647 247.70442 163.57422 247.79492 C 162.76414 247.99756 162.14406 248.71349 161.33398 248.91602 C 160.97171 249.00652 160.58633 248.91602 160.21289 248.91602 L 156.29102 248.91602 C 155.73087 248.91602 155.15476 248.7801 154.61133 248.91602 C 154.09899 249.044 153.99124 249.86817 153.49023 250.03516 C 152.78172 250.27134 151.95853 249.79898 151.25 250.03516 C 150.99951 250.11866 150.94758 250.53166 150.69141 250.5957 C 150.14801 250.73162 149.51076 250.3452 149.00977 250.5957 C 148.63633 250.78245 148.74444 251.42158 148.44922 251.7168 C 148.15402 252.01202 147.67747 252.04379 147.33008 252.27539 C 146.858 252.59012 145.43211 254.40351 145.08984 254.51758 C 144.7356 254.63558 144.32302 254.39958 143.96875 254.51758 C 142.74849 254.30813 143.78157 255.45001 143.4082 255.63672 C 143.07419 255.80374 142.66248 255.63672 142.28906 255.63672 C 142.10231 255.63672 141.86054 255.50466 141.72852 255.63672 C 141.46447 255.90077 141.99256 256.49376 141.72852 256.75781 C 140.36804 258.11828 140.90476 256.59016 140.04688 257.87695 C 139.81528 258.22434 139.83576 258.76646 139.48828 258.99805 C 139.17756 259.20523 138.67789 258.79087 138.36719 258.99805 C 138.0198 259.22964 138.10184 259.82197 137.80664 260.11719 C 137.67458 260.24926 137.37811 259.98513 137.24609 260.11719 C 137.21019 260.15309 136.1965 262.25308 136.12695 262.35742 C 135.26905 263.64428 135.80774 262.11807 134.44727 263.47852 C 134.3152 263.61059 134.53077 263.87204 134.44727 264.03906 C 133.62307 265.68744 133.88672 263.16886 133.88672 265.71875 C 133.88672 265.90551 133.75465 266.14728 133.88672 266.2793 C 133.94392 266.3365 136.49604 266.2358 136.67578 266.2793 C 136.53577 266.50123 136.45508 266.68213 136.45508 266.80664 C 136.45508 267.03397 136.77621 267.54503 137.16797 267.94141 C 137.55972 268.33782 138.17999 269.06763 138.54688 269.5625 C 139.17267 270.4068 141.45135 271.80273 142.20312 271.80273 C 142.38966 271.80273 142.95264 272.02127 143.45508 272.28906 C 143.95753 272.55689 144.87819 273.00548 145.5 273.28516 C 146.1218 273.56486 147.08933 274.05305 147.65039 274.36914 C 149.80721 275.58434 150.64427 275.80504 154.04492 276.06445 C 158.38543 276.39555 161.16241 276.39413 162.86328 276.05664 C 163.60746 275.90936 165.06329 275.73622 166.09961 275.67188 C 167.13595 275.60748 168.43753 275.51409 168.99023 275.46484 C 169.54294 275.41534 170.89849 275.29496 172.00391 275.19727 C 172.05131 275.19227 172.10402 275.18624 172.15234 275.18164 C 172.27987 275.20434 172.4065 275.22413 172.53516 275.24023 C 173.09095 275.30963 173.65667 275.24023 174.2168 275.24023 C 175.68154 275.24023 177.24975 275.11973 178.69727 275.24023 C 180.19741 275.36526 181.67682 275.68532 183.17773 275.80078 C 183.92488 275.85818 184.67582 275.82389 185.42578 275.80859 C 185.5313 276.09982 185.63836 276.42944 185.75586 276.80469 C 186.28061 278.48178 186.35295 279.03789 186.16406 279.91016 C 185.82375 281.48185 184.68676 284.59792 184.03516 285.74609 C 184.01476 285.78289 183.99075 285.82957 183.96875 285.87109 C 183.87955 285.84519 183.79394 285.82771 183.73828 285.88281 C 183.60485 286.01624 183.65018 286.21602 183.70508 286.42383 C 183.54487 286.78835 183.36877 287.24456 183.18945 287.73242 C 183.10415 287.42551 183.57036 285.82988 182.61914 288.68359 C 182.56014 288.86082 182.75121 289.11209 182.61914 289.24414 C 182.48707 289.37598 182.1421 289.07713 182.05859 289.24414 C 181.89158 289.5781 182.17659 290.01096 182.05859 290.36523 C 181.89158 290.86624 181.23045 291.04494 180.9375 291.48438 C 180.59639 291.99606 180.46052 292.845 179.81836 293.16602 C 179.65134 293.24952 179.38983 293.03396 179.25781 293.16602 C 179.14322 293.28062 179.36878 294.62361 179.25781 294.8457 C 178.92172 295.51783 177.91422 295.85323 177.57812 296.52539 C 177.40794 296.86554 177.7481 299.54657 177.57812 299.88672 C 177.46013 300.1229 177.13564 300.21109 177.01758 300.44727 C 176.93408 300.61428 177.14964 300.87577 177.01758 301.00781 C 176.75351 301.27188 176.06347 300.67385 175.89648 301.00781 C 175.72946 301.34183 175.98698 301.76463 175.89648 302.12695 C 175.25282 304.70146 175.33594 302.25528 175.33594 303.80859 C 175.33594 304.36869 175.58643 304.98727 175.33594 305.48828 C 175.25244 305.65529 174.86083 305.32127 174.77734 305.48828 C 174.5394 305.96415 174.97885 308.24509 174.77734 308.84961 C 174.69384 309.10012 174.33488 309.17398 174.2168 309.41016 C 174.1539 309.53564 174.2168 311.51725 174.2168 311.65039 L 174.2168 313.89062 C 174.2168 314.26407 174.0988 314.6555 174.2168 315.00977 C 174.34886 315.40586 174.59061 315.7574 174.77734 316.13086 C 174.9641 316.50424 175.04072 316.95671 175.33594 317.25195 C 175.45099 317.367 175.6908 317.18105 175.83789 317.21875 C 175.87529 317.27975 175.90424 317.3274 175.94141 317.38867 C 175.93941 317.52074 175.85408 317.68321 175.89648 317.81055 C 176.02855 318.20664 176.27032 318.55827 176.45703 318.93164 C 176.57072 319.15901 176.67013 319.39427 176.78125 319.62305 C 176.86486 319.65125 176.9214 319.66709 177.25195 319.93164 C 177.35454 320.01374 177.42615 320.13016 177.53125 320.20898 C 177.61435 320.27128 177.7255 320.28726 177.80859 320.34961 C 177.91369 320.42841 177.99499 320.53405 178.08789 320.62695 L 178.36719 320.90625 C 178.41369 320.95265 178.46943 320.99027 178.50586 321.04492 C 178.56346 321.13132 178.59808 321.23132 178.64453 321.32422 C 178.73743 321.37072 178.86622 321.37644 178.92383 321.46289 C 178.97533 321.54019 178.89443 321.65406 178.92383 321.74219 C 178.94463 321.80449 179.03312 321.82211 179.0625 321.88086 C 179.39827 322.55241 178.96074 322.16445 179.48047 322.85742 C 179.66587 323.10463 179.75085 322.98717 180.03906 323.27539 C 180.11246 323.34879 180.10428 323.48125 180.17773 323.55469 C 180.29615 323.67312 180.46492 323.72741 180.5957 323.83203 C 180.69829 323.91413 180.77241 324.02926 180.875 324.11133 C 181.00578 324.21595 181.15899 324.29014 181.29297 324.39062 C 181.59466 324.61689 181.23851 324.54575 181.84961 324.66797 C 181.94071 324.68617 182.03782 324.64977 182.12891 324.66797 C 182.40874 324.63597 182.5835 324.8866 182.82617 324.94727 C 183.06811 325.00777 183.42017 324.88677 183.66211 324.94727 C 183.72581 324.96317 183.73843 325.06517 183.80078 325.08594 C 183.88888 325.11534 184.00278 325.03444 184.08008 325.08594 C 184.16648 325.14354 184.13571 325.30291 184.21875 325.36523 C 184.33626 325.45333 184.5145 325.42246 184.63672 325.50391 C 184.67532 325.52971 184.61592 325.60298 184.63672 325.64453 C 184.70532 325.78165 185.12674 326.06405 185.19531 326.20117 C 185.26101 326.33255 185.24583 326.50163 185.33398 326.61914 C 185.39628 326.70224 185.56683 326.66682 185.61328 326.75977 C 185.67558 326.8844 185.56158 327.04835 185.61328 327.17773 C 185.66208 327.29972 185.83188 327.33757 185.89062 327.45508 C 185.93222 327.53818 185.86813 327.64425 185.89062 327.73438 C 185.91583 327.83513 185.9848 327.92077 186.03125 328.01367 C 186.03125 328.19946 186.00065 328.38704 186.03125 328.57031 C 186.04835 328.67276 186.14955 328.74776 186.16992 328.84961 C 186.19722 328.98625 186.14262 329.13093 186.16992 329.26758 C 186.19032 329.36942 186.26214 329.45202 186.30859 329.54492 C 186.30859 329.68427 186.28569 329.82739 186.30859 329.96484 C 186.33269 330.10973 186.40277 330.24346 186.44922 330.38281 C 186.49562 330.52215 186.54145 330.66143 186.58789 330.80078 C 186.63429 330.94013 186.66091 331.08737 186.72656 331.21875 C 186.75596 331.27755 186.85126 331.29367 186.86719 331.35742 C 186.90099 331.49261 186.86719 331.63604 186.86719 331.77539 L 186.86719 333.0293 C 186.86719 333.89083 186.83271 332.96702 187.00586 334.00586 C 187.03646 334.18914 187.00586 334.3767 187.00586 334.5625 L 187.00586 336.23438 L 187.00586 337.21094 C 187.00586 337.30384 187.04746 337.40519 187.00586 337.48828 C 186.94706 337.60579 186.80864 337.66499 186.72656 337.76758 C 186.39341 338.18403 186.5502 338.23419 186.03125 338.46484 C 185.7628 338.58415 185.45211 338.59953 185.19531 338.74219 C 185.02304 338.83789 184.93879 339.04715 184.77734 339.16016 C 184.47055 339.37492 184.12425 339.53005 183.80078 339.71875 C 183.56683 339.85522 183.355 340.03613 183.10352 340.13672 C 182.91234 340.21322 182.70303 340.22192 182.5 340.25977 C 182.51796 340.9181 182.5447 341.79393 182.48633 342.02734 C 182.41508 342.31234 182.1847 342.53772 182.0918 342.81641 C 182.0143 343.04901 182.0918 344.5669 182.0918 344.78711 L 182.0918 347.93945 C 182.0918 348.33359 182.26807 348.77052 182.0918 349.12305 C 182.05184 349.20296 181.91303 349.12402 181.80859 349.09961 C 182.85897 351.69204 183.85091 354.23545 184.36328 355.73438 C 185.17468 358.10816 185.24262 358.27599 186.17773 360.25586 C 187.71695 363.51461 187.46283 364.29436 185.22852 363.16211 C 184.52824 362.80729 183.81624 362.51758 183.64648 362.51758 C 183.47674 362.51758 183.0483 362.25571 182.69531 361.93555 C 182.34231 361.61537 181.54561 361.15378 180.92383 360.91016 C 180.30202 360.66647 179.33981 360.25428 178.78711 359.99414 C 178.2344 359.73391 176.99068 359.22365 176.02344 358.86133 C 175.23301 358.56521 174.47777 358.28012 173.92773 358.07227 C 173.92695 358.31701 173.9082 358.56393 173.9082 358.80859 L 173.9082 362.71094 L 173.9082 373.30078 L 173.9082 385.00586 L 173.9082 388.35156 C 173.9082 388.90896 174.01752 389.47687 173.9082 390.02344 C 173.82672 390.43083 173.43111 390.73128 173.34961 391.13867 C 173.24029 391.68524 173.34961 392.25316 173.34961 392.81055 L 173.34961 395.59766 C 173.34961 396.15505 173.4848 396.72878 173.34961 397.26953 C 173.33414 397.3314 171.77785 401.0277 171.67773 401.72852 C 171.57263 402.46424 171.67773 403.21578 171.67773 403.95898 L 171.67773 406.1875 C 171.67773 407.11649 171.79296 408.0528 171.67773 408.97461 C 171.60486 409.55762 171.20419 410.06484 171.12109 410.64648 C 171.01598 411.3822 171.20319 412.1383 171.12109 412.87695 C 171.01646 413.81855 170.68001 414.72398 170.5625 415.66406 C 170.4934 416.21715 170.69769 416.79519 170.5625 417.33594 C 170.31983 418.30662 169.66432 419.14632 169.44727 420.12305 C 169.28605 420.84855 169.55237 421.61584 169.44727 422.35156 C 169.36418 422.9332 168.97373 423.44179 168.89062 424.02344 C 168.78552 424.75916 169.0128 425.52083 168.89062 426.25391 C 168.69743 427.41301 167.13026 428.14674 167.77539 429.59766 C 167.5238 431.61033 167.9994 433.71429 167.77539 435.73047 C 167.67076 436.67206 167.30455 437.57213 167.21875 438.51562 C 167.08418 439.9959 167.21875 441.49018 167.21875 442.97656 C 167.21875 443.71976 167.30085 444.46644 167.21875 445.20508 C 167.11413 446.14668 166.84791 447.0632 166.66211 447.99219 C 166.66211 448.92118 166.75451 449.85492 166.66211 450.7793 C 166.56785 451.72199 166.19782 452.62373 166.10352 453.56641 C 166.01112 454.49079 166.2697 455.43951 166.10352 456.35352 C 165.89331 457.50966 165.27328 458.55726 164.98828 459.69727 C 164.71417 460.79369 164.63381 461.92908 164.43164 463.04102 C 164.26217 463.97313 164.00898 464.89026 163.875 465.82812 C 163.42745 468.96099 163.28077 472.17865 162.75977 475.30469 C 162.44827 477.17369 161.97381 479.01296 161.64453 480.87891 C 161.41621 482.17271 161.3888 483.50238 161.08789 484.78125 C 161.04707 484.95472 160.98835 485.12305 160.94141 485.29492 L 162.28516 485.29492 C 161.82246 485.45878 161.19872 485.45452 160.94141 485.29688 C 160.81739 485.75071 160.68281 486.2013 160.5332 486.64844 C 160.56636 486.58444 160.5776 486.54032 160.63281 486.45703 C 160.92129 486.02182 161.34291 485.77699 161.69922 485.78711 C 161.86124 485.79411 162.00875 485.84871 162.125 485.96484 C 162.2852 486.12505 162.0889 486.35258 161.55859 486.61719 C 160.84906 486.97117 160.49064 487.07716 160.4375 486.93555 C 160.05356 488.06454 159.64935 489.18684 159.41602 490.35352 C 159.22181 491.32456 159.14891 492.31426 159.08594 493.30469 C 159.4688 493.24785 159.69178 492.95993 159.69727 492.43555 C 159.70427 491.74773 160.18091 491.70665 160.28711 492.38477 C 160.38311 492.99752 160.21104 492.98777 162.35547 492.5 L 164.09961 492.10352 L 164.09961 491.08008 C 164.09961 490.08 164.11144 490.06559 164.5918 490.5 C 165.07162 490.93426 165.07891 490.92509 164.94727 490.09961 C 164.80545 489.21056 165.18251 487.87305 165.57422 487.87305 C 165.70084 487.87305 165.8778 488.16292 165.9668 488.51758 C 166.07594 488.95292 166.2678 489.13261 166.55859 489.07227 C 167.22147 488.93476 167.01818 487.60522 166.23828 486.97852 C 165.53147 486.41052 165.62888 486.11328 166.52344 486.11328 C 166.93412 486.11328 167.15232 486.29866 167.26367 486.74219 C 167.35037 487.08768 167.59118 487.36914 167.79883 487.36914 C 168.09428 487.36914 168.14088 487.17828 168.01172 486.49023 C 167.90257 485.90873 167.94214 485.61133 168.12891 485.61133 C 168.24895 485.61133 168.30509 485.49687 168.30078 485.2793 C 168.64794 485.2703 168.99502 485.25977 169.3418 485.25977 C 169.48226 485.26877 169.6297 485.26958 169.77148 485.26758 C 169.94598 485.27458 170.12088 485.28202 170.29492 485.29492 C 170.52314 485.31302 170.75122 485.33773 170.97852 485.36523 C 170.54531 485.60055 170.26546 486.15049 170.22266 486.93359 C 170.19066 487.52002 170.3203 488.2399 170.50977 488.5332 C 170.94117 489.20095 170.72965 490.27633 170.24609 489.875 C 170.00156 489.67214 169.88096 489.7351 169.75781 490.12305 C 169.54972 490.77866 169.22231 490.78486 169.05273 490.13672 C 168.90069 489.55531 168.20083 489.49329 167.5293 490.00195 C 167.04985 490.36513 167.18623 490.99898 167.70312 490.81055 C 167.8631 490.75245 168.1947 490.8783 168.43945 491.0918 C 168.82676 491.42937 169.15186 491.4387 170.95117 491.17188 C 172.0881 491.00326 173.38495 490.8397 173.83203 490.80664 C 174.61394 490.74854 175.63826 490.13477 174.95312 490.13477 C 174.78725 490.13477 174.65234 489.97401 174.65234 489.77734 C 174.65234 489.51541 174.94867 489.43146 175.76172 489.46289 C 177.22996 489.51939 177.40845 489.27055 176.49609 488.4375 C 176.08092 488.05835 175.67003 487.55039 175.58203 487.30859 C 175.49403 487.06676 175.25931 486.86914 175.0625 486.86914 C 174.72678 486.86914 174.50407 486.51771 174.42969 485.91406 C 174.71855 485.99346 175.00678 486.08228 175.29492 486.16602 C 175.38912 486.34279 175.51053 486.4326 175.63672 486.4043 C 176.06678 486.3081 176.38954 486.81053 176.39453 487.58008 C 176.39653 488.08125 176.45842 488.12625 176.77539 487.86328 C 176.98257 487.69127 177.15234 487.40606 177.15234 487.23047 C 177.15234 487.05484 177.29993 486.85435 177.48047 486.78516 C 177.73526 486.68736 177.78458 486.99843 177.69922 488.17773 L 177.58984 489.69727 L 178.41992 489.53125 C 178.87702 489.43975 179.28144 489.33385 179.31836 489.29688 C 179.35536 489.26006 179.52765 488.66751 179.70117 487.98047 C 179.90631 487.16821 180.0788 486.68816 180.28516 486.41406 L 181.21875 486.41406 C 181.26935 486.63326 181.27988 486.99133 181.26758 487.56836 C 181.25168 488.37372 181.11195 489.2671 180.95898 489.55273 C 180.74091 489.96009 180.7631 490.14052 181.06445 490.39062 C 181.38667 490.65805 181.47256 490.6219 181.5918 490.16602 C 181.6701 489.86694 181.84538 489.62109 181.98242 489.62109 C 182.12356 489.62109 182.16254 489.89753 182.07227 490.25781 C 181.95518 490.7242 182.08936 491.12658 182.57617 491.76562 C 183.33247 492.75718 183.67346 492.8551 183.86133 492.13672 C 183.95823 491.76584 184.17672 491.65283 184.70508 491.69727 C 185.0965 491.73017 185.40442 491.64386 185.39062 491.50586 C 185.37703 491.36767 185.1632 491.28833 184.91602 491.33008 C 184.66343 491.37318 184.30242 491.15343 184.08984 490.82812 C 183.75137 490.31043 183.75427 490.11615 184.12305 488.99219 C 184.34974 488.30131 184.68267 487.58688 184.86328 487.4043 C 185.0439 487.22163 185.19141 486.8593 185.19141 486.59766 C 185.19141 486.55296 185.20114 486.50512 185.21484 486.45703 C 185.60038 486.46603 185.98565 486.47532 186.37109 486.48242 C 186.25037 486.7023 186.02643 486.92476 185.74219 487.08789 C 185.15313 487.42593 184.99012 487.72154 184.88281 488.64648 C 184.72783 489.98333 185.07064 490.52999 185.60742 489.80273 C 185.80529 489.53451 185.9668 489.05338 185.9668 488.73438 C 185.9668 488.4153 186.08053 488.1543 186.21875 488.1543 C 186.35694 488.1543 186.46875 488.38666 186.46875 488.66992 C 186.46875 488.95312 186.64273 489.51807 186.85352 489.92578 C 187.26453 490.72063 187.72461 490.90943 187.72461 490.2832 C 187.72461 490.07262 188.02685 489.78628 188.39453 489.64648 L 189.0625 489.39258 L 188.29883 488.58594 C 187.44913 487.68718 187.47494 487.23127 188.39648 486.88086 C 188.67241 486.77602 188.83904 486.64271 188.9082 486.4668 C 189.10767 486.4598 189.30658 486.45 189.50586 486.4375 C 189.49226 486.4854 189.48242 486.53553 189.48242 486.5957 C 189.48242 486.95521 189.64442 487.11719 190.00391 487.11719 C 190.36344 487.11719 190.49948 486.9831 190.44141 486.68164 C 190.41871 486.56318 190.37237 486.46448 190.3125 486.38477 C 191.77388 486.27743 192.70481 486.19506 193.22461 486.13086 C 193.19031 486.52046 193.09976 486.89835 192.94727 487.14258 C 192.69135 487.55239 192.73012 487.72402 193.18945 488.21289 C 193.55745 488.6046 193.68999 488.97802 193.5918 489.35352 C 193.5103 489.66499 193.56007 489.91211 193.70508 489.91211 C 194.20861 489.91211 194.75936 489.60419 194.76367 489.32031 C 194.76567 489.16238 195.05457 488.76151 195.4043 488.42969 C 196.09631 487.77312 196.41595 487.90131 196.60547 488.9082 C 196.67057 489.25368 196.79965 489.72339 196.89062 489.95117 C 196.98143 490.17902 196.93459 490.44003 196.78711 490.53125 C 196.63939 490.62245 196.51758 490.80361 196.51758 490.93359 C 196.51758 491.21349 196.86106 491.24431 197.11719 490.98828 C 197.21659 490.88888 197.54803 490.80315 197.85156 490.79883 C 198.69146 490.78753 198.71033 489.80821 197.88672 489.04492 C 197.32115 488.52078 197.24082 488.28588 197.38281 487.5957 C 197.47581 487.14295 197.61368 486.34825 197.68945 485.83008 C 197.72345 485.59798 197.75711 485.42578 197.79883 485.29297 C 198.34137 485.31657 198.88222 485.33927 199.42188 485.29297 C 200.08232 485.23807 200.73201 485.09679 201.38281 484.96484 C 201.32291 485.6225 201.11208 486.35352 200.875 486.35352 C 200.31212 486.35352 200.24341 486.77346 200.51953 488.50195 C 200.71967 489.75514 200.71191 490.26396 200.49023 490.53125 C 200.3273 490.72753 200.27106 490.96465 200.36523 491.05859 C 200.66445 491.35783 203.61321 491.14984 203.82617 490.81445 C 203.9857 490.56441 204.02808 490.56416 204.03125 490.81445 C 204.03325 491.01142 204.39995 491.12695 205.01367 491.12695 C 206.18585 491.12695 207.39527 490.20168 207.95898 488.87109 C 208.23682 488.21516 208.38283 488.08343 208.54492 488.3457 C 208.79964 488.75786 208.60638 489.38678 208.10938 489.75977 C 207.91491 489.90568 207.79412 490.28726 207.8418 490.60742 C 207.9133 491.0872 208.09818 491.19907 208.89062 491.24609 C 209.47362 491.28059 209.99823 491.15608 210.22461 490.92969 C 210.50331 490.65099 210.67183 490.62882 210.88477 490.8418 C 211.04158 490.9986 211.31851 491.12695 211.5 491.12695 C 211.76232 491.12695 211.75004 490.93759 211.44336 490.20312 C 210.97193 489.07486 211.28882 488.7638 212.36133 489.29883 C 212.76701 489.50124 213.25945 489.60507 213.45703 489.5293 C 213.926 489.34935 214.22124 489.83541 213.86133 490.19531 C 213.52437 490.53233 213.48514 491.88086 213.8125 491.88086 C 213.94003 491.88086 214.54473 492.26126 215.1543 492.72656 L 216.26172 493.57227 L 217.37109 493.15039 C 218.65219 492.66333 219.75989 491.72347 219.89844 491.00391 C 220.01599 490.3935 220.86719 490.16007 220.86719 490.73828 C 220.86719 490.95907 221.15439 491.24913 221.50586 491.38281 C 222.06218 491.5943 222.39661 491.45054 224.08203 490.27734 C 225.1468 489.53593 226.35695 488.76263 226.77148 488.55859 C 227.95981 487.9735 231.53715 487.37041 234.6582 487.22852 C 237.39051 487.10439 237.55796 487.06526 238.37305 486.34961 C 239.49002 485.36888 241.36983 484.41439 243.84961 483.57227 C 244.95216 483.19781 245.94218 482.73876 246.04883 482.55078 C 247.11678 480.66932 248.8297 476.43416 249.35547 474.37695 C 250.08025 471.54135 251.35639 468.63188 254.05664 463.66602 C 256.29162 459.55586 256.7101 458.99022 258.63867 457.46875 C 259.86437 456.50149 260.60133 455.59222 262.18945 453.07812 C 263.50032 451.0029 264.36818 449.87418 264.70117 449.8125 C 264.98118 449.7608 266.20934 449.59905 267.43164 449.45312 C 269.04349 449.26069 269.97618 449.0006 270.82422 448.50977 C 272.30371 447.65356 273.31382 447.16363 275.47656 446.25391 C 277.56354 445.37615 280.02218 443.21812 281.26758 441.16797 C 281.7413 440.38817 282.43088 439.46619 282.80078 439.12109 C 283.17068 438.77601 283.75998 437.93259 284.10938 437.24609 C 284.67674 436.13121 284.73037 435.78284 284.61914 433.98047 L 284.49609 431.96289 L 285.58203 431.14648 C 286.17982 430.69741 286.9546 430.33008 287.30469 430.33008 C 287.66912 430.33008 288.07621 430.1137 288.25586 429.82617 C 288.44625 429.52151 288.84072 429.32422 289.25977 429.32422 C 289.67882 429.32422 290.07538 429.12685 290.26562 428.82227 C 290.43809 428.54591 290.83854 428.32031 291.15625 428.32031 C 291.47396 428.32031 292.17705 428.09284 292.71875 427.81641 C 293.26045 427.54004 293.97086 427.31445 294.29688 427.31445 C 294.62291 427.31445 295.14486 427.02278 295.45508 426.66602 C 295.80226 426.26671 296.16869 426.07534 296.41016 426.16797 C 296.65417 426.26167 297.12285 426.00858 297.64844 425.49805 C 298.29628 424.86876 298.49409 424.46682 298.49609 423.77539 C 298.49809 423.05411 298.62683 422.81524 299.13867 422.58203 C 299.93522 422.21917 300.75977 422.2034 300.75977 422.55273 C 300.75977 422.69751 300.47796 423.07648 300.13477 423.39453 C 299.40729 424.06873 299.59783 424.51524 300.33398 423.86133 C 300.81516 423.43397 300.82093 423.43584 300.49609 423.96484 C 300.00116 424.77099 300.54459 425.30618 301.85742 425.30273 C 302.67086 425.30273 303.23008 425.06465 304.45508 424.20898 C 305.31384 423.60916 306.44572 422.7012 306.96875 422.19141 L 307.91797 421.26367 L 307.99805 421.90234 C 308.09065 422.64586 308.23458 422.68236 308.99414 422.15039 C 309.54715 421.76299 310.05469 421.84037 310.05469 422.3125 C 310.05469 422.44684 309.85701 422.62757 309.61523 422.71289 C 309.37342 422.79819 308.92405 423.09307 308.61719 423.36914 C 308.15691 423.78317 307.99274 423.81568 307.67578 423.55273 C 307.36465 423.29438 307.29102 423.29474 307.29102 423.55859 C 307.29102 424.01385 308.05026 424.80273 308.48828 424.80273 C 308.75233 424.80273 308.80921 424.97757 308.69531 425.43164 C 308.51219 426.16139 308.71344 426.2157 309.51172 425.65625 C 310.16915 425.19574 310.41258 424.64877 311.08984 422.0918 C 311.52859 420.43531 311.53776 420.20553 311.19141 419.71094 C 310.60149 418.86875 310.71866 418.46278 311.88477 417.31836 C 312.78904 416.4309 313.12454 416.26172 313.9707 416.26172 C 314.52506 416.26172 315.11349 416.12479 315.2793 415.95898 C 315.80573 415.43257 315.6217 414.38345 314.87695 413.66992 C 314.07103 412.89778 313.52892 412.8192 313.04492 413.40234 C 312.8593 413.62608 311.90096 414.35294 310.91602 415.01758 C 309.76054 415.79732 309.01089 416.49828 308.80469 416.99609 C 308.6084 417.47024 308.30365 417.76953 308.01367 417.76953 C 307.41901 417.76953 307.40778 417.46999 307.98828 417.10742 C 308.29977 416.91295 308.44991 416.46615 308.48633 415.62891 C 308.52513 414.7383 308.67399 414.33519 309.06055 414.06445 C 309.68272 413.62872 309.64278 412.55496 308.99023 412.14648 C 308.63263 411.92251 308.42322 412.02892 307.80859 412.74805 C 307.39721 413.22946 307.05434 413.87852 307.04883 414.18945 C 307.04183 414.6198 306.89248 414.75391 306.42188 414.75391 C 305.84794 414.75391 304.7793 415.59918 304.7793 416.05273 C 304.7793 416.34992 302.74467 417.3286 302.55469 417.12305 C 302.46439 417.02525 302.50438 416.90417 302.64258 416.85352 C 302.78077 416.80272 303.26187 416.53751 303.71094 416.26367 C 304.40706 415.83935 304.52734 415.62107 304.52734 414.78711 C 304.52734 413.93426 304.62512 413.76987 305.29102 413.49414 C 305.71104 413.32009 306.19216 412.98779 306.35938 412.75586 C 306.52661 412.52399 306.86807 412.25786 307.11914 412.16406 C 307.67377 411.95688 307.62784 410.5633 307.07031 410.68164 C 306.5985 410.78171 305.7832 410.00313 305.7832 409.45312 C 305.7832 408.80723 305.30924 408.60867 305.08984 409.16211 C 304.98727 409.42045 304.43103 410.05464 303.85352 410.57227 C 302.92076 411.40842 302.74641 411.47898 302.28906 411.19336 C 301.89426 410.94676 301.60062 410.93634 301.0293 411.15234 C 300.3544 411.40708 300.27656 411.38393 300.20703 410.89648 C 300.22063 410.86358 300.23325 410.82937 300.24805 410.79688 C 300.5132 410.21357 300.95702 409.46891 301.45508 408.70703 C 301.47868 408.75173 301.5042 408.79316 301.5332 408.82812 C 301.70339 409.03303 301.94191 409.1382 302.06445 409.0625 C 302.37429 408.87098 302.33841 408.22443 302.04102 407.83789 C 302.59409 407.04506 303.16211 406.29255 303.60938 405.75586 C 303.72555 405.61631 303.86018 405.49364 303.99805 405.37305 C 304.24615 405.50648 304.54267 405.3415 304.68359 404.87109 C 304.77689 404.56016 305.08954 404.11933 305.37891 403.89062 C 305.83234 403.53213 305.85761 403.41818 305.5625 403.0625 C 305.32203 402.77273 305.02304 402.69371 304.73047 402.75977 L 304.73047 401.83594 L 304.73047 401.56641 C 304.98015 401.17917 305.15625 400.78552 305.15625 400.58594 C 305.15625 400.2917 305.52093 399.92656 305.95508 399.66797 C 306.26369 399.8849 306.60663 400.06324 306.9707 400.1543 C 307.10753 400.1888 307.2473 400.19461 307.38867 400.19141 C 307.37507 400.24311 307.36457 400.29861 307.35547 400.36328 C 307.31027 400.68181 307.40839 401.10503 307.57422 401.30469 C 307.82039 401.60128 307.78085 401.66797 307.35742 401.66797 C 307.07231 401.66797 306.76898 401.55619 306.68359 401.41797 C 306.35679 400.88913 306.05469 401.20251 306.05469 402.07227 C 306.05469 402.90222 306.10549 402.96583 306.6543 402.82812 C 307.11413 402.71263 307.28445 402.79433 307.38477 403.17773 C 307.47167 403.50973 307.72716 403.67773 308.14648 403.67773 C 308.64405 403.67773 308.81298 403.51758 308.94336 402.92383 C 309.06159 402.38598 309.25631 402.16992 309.62305 402.16992 C 310.06843 402.16992 310.11555 402.06199 309.97461 401.35742 C 309.85866 400.77803 309.67521 400.39441 309.37109 400.1543 L 310.52734 400.1543 C 310.52534 400.1702 310.52188 400.18457 310.51758 400.20117 C 310.45038 400.659 310.51934 401.23264 310.67188 401.47656 C 311.03541 402.0587 311.05985 402.04754 311.36719 401.16602 C 311.55826 400.61774 311.79056 400.41211 312.21875 400.41211 C 312.5693 400.41211 312.82375 400.31028 312.94531 400.1543 L 315.37109 400.1543 C 315.74451 400.1543 316.12601 400.2271 316.49219 400.1543 C 317.07115 400.03857 317.58736 399.67728 318.17188 399.59375 C 318.42861 399.55695 318.68813 399.56844 318.94922 399.58594 C 318.64899 399.76861 318.28099 399.91016 318.07227 399.91016 C 317.47451 399.91016 317.28586 400.30878 317.60352 400.90234 C 317.83766 401.33972 317.95376 401.36352 318.5332 401.09961 C 319.13245 400.82661 319.24604 400.86435 319.70898 401.48438 C 320.25181 402.21148 320.66592 402.00597 320.43555 401.125 C 320.32618 400.70672 320.40395 400.6605 320.9707 400.80273 C 321.52777 400.94252 321.63086 400.88614 321.63086 400.43945 C 321.63086 399.88704 321.98982 399.72652 322.25781 400.16016 C 322.34311 400.29835 322.85706 400.41211 323.39844 400.41211 C 324.46655 400.41211 324.95229 399.937 325.29102 398.56055 C 325.37682 398.21187 325.67042 397.58902 325.97656 397.08008 C 326.15923 396.98908 326.35515 396.89416 326.57422 396.79297 C 328.02266 396.12445 329.60624 395.78183 331.05469 395.11328 C 331.10389 395.09058 331.15216 395.06657 331.20117 395.04297 C 331.18527 395.08607 331.17578 395.12734 331.17578 395.16797 C 331.17578 395.56438 331.7947 395.3991 332.75 394.75 C 333.70393 394.10174 333.90339 393.70239 333.34766 393.81445 C 335.00322 392.74227 336.57387 391.51378 338.33594 390.63281 C 339.76281 389.91935 341.34581 389.56469 342.81836 388.95117 C 344.42331 388.28237 346.44104 387.03685 347.85938 386.15039 C 347.93088 386.10569 348.06465 386.02088 348.16992 385.95508 C 348.26432 386.05991 348.36959 386.13678 348.4707 386.16016 C 348.69944 386.21256 349.10635 386.14683 349.37305 386.01562 C 349.82178 385.79325 349.82605 385.75242 349.43555 385.4668 C 349.36295 385.4135 349.29428 385.33818 349.23438 385.25195 C 349.46474 385.08835 349.6888 384.91762 349.89648 384.74414 C 349.98178 384.73714 350.06424 384.66482 350.13086 384.54297 C 350.37096 384.32195 350.56263 384.1052 350.66016 383.91016 C 350.82717 383.57612 350.66016 383.16252 350.66016 382.78906 L 350.66016 381.66992 L 350.66016 380.64258 C 350.80675 380.65848 350.96788 380.65245 351.14844 380.62305 C 352.11988 380.45921 352.53125 380.12647 352.53125 379.50195 C 352.53125 379.11212 352.40878 379.03211 351.98633 379.14258 C 351.68763 379.22088 351.23064 379.17032 350.9707 379.03125 C 350.85225 378.96775 350.75367 378.93405 350.66016 378.92773 L 350.66016 378.44141 C 350.87142 378.52581 351.08808 378.58536 351.28906 378.60352 C 352.3699 378.70042 353.04742 378.58348 352.88867 378.32617 C 352.80267 378.18707 352.97386 377.73169 353.26953 377.31641 L 353.80859 376.5625 L 354.5293 377.13086 C 355.5651 377.94797 355.50543 378.42522 354.39453 378.2168 C 353.17059 377.9872 353.00739 378.5543 353.91992 379.87109 L 354.63281 380.89844 L 355.28711 380.11523 C 355.64694 379.68417 356.07357 379.33203 356.23438 379.33203 C 356.55734 379.33203 357.28711 380.8984 357.28711 381.5918 C 357.28711 382.25508 358.5667 384.40926 359.0332 384.53125 C 359.42285 384.63337 360.39089 387.96582 361.05469 391.48633 C 361.18177 392.16022 361.46102 392.90354 361.67383 393.13867 C 361.88668 393.37383 362.06055 393.67864 362.06055 393.81641 C 362.06055 393.95415 362.34206 394.33178 362.6875 394.65625 C 363.52417 395.44225 363.52417 396.02057 362.6875 395.81055 C 361.84833 395.59997 361.89481 395.87595 362.92578 397.22656 C 363.91546 398.52252 364.20908 398.67916 365.66016 398.67383 C 367.17861 398.66683 367.41183 398.42561 367.53516 396.7207 C 367.63256 395.37506 367.58361 395.18625 367.05273 394.81445 C 366.54576 394.45934 366.50651 394.33172 366.77344 393.9043 C 367.32063 393.02825 367.16098 391.26826 366.45703 390.43164 C 366.11159 390.02112 365.82813 389.49897 365.82812 389.27148 C 365.82812 388.47475 364.77444 387.37109 364.01367 387.37109 C 363.38433 387.37109 363.32976 387.31412 363.55859 386.88672 C 363.96073 386.13526 363.86681 385.40529 363.33203 385.11914 C 363.06484 384.97618 362.81129 384.54799 362.76758 384.16797 C 362.70428 383.61828 362.54063 383.46167 361.9707 383.39648 C 361.27129 383.31638 361.25984 383.28619 361.42578 382.17969 C 361.54923 381.35584 361.49539 380.93214 361.23242 380.62891 C 361.03341 380.39938 360.79623 379.89915 360.70508 379.51562 C 360.61388 379.13207 360.30283 378.58025 360.01367 378.29102 C 359.72453 378.00188 359.41737 377.51912 359.33008 377.2168 C 359.16193 376.63548 355.85973 373.55293 353.75195 372.00977 C 352.94421 371.41848 352.32364 371.13904 352.00391 371.22266 C 351.63775 371.31846 351.50781 371.22293 351.50781 370.87109 C 351.50781 370.18922 351.02069 369.78516 350.19531 369.78516 C 349.67163 369.78516 349.42425 369.62235 349.25 369.16406 C 349.13517 368.8623 348.86283 368.5981 348.54102 368.45312 C 348.49972 368.37802 348.45809 368.3028 348.41992 368.22656 C 348.23317 367.85319 348.20683 367.33897 347.85938 367.10742 C 347.54868 366.90024 347.09252 367.22542 346.73828 367.10742 C 346.48776 367.02392 346.43018 366.63037 346.17969 366.54688 C 346.12339 366.52868 346.0644 366.52168 346.00586 366.51758 C 345.8368 366.30405 345.73047 366.11977 345.73047 366.00781 C 345.73047 365.62473 344.04371 364.00781 343.64453 364.00781 C 343.12094 364.00781 342.96014 363.73451 343.20898 363.26953 C 343.52957 362.67058 343.22075 362.37892 342.23438 362.3457 C 341.76254 362.3298 341.2535 362.15813 341.10352 361.96484 C 340.95353 361.77151 340.5135 361.41151 340.12695 361.16406 C 339.27536 360.61916 338.53233 359.4566 338.16797 358.10352 C 338.01911 357.55086 337.70138 356.87206 337.46289 356.5957 C 336.86432 355.90223 336.11744 354.7201 335.75391 353.89062 C 335.58644 353.50847 335.27555 353.13054 335.0625 353.04883 C 334.84942 352.96693 334.67578 352.69972 334.67578 352.45508 C 334.67578 352.21037 334.50617 351.86928 334.29883 351.69727 C 334.09166 351.52527 333.92188 351.28974 333.92188 351.17383 C 333.92188 351.05787 333.30884 349.94253 332.56055 348.69531 C 331.81224 347.44823 330.83193 345.62706 330.38086 344.64844 C 329.92977 343.66976 329.37743 342.73542 329.1543 342.57227 C 329.02042 342.47447 328.66654 342.09476 328.25391 341.62891 L 328.25391 341.33984 L 328.25391 337.05078 C 328.3567 337.01468 328.44244 337.0057 328.50391 337.0293 C 329.0327 337.23216 329.29326 336.00532 328.90039 335.16016 C 328.52216 334.3464 328.08486 333.08895 327.6543 331.65039 C 327.6656 331.02988 327.69531 330.38488 327.69531 330.13672 C 327.69531 329.94996 327.82738 329.7102 327.69531 329.57812 C 327.56325 329.44606 327.26679 329.71019 327.13477 329.57812 C 327.0027 329.44606 327.21827 329.18457 327.13477 329.01758 C 327.0027 328.75335 326.89671 328.60679 326.80859 328.5293 C 326.25632 326.30699 325.80079 324.06412 325.64062 322.51953 C 325.50266 321.18871 325.27344 319.79298 325.13086 319.41797 C 324.98836 319.04287 324.7995 317.22549 324.71094 315.37891 C 324.55958 312.2211 324.52037 312.02439 324.04883 312.07422 C 323.51176 312.13142 323.51124 312.12713 323.26758 307.98242 C 323.15911 306.13766 322.91535 302.53252 322.64844 298.8125 C 322.46328 296.23154 322.60366 295.38997 323.42383 294.16406 C 323.98435 293.32619 324.16402 292.19894 323.83594 291.58594 C 323.81554 291.54604 323.80126 291.51379 323.78516 291.48047 C 323.87366 291.39627 324.05864 291.28767 324.28906 291.16797 C 324.60804 291.17497 325.07785 291.21077 325.79492 291.26953 C 327.01813 291.37029 328.17236 291.53757 328.35938 291.64062 C 328.54636 291.74365 329.12366 291.67923 329.64453 291.5 C 330.16534 291.3205 332.38818 290.88363 334.58203 290.52734 C 339.21273 289.77551 340.82141 289.4266 341.75781 288.9707 C 342.12903 288.78984 342.58434 288.70036 342.76953 288.77148 C 342.9547 288.84278 343.49262 288.61606 343.96484 288.26758 C 344.43706 287.91921 344.92586 287.63281 345.05273 287.63281 C 345.18457 287.63281 345.71237 287.40328 346.45898 287.04102 C 346.5949 287.03402 346.70334 287.02421 346.73828 287.00781 C 346.83248 286.96081 346.90299 286.87747 346.96875 286.79102 C 347.39504 286.57771 347.86349 286.33762 348.38867 286.0625 C 348.58654 286.0069 348.78627 285.95139 348.98047 285.88672 C 349.05807 285.80912 349.12624 285.72114 349.19727 285.63477 C 349.38992 285.5322 349.56928 285.43782 349.76953 285.33008 C 349.89434 285.36138 350.01983 285.40608 350.09961 285.33008 C 350.17271 285.25728 350.22269 285.16419 350.26172 285.06445 C 350.77427 284.78646 351.29953 284.49821 351.8418 284.19727 C 352.21462 284.28467 352.58863 284.36527 352.90039 284.20898 C 353.06741 284.12548 352.79692 283.80379 352.90039 283.64844 C 352.91629 283.62394 352.93633 283.60223 352.95312 283.57812 C 353.48197 283.2801 354.014 282.97677 354.54297 282.67188 C 354.30271 283.2335 354.49165 282.96126 354.56055 282.66016 C 354.56955 282.65516 354.58074 282.64913 354.58984 282.64453 L 356.60742 281.48047 L 357.08203 279.4707 C 357.34276 278.36538 357.5922 276.74325 357.63672 275.86523 C 357.68712 274.87135 357.84556 274.18914 358.05664 274.05859 C 358.3365 273.88568 358.32691 273.7698 358.00195 273.39453 C 357.78524 273.1443 357.47354 272.31661 357.30859 271.55664 C 356.12425 266.10052 355.85286 265.19741 355.22461 264.64062 C 354.90808 264.3601 354.20723 263.58654 353.66797 262.91992 C 352.67336 261.69013 348.52257 258.44578 347.54883 258.13672 C 347.2562 258.04392 346.65673 257.5577 346.2168 257.05664 C 344.77625 255.41604 342.90575 253.9707 342.2207 253.9707 C 341.86321 253.9707 341.34677 253.81668 341.07422 253.62695 C 340.80164 253.43725 339.67572 252.92372 338.57031 252.48633 C 337.46489 252.04895 336.27708 251.496 335.93164 251.25781 C 335.36838 250.86941 334.3607 250.39577 331.33789 249.10156 C 330.81502 248.87759 330.10487 248.69531 329.75977 248.69531 C 329.41469 248.69531 329.07164 248.53756 328.99805 248.3457 C 328.92455 248.15395 328.51125 247.92803 328.08008 247.8418 C 327.64891 247.7556 327.09534 247.50365 326.84961 247.28125 C 326.60388 247.05887 326.22236 246.94472 326.00195 247.0293 C 325.78161 247.1139 325.16029 246.95873 324.62109 246.68359 C 324.08188 246.40852 323.4926 246.18359 323.31055 246.18359 C 322.80581 246.18359 322.11328 245.24771 322.11328 244.56445 C 322.11328 244.22959 322.2279 243.65511 322.36719 243.28906 C 322.67607 242.47658 322.4632 242.02155 321.9668 242.43359 C 321.67977 242.67178 321.61133 242.62079 321.61133 242.16992 C 321.61133 241.82446 321.80142 241.56396 322.11328 241.48242 C 322.73334 241.32018 322.80489 240.11994 322.22266 239.63672 C 321.97275 239.42954 321.8873 239.11846 321.99023 238.78906 C 322.49268 237.18093 322.90305 233.76755 323.01953 230.23047 C 323.12232 227.11004 323.24329 226.06961 323.56055 225.58203 C 324.35343 224.36384 325.01881 216.68538 324.39648 215.93555 C 324.00402 215.46274 323.78207 212.10107 324.12891 211.88672 C 324.26461 211.80272 324.37305 211.14696 324.37305 210.42969 C 324.3723 209.71242 324.50022 207.99699 324.65625 206.61523 C 324.88986 204.54659 324.86681 203.43692 324.52734 200.33398 C 323.97193 195.25786 323.42936 191.68824 323.08203 190.83398 C 322.71499 189.93132 320.31726 187.62018 319.30078 187.18945 C 318.49565 186.84825 316.90416 185.76086 316.46094 185.24805 C 316.06247 184.78724 313.45821 183.62695 312.82227 183.62695 C 312.50538 183.62695 312.1202 183.47668 311.9668 183.29297 C 311.8134 183.10917 310.95284 182.63876 310.05469 182.24805 C 309.15655 181.85736 308.0266 181.29355 307.54297 180.99609 C 307.05936 180.69864 305.70183 180.08356 304.52734 179.62891 C 303.35283 179.17425 301.88352 178.57759 301.26172 178.30273 C 299.51442 177.53036 299.27936 177.44516 296.86523 176.71289 C 295.62165 176.33569 294.15231 175.7735 293.59961 175.46289 C 293.16224 175.21707 292.11527 174.88812 291.04688 174.64453 C 290.94907 174.55783 290.84247 174.48065 290.72461 174.42188 C 290.4602 174.28958 290.14637 174.36514 289.8418 174.40234 C 288.56964 174.17086 286.99326 173.86453 286.15234 173.68359 C 285.23443 173.48617 284.1604 173.32486 283.76562 173.32422 C 283.53305 173.32397 283.00394 173.27047 282.33984 173.18945 C 282.37594 173.01427 282.45996 172.80858 282.32227 172.74023 C 282.19043 172.67443 280.44998 172.74023 280.08203 172.74023 L 279.14062 172.74023 C 277.51581 172.49091 275.96345 172.22517 275.41016 172.07617 C 274.85486 171.92663 274.09935 171.85929 273.73242 171.92578 C 273.36554 171.99228 272.14579 171.83537 271.02148 171.57812 C 270.05063 171.3562 268.40468 171.17336 266.53125 171.04102 C 266.34336 171.00582 266.152 170.99751 265.95898 171.00391 C 264.17385 170.89022 262.23302 170.82054 260.48633 170.81055 L 260.48828 170.80664 z M 253.5918 173.72266 C 253.6145 173.72341 253.62748 173.72552 253.64648 173.72852 C 253.4949 173.76662 253.34554 173.808 253.19727 173.85742 C 252.80119 173.98948 252.49043 174.36619 252.07617 174.41797 C 251.09438 174.54074 250.096 174.36733 249.10742 174.39453 C 249.87151 174.26496 250.74636 174.11369 251.98633 173.89258 C 252.639 173.77617 253.26442 173.71244 253.5918 173.72266 z M 246.74219 174.76758 C 244.90583 175.21043 243.09339 175.83876 241.1543 175.57617 C 242.28513 175.3851 243.78752 175.16829 246.00781 174.87109 C 246.26262 174.83709 246.50077 174.8019 246.74219 174.76758 z M 324.73828 213.08008 C 324.70018 213.07508 324.67567 213.16671 324.66797 213.34961 C 324.65667 213.61445 324.71537 213.76121 324.79883 213.67773 C 324.88233 213.59423 324.89201 213.37862 324.82031 213.19727 C 324.79011 213.12217 324.76293 213.08371 324.74023 213.08008 L 324.73828 213.08008 z M 144.54297 269.57812 C 144.77881 269.57736 144.97313 269.59294 145.08984 269.64062 C 145.58016 269.83668 145.70316 270.61468 146.21094 270.75977 C 147.10858 271.01624 148.09628 270.57665 149.01172 270.75977 C 149.99768 270.95697 150.85862 271.5629 151.8125 271.88086 C 153.76409 272.53139 155.34372 272.58828 157.41211 273.00195 C 158.167 273.15286 158.91409 273.34906 159.6543 273.56055 C 159.99058 273.65655 160.31411 273.80252 160.64258 273.92578 C 160.27631 273.94848 159.89748 273.96757 159.52148 273.98047 C 157.93395 274.03537 155.97062 274.1536 155.1582 274.24219 C 153.71261 274.39967 152.85858 274.19057 149.66016 272.89062 C 149.16071 272.68752 144.78912 270.51868 143.61719 269.89258 C 143.46788 269.81298 143.34869 269.73021 143.25391 269.64648 C 143.69354 269.61998 144.16558 269.57953 144.54297 269.57812 z M 334.58008 286.97852 C 334.47661 287.20544 334.23177 287.31649 333.61914 287.41992 C 333.88309 287.27764 334.1323 287.09849 334.41602 287.00391 C 334.45052 286.99261 334.51385 286.98622 334.58008 286.97852 z M 331.2793 287.50781 C 331.3782 287.50781 331.49045 287.52315 331.61719 287.56445 C 331.88125 287.49865 332.15971 287.53863 332.4375 287.57812 C 331.90281 287.63853 331.30492 287.69571 330.78711 287.73633 C 330.916 287.60517 331.07037 287.51247 331.2793 287.50781 z M 324.39648 299.66602 C 324.25829 299.66602 324.14453 299.77977 324.14453 299.91797 C 324.14453 300.05616 324.25826 300.16992 324.39648 300.16992 C 324.53467 300.16992 324.64844 300.05618 324.64844 299.91797 C 324.64844 299.77977 324.5347 299.66602 324.39648 299.66602 z M 329.94727 353.61328 C 329.98787 353.84687 330.07314 354.07706 330.20312 354.29883 C 330.09307 354.14952 329.97604 354.00502 329.85938 353.85938 C 329.89227 353.78496 329.92477 353.70502 329.94727 353.61328 z M 330.38086 354.5625 C 330.44216 354.6419 330.50724 354.71904 330.58008 354.79492 L 331.24219 355.48633 L 331.16406 355.65234 C 331.03018 355.62424 330.90345 355.58482 330.78516 355.53125 C 330.69896 355.27737 330.60512 355.02643 330.49609 354.78125 C 330.46249 354.70525 330.42308 354.63375 330.38086 354.5625 z M 189.10352 354.95508 C 189.16412 355.09713 189.23338 355.23342 189.3418 355.3418 C 189.36 355.3599 189.38039 355.37172 189.40039 355.38672 C 189.35179 355.46772 189.28618 355.51758 189.21289 355.51758 C 189.06539 355.51758 189.00097 355.31992 189.06836 355.07812 C 189.08426 355.02483 189.08852 355.0045 189.10352 354.95508 z M 332.25 355.36133 C 332.49966 355.36833 332.93164 355.85052 332.93164 356.2207 C 332.93164 356.2513 332.93997 356.28947 332.95117 356.33008 C 332.69929 356.17555 332.43805 356.0335 332.17578 355.90234 C 332.11338 355.87104 332.04786 355.84602 331.98047 355.82422 C 332.03927 355.63384 332.089 355.48427 332.11328 355.43945 C 332.14388 355.38295 332.19238 355.35903 332.25 355.36133 z M 189.03125 362.81836 C 189.06735 362.80936 189.13145 362.90985 189.25195 363.11719 C 189.39559 363.36426 189.47493 363.68264 189.42773 363.82422 C 189.2934 364.22691 188.97588 363.77528 188.98438 363.19336 C 188.98638 362.95178 188.99575 362.8283 189.03125 362.81836 z M 180.82422 364.29688 C 180.91592 364.29688 180.97905 364.30618 181.02148 364.33008 C 180.85992 364.36228 180.70078 364.38979 180.55664 364.36719 C 180.62604 364.32339 180.7204 364.29687 180.82422 364.29688 z M 350.66016 373.88672 C 350.75776 374.117 350.92173 374.25817 351.15039 374.29883 C 351.96826 374.44429 352.1108 374.75029 351.74609 375.57422 C 351.39589 376.36539 350.77344 376.63301 350.77344 375.99219 C 350.77344 375.85445 350.73459 375.74798 350.66016 375.66992 L 350.66016 374.38672 L 350.66016 373.88672 z M 203.02734 375.33398 C 203.13649 375.38478 203.24375 375.43937 203.34375 375.50586 C 203.50487 375.61341 203.63249 375.76371 203.76172 375.91016 C 203.59584 376.84301 203.92493 377.24988 204.56055 376.94336 C 204.57875 377.07384 204.56514 377.1875 204.46484 377.1875 C 203.85111 377.1875 203.29043 376.60205 202.82227 376.09766 C 202.88987 375.84317 202.95632 375.58754 203.02734 375.33398 z M 364.23633 392.18359 C 364.44351 392.18359 364.54446 392.29727 364.45898 392.43555 C 364.37368 392.57375 364.135 392.6875 363.92773 392.6875 C 363.72055 392.6875 363.6196 392.57377 363.70508 392.43555 C 363.79038 392.29736 364.02906 392.18359 364.23633 392.18359 z M 330.1875 395.88867 C 330.04114 395.88867 329.92188 396.00236 329.92188 396.14062 C 329.92188 396.27882 329.97018 396.39062 330.03125 396.39062 C 330.09225 396.39062 330.2135 396.27882 330.29883 396.14062 C 330.38413 396.00243 330.33389 395.88867 330.1875 395.88867 z M 328.47656 397.14453 C 328.33837 397.14453 328.08414 397.3143 327.91211 397.52148 C 327.73761 397.73161 327.71136 397.89844 327.85156 397.89844 C 327.98976 397.89844 328.24204 397.72879 328.41406 397.52148 C 328.58857 397.31112 328.61662 397.14453 328.47656 397.14453 z M 324.4375 397.97852 C 324.00266 398.88175 322.73323 399.53167 322.28906 399.1543 C 323.51971 398.79708 323.69132 398.50643 324.4375 397.97852 z M 304.76758 398.47656 C 305.01789 398.49466 305.18641 398.69769 305.34375 398.93555 C 305.25615 398.97005 305.16902 399.00466 305.0918 399.04297 C 304.94703 399.11517 304.83086 399.1669 304.73047 399.20117 L 304.73047 399.0332 C 304.73047 398.84962 304.74858 398.6632 304.76758 398.47656 z M 316.05469 400.51562 C 315.94055 400.49293 315.85352 400.6493 315.85352 400.89844 C 315.85352 401.18288 315.96531 401.41602 316.10352 401.41602 C 316.24172 401.41602 316.35547 401.25197 316.35547 401.05273 C 316.35547 400.85372 316.24174 400.62253 316.10352 400.53711 C 316.08542 400.52581 316.07119 400.51784 316.05469 400.51562 z M 308.9082 400.91992 C 309.22532 400.89332 309.57227 401.0253 309.57227 401.27539 C 309.57227 401.4744 309.4853 401.69198 309.37891 401.75781 C 309.08305 401.9407 308.28543 401.41666 308.45117 401.14844 C 308.53787 401.00821 308.7179 400.93606 308.9082 400.91992 z M 314.93359 401.07227 C 314.80425 401.07227 314.6476 401.12982 314.48047 401.25195 C 314.19698 401.45913 314.07465 401.75566 314.16992 402.00391 C 314.35304 402.48103 314.99106 402.31368 315.21484 401.73047 C 315.37096 401.32379 315.21674 401.06693 314.93359 401.07227 z M 322.42969 401.70312 C 322.40379 401.70312 322.37465 401.71126 322.34375 401.72266 C 322.18287 401.77666 321.88696 402.06973 321.68555 402.37305 C 321.28279 402.97963 321.41097 403.05977 322.15039 402.66406 C 322.63513 402.40463 322.81614 401.65941 322.42969 401.70312 z M 316.69141 401.83594 C 316.53483 401.84954 316.33805 401.92321 316.06836 402.0625 C 315.30269 402.45845 315.16572 402.88832 315.65234 403.375 C 315.86179 403.58444 315.86901 403.67578 315.67383 403.67578 C 315.51952 403.67578 315.35467 403.58167 315.30859 403.46484 C 315.26249 403.34798 314.93088 403.18003 314.57031 403.0918 C 314.09806 402.9763 313.79308 403.06627 313.47852 403.41406 C 313.02101 403.91964 313.13592 404.42969 313.70703 404.42969 C 313.89129 404.42969 314.11459 404.61887 314.20312 404.84961 C 314.36606 405.27408 313.98072 405.6746 313.4043 405.68164 C 313.23161 405.68164 313.08984 405.79812 313.08984 405.93359 C 313.08984 406.06906 312.80638 406.25113 312.46094 406.33789 C 311.85908 406.48879 311.64759 406.923 312.00195 407.27734 C 312.70925 407.98349 315.16134 406.32417 315.43555 404.95312 C 315.55059 404.37791 315.688 404.24813 316.07617 404.34961 C 316.44056 404.44491 316.67275 404.27801 316.96484 403.71289 C 317.43529 402.80308 317.4623 402.37045 317.07227 401.98047 C 316.96358 401.87177 316.84808 401.82323 316.69141 401.83594 z M 312.7168 402.05078 C 312.60175 402.05103 312.47344 402.1312 312.3457 402.28516 C 312.16893 402.49824 311.82469 402.67187 311.58203 402.67188 C 311.18798 402.67188 310.91747 403.11378 310.50391 404.4375 C 310.43721 404.65125 309.80439 404.97061 309.08008 405.15625 C 308.36307 405.34006 307.71457 405.65378 307.63867 405.85156 C 307.43648 406.37852 307.74209 406.56173 308.19531 406.18555 C 308.85436 405.6386 309.2389 406.26971 308.72461 407.05469 C 308.49361 407.40721 308.42111 407.69727 308.5625 407.69727 C 308.70387 407.69727 308.81836 407.58352 308.81836 407.44531 C 308.81836 407.30711 308.98797 407.19336 309.19531 407.19336 C 309.40248 407.19336 309.57227 406.99018 309.57227 406.74023 C 309.57227 406.49028 309.72218 406.08105 309.9043 405.83203 C 310.20885 405.41554 310.26785 405.41267 310.64062 405.78516 C 311.0134 406.15792 311.08723 406.13195 311.55664 405.47266 C 311.94015 404.93402 312.02982 404.52915 311.91797 403.83984 C 311.78681 403.03189 311.8305 402.92185 312.28906 402.92188 C 312.90086 402.92188 313.24883 402.4793 312.90625 402.13672 C 312.84905 402.07952 312.78578 402.05048 312.7168 402.05078 z M 319.02148 402.41992 C 318.62875 402.41992 318.28904 403.09652 318.50586 403.44727 C 318.80258 403.92743 319.37109 403.66607 319.37109 403.04883 C 319.37109 402.67945 319.22725 402.41992 319.02148 402.41992 z M 318.2207 403.45312 C 318.1864 403.45312 318.14482 403.45446 318.09766 403.47266 C 317.91635 403.53306 317.71866 403.73071 317.6582 403.91211 C 317.5953 404.10046 317.69052 404.19362 317.87891 404.13086 C 318.06022 404.07046 318.25793 403.87281 318.31836 403.69141 C 318.36556 403.55004 318.3228 403.46199 318.2207 403.45312 z M 317.52734 405.80273 C 317.42477 405.78003 317.22497 405.86287 316.9668 406.05859 C 316.54176 406.38018 316.53338 406.42459 316.90625 406.43164 C 317.13989 406.43864 317.40503 406.31915 317.49609 406.17188 C 317.63293 405.9504 317.62987 405.82474 317.52734 405.80273 z M 306.51758 406.67578 C 306.29565 406.68278 306.11459 406.99609 306.13086 407.57031 C 306.14896 408.2195 306.26772 408.44922 306.58203 408.44922 C 307.125 408.44922 307.30333 407.97722 307.03516 407.25586 C 306.88675 406.8564 306.69022 406.67226 306.51758 406.67578 z M 316.36914 406.74609 L 316.36914 406.74805 C 315.71661 406.72285 312.58789 408.76405 312.58789 409.24219 C 312.58789 409.62237 312.96209 409.46735 313.2832 408.95312 C 313.45589 408.67676 313.72728 408.45117 313.88672 408.45117 C 314.32962 408.45117 316.71928 406.85436 316.42383 406.75586 C 316.40793 406.74886 316.39024 406.74809 316.36914 406.74609 z M 311.46875 407.54883 C 311.11437 407.56243 310.57812 408.04893 310.57812 408.45898 C 310.57812 409.0545 310.90519 409.09279 311.43945 408.55859 C 311.86288 408.13513 311.92863 407.87388 311.67578 407.62109 C 311.62198 407.56779 311.55066 407.54593 311.46875 407.54883 z M 303.1875 408.19922 C 302.96875 408.19922 302.79102 408.37893 302.79102 408.59766 C 302.79102 409.04131 303.33107 408.96387 303.48633 408.49805 C 303.54103 408.33399 303.40623 408.19922 303.1875 408.19922 z M 309.33984 408.24609 C 308.97067 408.23249 308.58454 408.83631 308.73047 409.39453 C 308.81147 409.70459 309.02306 409.95703 309.19922 409.95703 C 309.62324 409.95703 309.92721 408.70267 309.58594 408.36133 C 309.50924 408.28463 309.42505 408.24904 309.33984 408.24609 z M 307.52734 408.99219 C 307.40458 408.99219 307.3125 409.12864 307.3125 409.33008 C 307.3125 409.56044 307.43355 409.70771 307.58203 409.6582 C 307.73066 409.609 307.85352 409.46144 307.85352 409.33008 C 307.85352 409.19892 307.73054 409.04951 307.58203 409 C 307.56383 408.993 307.5468 408.99219 307.5293 408.99219 L 307.52734 408.99219 z M 302.78711 409.26758 C 302.71451 409.26058 302.62327 409.26866 302.50781 409.28906 C 301.8315 409.39231 301.5825 409.92689 302.06836 410.23438 C 302.56752 410.55023 302.90411 410.37332 302.99609 409.74805 C 303.04509 409.41541 303.00465 409.28301 302.78711 409.26758 z M 310.96484 410.28711 C 310.66299 410.24561 309.32227 410.99586 309.32227 411.23242 C 309.32227 411.36063 309.39029 411.46484 309.47266 411.46484 C 309.7213 411.46484 311.1166 410.41345 311.00977 410.30664 C 311.00077 410.29764 310.98484 410.28941 310.96484 410.28711 z M 304.23633 412.01562 C 304.60244 412.01562 304.60991 412.05213 304.28516 412.26172 C 303.79315 412.57971 303.45974 412.57971 303.65625 412.26172 C 303.74155 412.12353 304.00267 412.01369 304.23633 412.01562 z M 301.6875 412.12109 C 301.7109 412.12809 301.73034 412.13554 301.74414 412.14844 C 301.80954 412.21424 301.53829 412.60447 301.14258 413.01758 C 300.34383 413.8513 300.01565 413.96005 300.01562 413.38867 C 300.01562 413.03025 301.33866 412.05785 301.6875 412.12109 z M 302.91406 414.37695 L 302.91406 414.37891 C 302.99666 414.35851 303.02998 414.41555 303.0293 414.54688 C 303.02853 414.74113 302.68149 415.09871 302.25781 415.33984 C 301.59178 415.71893 301.49833 415.72521 301.56836 415.38867 C 301.61286 415.17491 301.72343 415.03433 301.8125 415.07617 C 301.9017 415.11767 302.21305 414.9371 302.50391 414.67383 C 302.70088 414.49547 302.83135 414.39669 302.91406 414.37695 z M 305.88477 417.88477 C 305.93647 417.87777 305.97728 417.8846 306 417.9082 C 306.0921 418.0003 305.88635 418.29088 305.54297 418.55469 C 304.88193 419.0626 304.53583 419.16803 304.54883 418.85742 C 304.56013 418.58716 305.52265 417.9248 305.88477 417.88477 z M 299.7793 418.57031 C 299.94518 418.57031 300.01758 418.7301 300.01758 419.04688 C 300.01758 419.44806 299.85292 419.54776 299.20117 419.54102 L 298.38477 419.5332 L 298.97656 419.03906 C 299.35313 418.7253 299.61347 418.56897 299.7793 418.57031 z M 294.50977 419.16992 C 294.64501 419.15402 294.74023 419.20591 294.74023 419.30664 C 294.74023 419.44052 294.57062 419.54883 294.36328 419.54883 C 294.15611 419.54883 293.98633 419.50372 293.98633 419.44922 C 293.98633 419.39522 294.15595 419.28654 294.36328 419.20703 C 294.41498 419.18663 294.46484 419.17542 294.50977 419.16992 z M 306.31055 420.05273 C 306.45691 420.05273 306.50719 420.16445 306.42188 420.30273 C 306.33657 420.44093 306.21706 420.55469 306.15625 420.55469 C 306.09525 420.55469 306.04492 420.44093 306.04492 420.30273 C 306.04492 420.16454 306.16419 420.05273 306.31055 420.05273 z M 304.10352 420.84375 C 304.11712 420.84366 304.12325 420.84256 304.12695 420.85156 C 304.14965 420.89626 304.30779 421.18519 304.48047 421.49414 C 304.89496 422.23581 304.9341 422.15626 303.79492 422.91016 C 303.24516 423.27398 302.73804 423.57031 302.66602 423.57031 C 302.59382 423.57031 302.53516 423.12149 302.53516 422.57227 C 302.53516 421.71027 302.63973 421.51874 303.31055 421.17188 C 303.68451 420.97854 304.01282 420.84445 304.10352 420.84375 z M 296.11328 423.06836 C 296.21038 423.06836 296.33623 423.08643 296.50195 423.11133 C 297.01676 423.19003 297.00084 423.23363 296.23633 423.94727 L 295.42969 424.70117 L 295.60938 423.94727 C 295.77684 423.24643 295.82178 423.07063 296.11328 423.06836 z M 305.51562 424.3418 C 305.36109 424.3645 305.187 424.49951 305.10938 424.73242 C 305.05466 424.89648 305.18762 425.03125 305.40625 425.03125 C 305.625 425.03125 305.80469 424.85168 305.80469 424.63281 C 305.80469 424.41089 305.67015 424.31969 305.51562 424.3418 z M 293.53125 425.08594 C 293.78821 425.06554 294.00421 425.16257 293.92773 425.39453 C 293.87083 425.56721 293.57868 425.74494 293.2793 425.78906 C 292.87194 425.84876 292.77354 425.77047 292.88672 425.47461 C 292.97612 425.24143 293.27429 425.10577 293.53125 425.08594 z M 269.67578 429.10156 C 269.80331 429.10156 269.86914 429.18039 269.86914 429.33789 C 269.86914 429.47608 269.61557 429.5865 269.30469 429.58398 C 268.84759 429.58398 268.81039 429.53508 269.11523 429.33789 C 269.35878 429.18041 269.54825 429.10156 269.67578 429.10156 z M 265.72266 431.11523 C 265.86085 431.11523 265.80508 431.22537 265.59766 431.35938 C 265.39049 431.49325 265.10695 431.60352 264.96875 431.60352 C 264.83056 431.60352 264.88828 431.49318 265.0957 431.35938 C 265.30288 431.2255 265.58448 431.11523 265.72266 431.11523 z M 249.13477 449.02148 C 249.29929 449.01448 249.25591 449.10585 249.03711 449.36914 C 248.99331 449.42154 248.94873 449.46715 248.9043 449.50977 C 248.9669 449.34616 249.03093 449.17167 249.08789 449.0293 C 249.10149 449.0293 249.12387 449.02148 249.13477 449.02148 z M 230.26953 478.29688 C 230.37255 478.30588 230.41441 478.39381 230.36719 478.53516 C 230.30659 478.71647 230.10714 478.91616 229.92578 478.97656 C 229.73744 479.03916 229.64426 478.94444 229.70703 478.75586 C 229.76743 478.57455 229.96513 478.37682 230.14648 478.31641 C 230.19348 478.30051 230.23506 478.29423 230.26953 478.29883 L 230.26953 478.29688 z M 225.13477 479.81641 C 225.13677 479.84541 225.14063 479.86879 225.14062 479.90039 C 225.14062 480.25393 225.02886 480.54297 224.89062 480.54297 C 224.75243 480.54297 224.63867 480.32488 224.63867 480.05664 C 224.63867 480.01734 224.64609 479.97697 224.65039 479.9375 C 224.86415 479.881 224.9992 479.84859 225.13477 479.81641 z M 223.37891 480.29102 C 223.23754 480.38492 223.00835 480.4541 222.75781 480.47656 C 222.93095 480.42326 223.12973 480.36272 223.37891 480.29102 z M 224.81641 481.3457 C 224.87151 481.3616 224.88867 481.45543 224.88867 481.62891 C 224.88867 481.86211 224.77187 482.2718 224.62891 482.53906 C 224.32071 483.11491 224.13527 483.13823 223.51367 482.68359 C 222.96012 482.27888 223.15683 481.44746 223.75195 481.67578 C 223.96616 481.75818 224.31015 481.68355 224.51562 481.51367 C 224.66834 481.38682 224.76121 481.32868 224.81641 481.3457 z M 220.12695 481.71875 L 219.54297 482.13477 L 219.58008 481.93359 L 219.58789 481.93359 C 219.78045 481.90132 219.95621 481.81795 220.12695 481.71875 z M 221.61719 482.30859 C 221.64939 482.30859 221.67898 482.31567 221.70508 482.32227 C 221.89569 482.39507 222.11811 482.79565 222.20117 483.21094 C 222.29377 483.67442 222.55569 484.03015 222.87891 484.13281 C 223.5544 484.34725 223.37191 484.90507 222.65234 484.82422 C 221.96655 484.74752 221.71615 485.34937 222.0918 486.17383 C 222.30624 486.64335 222.50422 486.76339 222.87891 486.64453 C 223.28997 486.51406 223.37891 486.59882 223.37891 487.12891 C 223.37891 487.84736 223.18744 487.97321 222.9668 487.39844 C 222.8871 487.19127 222.6216 487.02148 222.37695 487.02148 C 222.13231 487.02148 221.82065 486.87965 221.68359 486.70703 C 221.30243 486.22678 221.04753 484.50781 221.35742 484.50781 C 221.50174 484.50781 221.61914 484.22628 221.61914 483.88086 C 221.61914 483.24728 221.04875 483.00546 220.73828 483.50781 C 220.65158 483.64828 220.4692 483.69483 220.33398 483.61133 C 220.00288 483.40664 221.13233 482.31306 221.61719 482.30859 z M 215.37109 483.02539 C 215.63052 483.02539 215.84375 483.1763 215.84375 483.36133 C 215.84375 483.80421 214.66191 484.35392 214.44922 484.00977 C 214.22707 483.65035 214.81205 483.02539 215.37109 483.02539 z M 209.35156 484.19531 C 209.30776 484.31967 209.2493 484.45837 209.17578 484.61328 C 208.37883 486.29271 207.97127 485.91551 208.66406 484.21289 C 208.89513 484.22649 209.12451 484.22481 209.35156 484.19531 z M 219.50391 484.27148 C 219.72266 484.27148 219.85742 484.40611 219.80273 484.57031 C 219.64752 485.03613 219.10742 485.11366 219.10742 484.66992 C 219.10742 484.45117 219.28504 484.27148 219.50391 484.27148 z M 196.90039 485.26367 L 196.90039 485.26562 C 196.90539 485.26572 196.90981 485.26562 196.91211 485.26562 C 196.82791 485.7788 196.54016 486.34856 196.10742 486.78125 C 195.77987 487.10886 195.51172 487.49417 195.51172 487.63867 C 195.51172 488.05647 194.57833 487.94399 194.41016 487.50586 C 194.32646 487.28756 194.32616 486.67866 194.41016 486.1543 C 194.45376 485.88215 194.46502 485.64588 194.44922 485.45703 C 194.74894 485.42323 195.11306 485.38546 195.52734 485.3457 C 196.01928 485.69761 196.20912 485.69461 196.25391 485.2832 C 196.46926 485.2696 196.68437 485.26147 196.90039 485.26367 z M 210.4668 485.36328 C 210.4967 485.37028 210.52995 485.38124 210.56445 485.40234 C 210.70264 485.48764 210.81641 485.60901 210.81641 485.66992 C 210.81641 485.73092 210.70266 485.7793 210.56445 485.7793 C 210.42625 485.7793 210.31445 485.66003 210.31445 485.51367 C 210.31445 485.40384 210.37667 485.34807 210.4668 485.36328 z M 193.23438 485.62109 C 193.23937 485.69709 193.24419 485.77309 193.24219 485.85156 C 192.90757 485.79596 192.67193 485.73019 193.23438 485.62109 z M 182.25781 486.41406 L 182.61914 486.41406 L 182.7207 486.41406 C 182.8151 486.64245 182.94283 486.82365 183.09766 486.91602 C 183.28282 487.02653 183.43359 487.2741 183.43359 487.4668 C 183.43359 487.66785 183.16865 488.12122 182.84961 488.49805 L 182.26562 489.17773 L 182.30273 487.60742 C 182.31633 487.07827 182.30191 486.6887 182.25781 486.41406 z M 191.75977 486.63281 C 191.70717 486.62581 191.65003 486.64818 191.59375 486.70508 C 191.51095 486.78788 191.53067 486.99872 191.63867 487.17383 C 191.79684 487.42898 191.85627 487.42912 191.94141 487.17383 C 192.03241 486.9006 191.91771 486.64801 191.75977 486.63281 z M 199.2793 486.64062 C 198.78192 486.64062 197.95155 487.59226 198.10352 487.98828 C 198.22537 488.30594 198.4369 488.36992 198.96094 488.24414 C 199.34398 488.15224 199.6769 488.0638 199.69922 488.04883 C 199.83197 487.95893 199.43887 486.64064 199.2793 486.64062 z M 209.91016 487.11914 C 210.00026 487.11914 210.0625 487.21575 210.0625 487.37109 C 210.0625 487.57827 209.95072 487.81889 209.8125 487.9043 C 209.67431 487.9896 209.56055 487.88928 209.56055 487.68164 C 209.56055 487.47446 209.67426 487.2358 209.8125 487.15039 C 209.847 487.12999 209.88016 487.11914 209.91016 487.11914 z M 169.02539 487.39258 C 168.76888 487.39258 168.63086 487.62079 168.63086 488.04297 C 168.63086 488.83 169.2215 488.7439 169.33984 487.93945 C 169.39314 487.57713 169.28723 487.39258 169.02539 487.39258 z M 204.41797 487.50391 C 204.45407 487.50391 204.48982 487.51063 204.5293 487.51953 C 204.9257 487.62323 204.93191 487.72266 204.5957 488.74414 C 204.32787 489.55767 204.09749 489.85742 203.73633 489.85742 C 203.43947 489.85742 203.29471 489.7317 203.37305 489.54297 C 203.44475 489.37028 203.63695 488.81924 203.80078 488.31836 C 203.99208 487.73375 204.16569 487.49819 204.41797 487.50391 z M 190.99023 487.64453 C 190.85204 487.64453 190.73828 487.81417 190.73828 488.02148 C 190.73828 488.22866 190.85201 488.39844 190.99023 488.39844 C 191.12842 488.39844 191.24219 488.22863 191.24219 488.02148 C 191.24219 487.8143 191.12845 487.64453 190.99023 487.64453 z M 161.61719 487.94922 C 161.86998 487.95622 161.93321 488.097 161.68555 488.32812 C 161.55666 488.4484 161.19568 488.62295 160.88477 488.7168 C 160.07769 488.96067 160.16501 488.39875 160.98242 488.08789 C 161.2446 487.98829 161.46551 487.94468 161.61719 487.94922 z M 218.84766 488.10938 C 219.24229 488.07718 220.1481 488.63155 220.05273 488.91797 C 219.87482 489.45227 219.15902 489.40939 218.85742 488.8457 C 218.6988 488.54911 218.63302 488.24181 218.71289 488.16211 C 218.74399 488.13081 218.79143 488.11386 218.84766 488.10938 z M 173.37305 488.59961 C 173.42545 488.59061 173.48061 488.61027 173.53711 488.66797 C 173.63451 488.76537 173.60566 489.21263 173.47266 489.66406 L 173.23047 490.48633 L 173.0957 489.81055 C 172.9802 489.23297 173.14602 488.64037 173.37305 488.59961 z M 192.46875 488.69727 C 192.30265 488.68137 192.11914 488.96844 192.11914 489.44141 C 192.11914 489.90639 191.96886 490.09139 191.53906 490.15234 C 190.88734 490.24474 190.54059 490.85305 190.92188 491.23438 C 191.08844 491.40091 191.30081 491.35526 191.55469 491.10156 C 191.89652 490.75975 191.98379 490.77062 192.37695 491.20508 C 192.89984 491.78289 193.13715 491.68427 193.35938 490.79883 C 193.46966 490.35985 193.40348 490.04735 193.1582 489.85547 C 192.95624 489.69753 192.75324 489.34861 192.70703 489.08203 C 192.66253 488.8255 192.56828 488.70723 192.46875 488.69727 z M 221.66797 488.89453 C 221.79868 488.90153 221.8805 489.05802 221.83398 489.38672 C 221.78788 489.71158 221.55158 490.01651 221.31055 490.0625 C 220.95177 490.1306 220.91122 490.04103 221.08398 489.57422 C 221.25008 489.12521 221.49986 488.88559 221.66797 488.89453 z M 160.37891 489.17969 C 160.45491 489.19789 160.55572 489.3213 160.72461 489.5625 C 160.9352 489.86294 161.03643 490.22146 160.95117 490.35938 C 160.53982 491.02495 159.87519 490.23113 160.17969 489.4375 C 160.25069 489.25211 160.30289 489.16206 160.37891 489.17969 z M 217.61914 489.70898 C 218.02758 489.70198 218.60937 489.95544 218.60938 490.23242 C 218.60938 490.40669 218.44867 490.68202 218.25391 490.84375 C 217.97298 491.07686 217.81889 491.01992 217.50391 490.57031 C 217.28538 490.25843 217.19206 489.91727 217.29688 489.8125 C 217.36677 489.7428 217.48299 489.7117 217.61914 489.70898 z M 171.99023 489.85742 C 172.20557 489.85742 172.38281 489.97116 172.38281 490.10938 C 172.38281 490.24757 172.27655 490.35937 172.14648 490.35938 C 172.01645 490.35938 171.8393 490.24759 171.75391 490.10938 C 171.66861 489.97118 171.77461 489.85742 171.99023 489.85742 z M 163 489.92383 C 163.4582 489.93083 163.42327 490.24183 162.87891 490.73438 C 162.25332 491.30059 162.03155 491.25751 162.12695 490.58594 C 162.17845 490.2226 162.41014 489.99108 162.77344 489.93945 C 162.85904 489.92815 162.93442 489.92163 163 489.92383 z M 166.36719 490.54883 C 166.11549 490.51663 165.61719 490.9168 165.61719 491.20508 C 165.61719 491.32625 165.8427 491.42578 166.11914 491.42578 C 166.60193 491.42578 166.80095 490.93382 166.45703 490.58984 C 166.43323 490.56624 166.40309 490.55353 166.36719 490.54883 z M 195.7793 490.66797 C 195.64928 490.66797 195.47409 490.78173 195.38867 490.91992 C 195.30337 491.05811 195.40888 491.16992 195.625 491.16992 C 195.84035 491.16992 196.01562 491.05814 196.01562 490.91992 C 196.01562 490.78173 195.90935 490.66797 195.7793 490.66797 z M 188.49805 490.94922 C 187.78732 490.94922 187.20437 491.22135 187.36328 491.47852 C 187.5244 491.73936 188.01491 491.76833 188.58203 491.55078 C 189.13453 491.33883 189.08035 490.94922 188.49805 490.94922 z M 186.63477 491.02344 C 186.52698 491.00984 186.41088 491.06483 186.3457 491.16992 C 186.2588 491.31038 186.36473 491.42578 186.58008 491.42578 C 187.02137 491.42578 187.0868 491.27597 186.73828 491.06055 C 186.70608 491.04015 186.67065 491.02734 186.63477 491.02344 z M 220.63477 491.73633 C 220.52086 491.73633 220.40861 491.75291 220.32227 491.78711 C 220.14958 491.85681 220.28944 491.91406 220.63477 491.91406 C 220.98021 491.91406 221.12196 491.85653 220.94922 491.78711 C 220.86272 491.75261 220.74866 491.73633 220.63477 491.73633 z M 264.44141 491.76953 C 264.40331 491.76253 264.37664 491.85623 264.36914 492.03906 C 264.35784 492.30392 264.41848 492.45267 264.50195 492.36914 C 264.58545 492.28564 264.59388 492.06812 264.52148 491.88672 C 264.49128 491.81162 264.46441 491.77317 264.44141 491.76953 z "
     id="path2620"
     inkscape:export-xdpi="179.89"
     inkscape:export-ydpi="179.89" />
  <metadata
     id="metadata6">
    <rdf:RDF>
      <cc:Work>
        <dc:format>image/svg+xml</dc:format>
        <dc:type
           rdf:resource="http://purl.org/dc/dcmitype/StillImage" />
        <cc:license
           rdf:resource="http://creativecommons.org/publicdomain/zero/1.0/" />
        <dc:publisher>
          <cc:Agent
             rdf:about="http://openclipart.org/">
            <dc:title>Openclipart</dc:title>
          </cc:Agent>
        </dc:publisher>
        <dc:title></dc:title>
      </cc:Work>
      <cc:License
         rdf:about="http://creativecommons.org/publicdomain/zero/1.0/">
        <cc:permits
           rdf:resource="http://creativecommons.org/ns#Reproduction" />
        <cc:permits
           rdf:resource="http://creativecommons.org/ns#Distribution" />
        <cc:permits
           rdf:resource="http://creativecommons.org/ns#DerivativeWorks" />
      </cc:License>
    </rdf:RDF>
  </metadata>
  <text
     xml:space="preserve"
     style="font-style:normal;font-variant:normal;font-weight:500;font-stretch:normal;font-size:111.33268738px;line-height:200%;font-family:'Sofia Pro';-inkscape-font-specification:'Sofia Pro, Medium';text-align:start;letter-spacing:0px;word-spacing:0px;writing-mode:lr-tb;text-anchor:start;fill:#333333;fill-opacity:1;stroke:none;stroke-width:1px;stroke-linecap:butt;stroke-linejoin:miter;stroke-opacity:1"
     x="409.37241"
     y="259.12048"
     id="text4189"
     sodipodi:linespacing="200%"
     inkscape:export-xdpi="179.89"
     inkscape:export-ydpi="179.89"
     transform="scale(1.0354603,0.96575409)"><tspan
       sodipodi:role="line"
       x="409.37241"
       y="259.12048"
       id="tspan4193"
       style="font-style:normal;font-variant:normal;font-weight:normal;font-stretch:normal;font-size:111.33268738px;line-height:200%;font-family:'Stencil Style New';-inkscape-font-specification:'Stencil Style New';text-align:start;letter-spacing:27.83317184px;writing-mode:lr-tb;text-anchor:start;fill:#333333"
       dx="0"
       dy="0.22266538">OPSEC</tspan></text>
  <text
     xml:space="preserve"
     style="font-style:normal;font-variant:normal;font-weight:normal;font-stretch:normal;font-size:74.05355072px;line-height:125%;font-family:FontAwesome;-inkscape-font-specification:'FontAwesome, Normal';text-align:start;letter-spacing:0px;word-spacing:0px;writing-mode:lr-tb;text-anchor:start;fill:#333333;fill-opacity:1;stroke:none;stroke-width:1px;stroke-linecap:butt;stroke-linejoin:miter;stroke-opacity:1"
     x="421.08441"
     y="377.51385"
     id="text4197"
     sodipodi:linespacing="125%"
     inkscape:export-xdpi="179.89"
     inkscape:export-ydpi="179.89"
     transform="scale(1.0136212,0.98656184)"><tspan
       sodipodi:role="line"
       id="tspan4199"
       x="421.08441"
       y="377.51385"
       style="font-style:normal;font-variant:normal;font-weight:normal;font-stretch:normal;font-size:74.05355072px;line-height:125%;font-family:'Stencil Style New';-inkscape-font-specification:'Stencil Style New';text-align:start;writing-mode:lr-tb;text-anchor:start;fill:#333333;letter-spacing:5.25000001px">Operations</tspan><tspan
       sodipodi:role="line"
       x="421.08441"
       y="455.86588"
       id="tspan4201"
       style="font-style:normal;font-variant:normal;font-weight:normal;font-stretch:normal;font-size:74.05355072px;line-height:125%;font-family:'Stencil Style New';-inkscape-font-specification:'Stencil Style New';text-align:start;letter-spacing:14.17708492px;writing-mode:lr-tb;text-anchor:start;fill:#333333">Security</tspan></text>
  <rect
     style="fill:#333333;fill-opacity:0;fill-rule:evenodd;stroke:none;stroke-width:1;stroke-miterlimit:4;stroke-dasharray:none;stroke-opacity:1"
     id="rect4222"
     width="26.80138"
     height="29.954485"
     x="452.47037"
     y="515.84265"
     inkscape:export-xdpi="179.89"
     inkscape:export-ydpi="179.89" />
  <text
     xml:space="preserve"
     style="font-style:normal;font-variant:normal;font-weight:normal;font-stretch:normal;font-size:40px;line-height:125%;font-family:FontAwesome;-inkscape-font-specification:'FontAwesome, Normal';text-align:start;letter-spacing:0px;word-spacing:0px;writing-mode:lr-tb;text-anchor:start;fill:#000000;fill-opacity:1;stroke:none;stroke-width:1px;stroke-linecap:butt;stroke-linejoin:miter;stroke-opacity:1"
     x="636.92694"
     y="405.48404"
     id="text4147"
     sodipodi:linespacing="125%"><tspan
       sodipodi:role="line"
       id="tspan4149"
       x="636.92694"
       y="405.48404"></tspan></text>
</svg>
