<?xml version="1.0" encoding="UTF-8" standalone="no"?>
<!-- Created with Inkscape (http://www.inkscape.org/) -->

<svg
   xmlns:dc="http://purl.org/dc/elements/1.1/"
   xmlns:cc="http://creativecommons.org/ns#"
   xmlns:rdf="http://www.w3.org/1999/02/22-rdf-syntax-ns#"
   xmlns:svg="http://www.w3.org/2000/svg"
   xmlns="http://www.w3.org/2000/svg"
   xmlns:sodipodi="http://sodipodi.sourceforge.net/DTD/sodipodi-0.dtd"
   xmlns:inkscape="http://www.inkscape.org/namespaces/inkscape"
   width="210mm"
   height="210mm"
   viewBox="0 0 744.09449 744.09448"
   id="svg4224"
   version="1.1"
   inkscape:version="0.91 r13725"
   sodipodi:docname="logo-square.svg">
  <defs
     id="defs4226" />
  <sodipodi:namedview
     id="base"
     pagecolor="#212121"
     bordercolor="#666666"
     borderopacity="1.0"
     inkscape:pageopacity="0"
     inkscape:pageshadow="2"
     inkscape:zoom="0.35"
     inkscape:cx="-79.285714"
     inkscape:cy="520"
     inkscape:document-units="px"
     inkscape:current-layer="layer1"
     showgrid="false"
     inkscape:window-width="1403"
     inkscape:window-height="855"
     inkscape:window-x="0"
     inkscape:window-y="0"
     inkscape:window-maximized="1" />
  <metadata
     id="metadata4229">
    <rdf:RDF>
      <cc:Work
         rdf:about="">
        <dc:format>image/svg+xml</dc:format>
        <dc:type
           rdf:resource="http://purl.org/dc/dcmitype/StillImage" />
        <dc:title></dc:title>
      </cc:Work>
    </rdf:RDF>
  </metadata>
  <g
     inkscape:label="Layer 1"
     inkscape:groupmode="layer"
     id="layer1"
     transform="translate(0,-308.26772)">
    <path
       inkscape:connector-curvature="0"
       style="fill:#cccccc;fill-opacity:1"
       d="m 406.35499,353.70528 c -4.85124,-0.0271 -8.97935,0.14508 -10.67473,0.56281 -1.11703,0.27564 -6.44722,0.69836 -11.8484,0.93802 -5.40144,0.23976 -10.05475,0.56932 -10.33883,0.73478 -0.47556,0.27744 -7.33345,0.98045 -15.07486,1.54774 -1.76268,0.12947 -3.46915,0.39132 -3.7905,0.57844 -0.3214,0.18711 -1.56036,0.39144 -2.75371,0.45727 -3.493,0.19251 -9.99632,1.11191 -12.30457,1.73925 -2.10071,0.57093 -7.58977,1.54873 -13.87222,2.47012 -3.50469,0.51399 -10.69501,1.63781 -16.53466,2.58347 -0.17198,0.0271 -0.33898,0.0669 -0.51008,0.0976 l -2.22288,0 c -0.39656,0 -0.83565,-0.16709 -1.19023,0 -0.50148,0.23611 -0.68873,0.8815 -1.19024,1.11781 -0.35461,0.1671 -0.90986,-0.26426 -1.19021,0 -0.21974,0.20709 -0.17688,0.51836 -0.083,0.84811 -0.4505,0.13889 -0.92345,0.26577 -1.38929,0.35568 -1.29809,0.25156 -4.03185,0.91544 -6.07555,1.47347 -2.04375,0.55799 -3.89312,0.91182 -4.10983,0.7856 -0.21684,-0.12627 -1.55126,0.55129 -2.96519,1.50864 -2.09157,1.41612 -3.04162,2.61406 -5.08443,6.42545 -1.01438,1.8927 -2.09232,4.00957 -2.78272,5.4444 -0.75599,0.14849 -1.18907,0.54187 -0.65939,1.46175 -0.32187,0.78503 -0.79124,2.07662 -1.35199,3.70126 -0.16094,0.13629 -0.32101,0.27125 -0.47275,0.41429 -0.39654,0.37371 -0.93952,0.64912 -1.19025,1.12173 -0.17729,0.33422 0.12528,0.76724 0,1.12171 -2.87168,8.11916 0.34123,-1.76872 -2.38046,3.36122 -0.25392,0.47871 0,5.16156 0,5.60466 l 0,0.94584 c -0.38497,1.29844 -0.71056,2.437 -0.87506,3.12672 -1.31334,5.50549 -3.96473,14.4141 -4.46645,15.0044 -0.27176,0.32014 -0.61797,1.37339 -0.76724,2.34114 -0.11654,0.75669 -0.32694,1.73283 -0.57643,2.7945 -0.14991,0.14848 -0.43372,0.42403 -0.45205,0.44947 -0.21969,0.31105 0.21972,0.80694 0,1.11781 -0.62203,0.87929 -1.87482,1.29819 -2.37631,2.24343 -0.35461,0.66832 0.35462,1.57114 0,2.23951 -0.50149,0.94521 -1.87898,1.29823 -2.38047,2.24342 -0.35462,0.66834 0.15563,1.51073 0,2.24345 -0.49171,2.31717 -1.77231,4.42999 -2.38046,6.72245 -0.0963,0.36236 0,0.7481 0,1.12171 0,1.12092 0.19557,2.25947 0,3.36514 -0.20617,1.16548 -0.9402,2.20262 -1.18609,3.36124 -0.1026,0.48296 0.002,0.98533 0.0414,1.48128 -0.19939,0.62696 -0.38072,1.20856 -0.52257,1.70016 -0.27993,0.41914 -0.58372,0.82874 -0.70914,1.30151 -0.14163,0.53395 -0.16032,1.13578 -0.13272,1.7666 -0.60421,2.13168 -1.37694,4.69056 -1.99063,6.57004 -2.31127,7.07857 -5.02898,17.86904 -6.65203,26.39349 -0.40664,2.1368 -0.64546,3.3687 -0.92896,4.85033 -0.45626,0.95006 -0.50116,2.07406 -0.99944,3.01339 -0.25056,0.47261 -0.72378,0.82862 -1.19023,1.12171 -0.73765,0.4634 -1.97989,0.37453 -2.37634,1.12171 -0.33677,0.63453 -0.0393,1.41067 0.0954,2.14962 -0.0337,0.0318 -0.0688,0.0524 -0.0954,0.0899 0.0386,0.0228 0.0801,0.0658 0.1202,0.0939 0.0337,0.24387 0.0414,0.4821 -0.0127,0.70743 -0.24959,-0.23159 -0.33021,-0.49312 -0.11195,-0.80122 -1.41972,0.95927 -6.29984,-0.47679 -8.32332,0 -7.7077,1.81597 5.61048,0.90855 -7.13724,2.24343 -1.97014,0.20616 -3.97686,-0.20616 -5.94701,0 -3.02496,-0.18751 -5.47024,1.85478 -8.32746,2.23951 -1.56989,0.21115 -3.20871,-0.32424 -4.75677,0 -2.08415,0.43637 -3.89419,1.69066 -5.94702,2.24342 -0.76244,0.20526 -1.60712,-0.18109 -2.37631,0 -1.72006,0.40552 -3.03669,1.83817 -4.75678,2.24343 -0.76922,0.1811 -1.58751,0 -2.38045,0 l -8.32745,0 c -1.18939,0 -2.41267,-0.27197 -3.56655,0 -1.08788,0.25611 -1.31667,1.90536 -2.38049,2.23953 -1.5044,0.47261 -3.2523,-0.47262 -4.75674,0 -0.53188,0.16709 -0.64216,0.99355 -1.18609,1.1217 -1.15382,0.27199 -2.50692,-0.50127 -3.57069,0 -0.79294,0.37371 -0.5634,1.65268 -1.19024,2.24344 -0.6268,0.59075 -1.63869,0.65435 -2.37632,1.11781 -1.00237,0.6298 -4.03002,4.25859 -4.75677,4.48682 -0.75218,0.23614 -1.62822,-0.2361 -2.38045,0 -2.59103,-0.41913 -0.39746,1.86592 -1.19025,2.23956 -0.70922,0.3342 -1.58341,0 -2.3763,0 -0.39655,0 -0.9099,-0.26427 -1.19023,0 -0.56066,0.52838 0.56066,1.715 0,2.24339 -2.88875,2.72247 -1.74912,-0.33547 -3.57068,2.23953 -0.49175,0.69516 -0.44828,1.78 -1.18611,2.24345 -0.65977,0.41458 -1.72071,-0.4146 -2.38045,0 -0.73762,0.46343 -0.56341,1.64874 -1.19023,2.23951 -0.28041,0.26429 -0.90991,-0.26427 -1.19023,0 -0.0762,0.0718 -2.22864,4.27415 -2.37633,4.48294 -1.82161,2.57515 -0.67776,-0.47899 -3.56651,2.24343 -0.28043,0.26427 0.1773,0.78749 0,1.12169 -1.75006,3.2986 -1.19024,-1.74137 -1.19024,3.36124 0,0.37375 -0.28043,0.85755 0,1.12174 0.12146,0.11447 5.54047,-0.087 5.92211,0 -0.29729,0.4441 -0.46861,0.8061 -0.46861,1.05526 0,0.45491 0.68186,1.47758 1.51371,2.2708 0.8318,0.79326 2.14885,2.25367 2.92788,3.24395 1.32876,1.68955 6.16718,4.48294 7.76344,4.48294 0.39609,0 1.59147,0.43731 2.65833,0.9732 1.06686,0.53596 3.02175,1.43363 4.34205,1.99329 1.32029,0.55971 3.37469,1.53664 4.56601,2.16916 4.57966,2.43175 6.357,2.87339 13.57775,3.3925 9.21637,0.66257 15.11283,0.65973 18.72435,-0.016 1.58014,-0.29472 4.67136,-0.64119 6.87182,-0.76994 2.20051,-0.12888 4.9642,-0.31576 6.13777,-0.41432 1.17359,-0.0991 4.05188,-0.33994 6.39907,-0.53542 0.10059,-0.0111 0.21256,-0.0221 0.31515,-0.0313 0.2708,0.0454 0.53967,0.085 0.81287,0.11729 1.18012,0.13888 2.38134,0 3.57069,0 3.11013,0 6.43996,-0.24113 9.51355,0 3.1853,0.2502 6.32659,0.89067 9.51353,1.12172 1.58645,0.11482 3.18094,0.0463 4.77336,0.016 0.22406,0.58279 0.45139,1.24239 0.70088,1.9933 1.11421,3.35604 1.26782,4.46888 0.86674,6.21438 -0.7226,3.14512 -3.1368,9.3807 -4.52037,11.67831 -0.0434,0.0736 -0.0942,0.16709 -0.14099,0.25014 -0.18941,-0.0519 -0.37119,-0.0869 -0.48936,0.0234 -0.28333,0.26702 -0.18707,0.66679 -0.0705,1.08264 -0.34017,0.72944 -0.71409,1.64237 -1.09484,2.61864 -0.18112,-0.61417 0.80878,-3.8072 -1.21096,1.90339 -0.12529,0.35465 0.28042,0.85746 0,1.12171 -0.28044,0.26382 -1.01292,-0.3342 -1.19025,0 -0.35462,0.6683 0.25056,1.53449 0,2.24343 -0.35462,1.00257 -1.75843,1.36016 -2.38044,2.23953 -0.7243,1.02392 -1.0128,2.72274 -2.37632,3.36514 -0.35466,0.16709 -0.90991,-0.26428 -1.19024,0 -0.24331,0.22932 0.23563,2.91678 0,3.36121 -0.71364,1.34501 -2.8529,2.01618 -3.56655,3.36125 -0.36135,0.68067 0.36093,6.04569 0,6.72638 -0.25053,0.47261 -0.93953,0.64908 -1.19022,1.1217 -0.17729,0.33422 0.28041,0.85749 0,1.1217 -0.56071,0.52843 -2.0259,-0.66828 -2.38048,0 -0.35462,0.66843 0.19217,1.51449 0,2.23952 -1.3667,5.15187 -1.19021,0.25681 -1.19021,3.36515 0,1.12081 0.53187,2.35866 0,3.36123 -0.17729,0.3342 -1.00882,-0.3342 -1.18609,0 -0.50522,0.95227 0.42788,5.51666 0,6.72638 -0.17729,0.50131 -0.9395,0.6491 -1.19022,1.12172 -0.13356,0.2511 0,4.21652 0,4.48293 l 0,4.48295 c 0,0.74732 -0.25054,1.53061 0,2.23953 0.28041,0.79262 0.79373,1.4961 1.19022,2.24343 0.39654,0.74717 0.55924,1.6526 1.18609,2.24341 0.2443,0.23022 0.7535,-0.14188 1.06581,-0.0664 0.0795,0.12207 0.14078,0.21742 0.21981,0.34003 -0.003,0.26429 -0.18536,0.58941 -0.0954,0.84422 0.28042,0.79262 0.7938,1.49627 1.19023,2.24342 0.24141,0.45499 0.4525,0.92577 0.68843,1.38358 0.17752,0.0564 0.29759,0.0881 0.99945,0.61752 0.21784,0.1643 0.3699,0.39727 0.59306,0.555 0.17645,0.12466 0.41247,0.15668 0.58888,0.28141 0.22317,0.15769 0.39579,0.36909 0.59305,0.55499 l 0.59305,0.55891 c 0.0987,0.0928 0.21709,0.1681 0.29444,0.27749 0.12233,0.1729 0.19578,0.373 0.29444,0.55891 0.19727,0.093 0.47073,0.10441 0.59306,0.27749 0.10937,0.15469 -0.0625,0.38256 0,0.55892 0.0441,0.12466 0.23206,0.15988 0.29444,0.27749 0.71294,1.34384 -0.21608,0.56749 0.88749,1.9542 0.39367,0.49468 0.57411,0.25964 1.18607,0.8364 0.15586,0.14688 0.13846,0.41195 0.29445,0.55891 0.25144,0.23698 0.6098,0.34563 0.8875,0.55498 0.21783,0.16428 0.37521,0.39468 0.59304,0.55891 0.27769,0.20935 0.60301,0.35782 0.88748,0.55889 0.6406,0.45278 -0.11572,0.31043 1.18195,0.555 0.19342,0.0364 0.39962,-0.0363 0.59304,0 0.59417,-0.0641 0.96524,0.4375 1.48051,0.55892 0.51373,0.12107 1.26127,-0.12108 1.775,0 0.13526,0.0318 0.162,0.23593 0.29444,0.27749 0.18707,0.0589 0.42891,-0.10308 0.59305,0 0.18346,0.11528 0.11809,0.43418 0.29444,0.55889 0.24951,0.17629 0.62797,0.11445 0.88749,0.27751 0.0819,0.0516 -0.0441,0.19832 0,0.2814 0.14565,0.27439 1.04049,0.8395 1.18608,1.11388 0.1395,0.26292 0.10725,0.60127 0.29444,0.83641 0.13228,0.1663 0.49442,0.0955 0.59305,0.28142 0.13227,0.24939 -0.10985,0.57749 0,0.83638 0.10356,0.24412 0.46416,0.31986 0.58887,0.55501 0.0883,0.1663 -0.0477,0.37854 0,0.55891 0.0535,0.20161 0.20003,0.37299 0.29861,0.55889 0,0.37178 -0.065,0.74715 0,1.1139 0.0363,0.20501 0.25121,0.3551 0.29444,0.55889 0.0579,0.27345 -0.0579,0.56296 0,0.83641 0.0434,0.20379 0.1958,0.36908 0.29444,0.55499 0,0.27886 -0.0486,0.56525 0,0.8403 0.0512,0.28995 0.20004,0.55756 0.29862,0.83641 0.0985,0.27883 0.19576,0.55754 0.29444,0.83641 0.0985,0.27884 0.155,0.57349 0.29445,0.8364 0.0625,0.11764 0.26479,0.14987 0.2986,0.27749 0.0717,0.27053 0,0.55754 0,0.83639 l 0,2.50921 c 0,1.72402 -0.0733,-0.12467 0.29444,1.95421 0.065,0.36675 0,0.74208 0,1.11388 l 0,3.34561 0,1.9542 c 0,0.18591 0.0883,0.38872 0,0.555 -0.12483,0.23514 -0.41876,0.35361 -0.59304,0.5589 -0.7074,0.83336 -0.37447,0.93374 -1.47639,1.3953 -0.57,0.23874 -1.2297,0.26953 -1.77497,0.555 -0.36579,0.1915 -0.54468,0.61026 -0.88748,0.8364 -0.65142,0.42975 -1.38675,0.74019 -2.07358,1.11781 -0.49676,0.27307 -0.94654,0.6351 -1.48053,0.8364 -0.40594,0.15308 -0.85037,0.17049 -1.28147,0.24623 0.0382,1.3174 0.0951,3.07001 -0.0292,3.5371 -0.1514,0.57031 -0.64046,1.02132 -0.83772,1.579 -0.16455,0.46546 0,3.50293 0,3.94358 l 0,6.30817 c 0,0.78872 0.37427,1.66306 0,2.36852 -0.0849,0.15987 -0.37958,0.002 -0.60135,-0.0469 2.2303,5.18772 4.33653,10.27735 5.42447,13.27688 1.72288,4.75018 1.86713,5.08602 3.85269,9.04795 3.26828,6.52111 2.7287,8.08147 -2.01549,5.81571 -1.48693,-0.71003 -2.99875,-1.28976 -3.35921,-1.28976 -0.36043,0 -1.27015,-0.52404 -2.01965,-1.16471 -0.74954,-0.64072 -2.4412,-1.5644 -3.76145,-2.05192 -1.32032,-0.48764 -3.36341,-1.31248 -4.53698,-1.83305 -1.1736,-0.52075 -3.81444,-1.54183 -5.86821,-2.26686 -1.67835,-0.59257 -3.28198,-1.16307 -4.4499,-1.579 -0.001,0.48975 -0.0414,0.98386 -0.0414,1.47346 l 0,7.80901 0,21.19138 0,23.42311 0,6.6951 c 0,1.11541 0.23214,2.25186 0,3.3456 -0.17304,0.81524 -1.01301,1.41647 -1.18606,2.2317 -0.23212,1.09375 0,2.23023 0,3.3456 l 0,5.57731 c 0,1.11539 0.28704,2.2635 0,3.34559 -0.0328,0.12387 -3.33738,7.5205 -3.54998,8.92291 -0.22315,1.47225 0,2.97617 0,4.46339 l 0,4.4595 c 0,1.85901 0.24467,3.73267 0,5.57731 -0.15479,1.16666 -1.00548,2.18166 -1.18193,3.34558 -0.22318,1.47226 0.17434,2.9853 0,4.46341 -0.22216,1.88424 -0.93655,3.6961 -1.18608,5.5773 -0.14671,1.10678 0.28706,2.26351 0,3.34561 -0.51526,1.94243 -1.90712,3.62277 -2.368,5.57731 -0.34232,1.45179 0.22316,2.98722 0,4.45948 -0.17644,1.16392 -1.00549,2.18166 -1.18196,3.34561 -0.22316,1.47225 0.25943,2.99644 0,4.46341 -0.41021,2.31947 -3.73784,3.78774 -2.368,6.69119 -0.53422,4.02756 0.47564,8.2378 0,12.2724 -0.22218,1.88422 -0.99976,3.68536 -1.18194,5.57338 -0.28575,2.9622 0,5.95242 0,8.92682 0,1.48721 0.17432,2.9814 0,4.45949 -0.22215,1.88424 -0.78742,3.7183 -1.18194,5.57731 0,1.85901 0.1962,3.72752 0,5.5773 -0.20023,1.88642 -0.98584,3.69091 -1.18609,5.5773 -0.19617,1.84978 0.35289,3.74827 0,5.5773 -0.44634,2.31356 -1.76287,4.40992 -2.36801,6.6912 -0.58203,2.19406 -0.75267,4.46609 -1.18195,6.6912 -0.35983,1.86525 -0.89745,3.70053 -1.18192,5.57728 -0.95031,6.26921 -1.26175,12.70808 -2.36802,18.96362 -0.66142,3.74007 -1.66885,7.42065 -2.36802,11.15459 -0.48481,2.58906 -0.54301,5.24985 -1.18194,7.80901 -0.0866,0.34716 -0.21128,0.68395 -0.31103,1.02793 l 2.85324,0 c -0.98247,0.32784 -2.30688,0.31936 -2.85324,0 -0.26333,0.90817 -0.54909,1.80985 -0.86676,2.70458 0.0705,-0.12812 0.0942,-0.21632 0.21149,-0.38307 0.61253,-0.87083 1.50778,-1.36083 2.26434,-1.34057 0.34403,0.0142 0.65724,0.12329 0.90408,0.35575 0.34015,0.32054 -0.0765,0.7758 -1.20269,1.30537 -1.50657,0.70833 -2.2676,0.9204 -2.38045,0.63707 -0.81523,2.25923 -1.67352,4.50503 -2.16896,6.83974 -0.41237,1.94316 -0.56716,3.92365 -0.70085,5.90554 0.81292,-0.11305 1.2864,-0.68984 1.29806,-1.73919 0.0149,-1.37638 1.02692,-1.45858 1.25243,-0.1013 0.20383,1.22612 -0.16159,1.20669 4.39182,0.23057 l 3.7034,-0.79347 0,-2.04796 c 0,-2.00121 0.025,-2.03006 1.04508,-1.16075 1.01882,0.86894 1.0343,0.85058 0.75478,-0.80125 -0.30112,-1.77911 0.4995,-4.45555 1.33123,-4.45555 0.26886,0 0.64461,0.57996 0.83359,1.2897 0.23173,0.87119 0.63911,1.23071 1.25655,1.11 1.40753,-0.2752 0.97588,-2.93575 -0.68011,-4.18977 -1.50079,-1.13662 -1.29396,-1.73143 0.60549,-1.73143 0.872,0 1.33532,0.37095 1.57176,1.2585 0.18409,0.69137 0.69541,1.25461 1.13632,1.25461 0.62735,0 0.72628,-0.38201 0.45203,-1.75886 -0.23175,-1.16358 -0.14777,-1.75874 0.24884,-1.75874 0.25489,0 0.37409,-0.22904 0.36495,-0.6644 0.73712,-0.0176 1.4741,-0.0389 2.21043,-0.0389 0.29824,0.0176 0.6113,0.0201 0.91235,0.0165 0.37053,0.0141 0.74191,0.0283 1.11143,0.0542 0.48461,0.0365 0.96889,0.086 1.45152,0.14072 -0.91985,0.47093 -1.51407,1.5714 -1.60494,3.13843 -0.068,1.17347 0.20723,2.61403 0.60964,3.20095 0.916,1.33633 0.46686,3.48829 -0.55988,2.68515 -0.51923,-0.40591 -0.7753,-0.28002 -1.03679,0.49636 -0.44185,1.31198 -1.13704,1.32433 -1.49713,0.0271 -0.32282,-1.16347 -1.80886,-1.28759 -3.23474,-0.26967 -1.01804,0.72669 -0.72847,1.99509 0.36906,1.61801 0.3397,-0.11657 1.0438,0.13567 1.5635,0.5629 0.82238,0.67547 1.51267,0.69408 5.33322,0.16027 2.41408,-0.33749 5.16773,-0.66475 6.11703,-0.73094 1.66027,-0.11658 3.83524,-1.34446 2.38046,-1.34446 -0.35221,0 -0.63866,-0.32171 -0.63866,-0.71528 0,-0.52414 0.62921,-0.69206 2.35558,-0.62918 3.11758,0.11305 3.49657,-0.38496 1.55932,-2.05197 -0.88154,-0.75872 -1.754,-1.77523 -1.94085,-2.25911 -0.18686,-0.48388 -0.68526,-0.87931 -1.10314,-0.87931 -0.71284,0 -1.18574,-0.70327 -1.34367,-1.91124 0.61334,0.15885 1.22536,0.33667 1.83718,0.50425 0.20001,0.35363 0.45781,0.53344 0.72577,0.47681 0.91314,-0.19254 1.59846,0.81289 1.60906,2.35283 0.003,1.00285 0.13569,1.09294 0.80871,0.56667 0.4399,-0.34422 0.80038,-0.91488 0.80038,-1.26627 0,-0.35151 0.31338,-0.75272 0.69674,-0.8911 0.541,-0.19572 0.64572,0.42677 0.46447,2.78668 l -0.23225,3.04068 1.76254,-0.33221 c 0.97059,-0.18311 1.8293,-0.39496 1.9077,-0.46892 0.0785,-0.0741 0.44439,-1.25943 0.81284,-2.63428 0.43557,-1.62545 0.80183,-2.58612 1.24,-3.13454 l 1.98232,0 c 0.10748,0.43854 0.12975,1.15511 0.10356,2.30986 -0.0337,1.61154 -0.33044,3.39938 -0.65526,3.97086 -0.46305,0.81526 -0.41592,1.17632 0.22395,1.67679 0.68418,0.5351 0.86654,0.4628 1.11974,-0.44949 0.16625,-0.59845 0.53842,-1.09045 0.8294,-1.09045 0.2997,0 0.38246,0.55324 0.1909,1.27415 -0.24862,0.93325 0.0363,1.7385 1.06995,3.01725 1.60587,1.98426 2.32992,2.18021 2.72882,0.7426 0.20577,-0.74213 0.66967,-0.96834 1.79158,-0.87932 0.83112,0.0659 1.48494,-0.10717 1.45563,-0.38307 -0.0289,-0.2765 -0.4829,-0.43524 -1.00774,-0.35174 -0.53632,0.086 -1.30287,-0.35352 -1.75425,-1.00451 -0.7187,-1.03593 -0.71253,-1.42465 0.0704,-3.67387 0.48134,-1.38249 1.18827,-2.81222 1.57176,-3.17751 0.38351,-0.36553 0.69673,-1.09058 0.69673,-1.61413 0,-0.0895 0.0213,-0.18513 0.0498,-0.28145 0.81864,0.0176 1.63669,0.0365 2.4551,0.0507 -0.25633,0.44007 -0.73181,0.88519 -1.33537,1.21162 -1.25076,0.67654 -1.59689,1.26804 -1.82474,3.11888 -0.32908,2.67526 0.39882,3.76914 1.53859,2.31386 0.42015,-0.53674 0.76309,-1.49955 0.76309,-2.13793 0,-0.63849 0.24148,-1.16076 0.53497,-1.16076 0.29344,0 0.53083,0.46491 0.53083,1.03182 0,0.56666 0.36942,1.69715 0.81699,2.51311 0.87272,1.59058 1.84963,1.96836 1.84963,0.71515 0,-0.42134 0.64175,-0.99436 1.42246,-1.27404 l 1.41833,-0.50813 -1.62152,-1.61413 c -1.80421,-1.79856 -1.74941,-2.71084 0.20723,-3.4121 0.58589,-0.20973 0.93971,-0.47658 1.08656,-0.82856 0.42354,-0.0141 0.84588,-0.0341 1.26903,-0.0589 -0.0289,0.0954 -0.0498,0.19607 -0.0498,0.31654 0,0.71951 0.34396,1.04359 1.1073,1.04359 0.76339,0 1.05226,-0.26837 0.92895,-0.87154 -0.0482,-0.23705 -0.1465,-0.43454 -0.27371,-0.5941 3.10301,-0.2148 5.07967,-0.37966 6.1834,-0.50813 -0.0729,0.77969 -0.2651,1.53582 -0.58889,2.02464 -0.54341,0.81996 -0.46109,1.16346 0.51422,2.1417 0.78138,0.78393 1.06281,1.53112 0.85433,2.28255 -0.17305,0.62329 -0.0674,1.11777 0.24053,1.11777 1.06917,0 2.23859,-0.61612 2.24776,-1.1842 0.003,-0.31607 0.61767,-1.11824 1.36026,-1.78217 1.46936,-1.31397 2.14807,-1.05737 2.55049,0.9575 0.13823,0.69137 0.41231,1.63133 0.60546,2.08706 0.1928,0.45597 0.0935,0.97823 -0.21978,1.16087 -0.31367,0.18242 -0.5723,0.545 -0.5723,0.80513 0,0.56007 0.72932,0.62178 1.27318,0.1095 0.21107,-0.1989 0.91482,-0.37048 1.55932,-0.37908 1.78338,-0.0224 1.82345,-1.98237 0.0747,-3.50983 -1.20089,-1.04877 -1.37146,-1.51886 -1.06996,-2.89996 0.19745,-0.90603 0.49021,-2.49627 0.6511,-3.53326 0.0723,-0.46445 0.14374,-0.80901 0.23225,-1.0748 1.15198,0.0471 2.3004,0.093 3.44628,0 1.40233,-0.1095 2.78184,-0.39261 4.16371,-0.65662 -0.12719,1.31608 -0.57483,2.77889 -1.07824,2.77889 -1.19519,0 -1.34108,0.84034 -0.75479,4.2993 0.42496,2.5077 0.40849,3.52597 -0.0622,4.06083 -0.34597,0.39274 -0.46538,0.86731 -0.26542,1.05526 0.63535,0.5988 6.89655,0.18263 7.34875,-0.4886 0.33874,-0.50036 0.42871,-0.50082 0.43544,0 0.003,0.39414 0.78289,0.62543 2.08602,0.62543 2.48893,0 5.05694,-1.85166 6.25389,-4.51432 0.58995,-1.31256 0.89996,-1.57611 1.24414,-1.05137 0.54086,0.82479 0.13058,2.08341 -0.92479,2.82977 -0.41293,0.29193 -0.66941,1.0556 -0.56816,1.69622 0.15181,0.96009 0.54436,1.18396 2.22699,1.27804 1.2379,0.0695 2.35184,-0.18006 2.83251,-0.63319 0.59179,-0.55771 0.9496,-0.60198 1.40174,-0.17581 0.33297,0.31371 0.92098,0.57054 1.30634,0.57054 0.55701,0 0.53094,-0.37884 -0.1202,-1.8486 -1.00101,-2.25781 -0.32814,-2.88029 1.94916,-1.80962 0.8614,0.40498 1.90702,0.61284 2.32655,0.46115 0.99576,-0.3601 1.62268,0.61259 0.85847,1.33281 -0.71549,0.67441 -0.79877,3.373 -0.10356,3.373 0.2708,0 1.55477,0.7612 2.84911,1.69233 l 2.35141,1.69233 2.35556,-0.84422 c 2.72021,-0.9747 5.07224,-2.85545 5.36642,-4.2953 0.2496,-1.22152 2.057,-1.68867 2.057,-0.53157 0,0.44184 0.60981,1.02228 1.3561,1.28971 1.18125,0.42323 1.89136,0.13554 5.47007,-2.21212 2.26088,-1.48366 4.83044,-3.03113 5.71062,-3.43942 2.52323,-1.17088 10.11913,-2.37768 16.74617,-2.6616 5.80162,-0.24836 6.15717,-0.32667 7.88788,-1.75874 2.3717,-1.96259 6.36319,-3.87267 11.62859,-5.55781 2.34109,-0.7493 4.44324,-1.66795 4.66969,-2.04407 2.26762,-3.76502 5.90473,-12.24005 7.02111,-16.35674 1.53896,-5.67433 4.24865,-11.4965 9.98218,-21.43371 4.74562,-8.22486 5.63419,-9.35676 9.72919,-12.40139 2.60257,-1.93559 4.16739,-3.75513 7.5395,-8.78611 2.78342,-4.15273 4.62619,-6.41143 5.33324,-6.53485 0.59455,-0.10352 3.20236,-0.42715 5.79771,-0.71917 3.42252,-0.38507 5.40294,-0.90554 7.20361,-1.88773 3.14146,-1.71338 5.28627,-2.69378 9.8785,-4.51422 4.43137,-1.75648 9.65189,-6.07493 12.2963,-10.1775 1.00586,-1.56046 2.47007,-3.40544 3.25549,-4.09604 0.78541,-0.69052 2.03671,-2.37829 2.77861,-3.75206 1.20468,-2.23099 1.31856,-2.92812 1.08239,-6.53485 l -0.26129,-4.03738 2.30582,-1.63374 c 1.26931,-0.89864 2.91444,-1.6337 3.6578,-1.6337 0.77381,0 1.63819,-0.43299 2.01965,-1.00838 0.40426,-0.60965 1.24186,-1.00445 2.13163,-1.00445 0.8898,0 1.73182,-0.39495 2.13576,-1.00446 0.36622,-0.55302 1.21651,-1.00447 1.89112,-1.00447 0.67461,0 2.16749,-0.4552 3.31771,-1.00836 1.15022,-0.55304 2.65865,-1.00447 3.3509,-1.00447 0.69227,0 1.80055,-0.58367 2.45925,-1.29758 0.73719,-0.79906 1.51524,-1.18201 2.02795,-0.99666 0.51813,0.18752 1.5133,-0.31895 2.6293,-1.34057 1.37559,-1.25928 1.7956,-2.0636 1.79984,-3.44723 0.003,-1.44336 0.27761,-1.92135 1.36442,-2.38803 1.69135,-0.72613 3.44214,-0.75768 3.44214,-0.0586 0,0.28972 -0.59838,1.04808 -1.32708,1.68453 -1.54469,1.34914 -1.14011,2.24266 0.42298,0.93412 1.02172,-0.8552 1.03396,-0.85145 0.34423,0.20713 -1.05091,1.6132 0.10292,2.68418 2.89055,2.67726 1.72722,0 2.91464,-0.47642 5.51571,-2.18871 1.82344,-1.2003 4.2268,-3.01721 5.33737,-4.03737 l 2.01552,-1.8565 0.17009,1.27805 c 0.19661,1.48786 0.50222,1.56089 2.11502,0.49637 1.17424,-0.77523 2.25191,-0.62039 2.25191,0.32441 0,0.26882 -0.41974,0.63048 -0.93312,0.80121 -0.51344,0.17069 -1.4676,0.76078 -2.11918,1.31322 -0.97732,0.82853 -1.32592,0.89358 -1.99893,0.36739 -0.66064,-0.51699 -0.81698,-0.51627 -0.81698,0.012 0,0.91101 1.61213,2.48965 2.54219,2.48965 0.56067,0 0.68145,0.34987 0.4396,1.25851 -0.38883,1.46031 0.0384,1.56899 1.73352,0.44947 1.39594,-0.92153 1.91282,-2.01607 3.35088,-7.13283 0.93161,-3.31481 0.95108,-3.77463 0.21566,-4.76436 -1.25259,-1.68531 -1.0038,-2.49771 1.47224,-4.78781 1.92007,-1.7759 2.63245,-2.11444 4.42914,-2.11444 1.17709,0 2.42651,-0.27402 2.77859,-0.60582 1.1178,-1.05341 0.72704,-3.15281 -0.85432,-4.58066 -1.71124,-1.54513 -2.86232,-1.70237 -3.89002,-0.53545 -0.39413,0.44774 -2.42902,1.90226 -4.52037,3.23227 -2.45348,1.56035 -4.04523,2.96303 -4.48307,3.95921 -0.4168,0.94881 -1.06388,1.54772 -1.6796,1.54772 -1.26267,0 -1.28651,-0.5994 -0.054,-1.32495 0.66139,-0.38915 0.98018,-1.28324 1.05752,-2.95864 0.0823,-1.78222 0.39846,-2.58888 1.21928,-3.13066 1.32107,-0.87194 1.23625,-3.02065 -0.14929,-3.83805 -0.75931,-0.44819 -1.20394,-0.23525 -2.50902,1.2038 -0.8735,0.96336 -1.60153,2.26218 -1.61324,2.88439 -0.0149,0.86117 -0.33196,1.12955 -1.33121,1.12955 -1.21867,0 -3.48776,1.69147 -3.48776,2.59908 0,0.5947 -4.32021,2.55314 -4.72359,2.14181 -0.19175,-0.19571 -0.10677,-0.43799 0.18664,-0.53935 0.29343,-0.10163 1.31496,-0.63237 2.26848,-1.18036 1.4781,-0.8491 1.7335,-1.28591 1.7335,-2.95474 0,-1.70665 0.20766,-2.03561 1.62155,-2.58738 0.89184,-0.3483 1.91343,-1.01327 2.26849,-1.47738 0.35509,-0.46399 1.08011,-0.99654 1.61323,-1.18426 1.17767,-0.41457 1.08014,-3.20328 -0.10357,-2.96647 -1.00181,0.20025 -2.73295,-1.35777 -2.73295,-2.45839 0,-1.29249 -1.00638,-1.68985 -1.47224,-0.58235 -0.2178,0.51697 -1.39887,1.78604 -2.62513,2.82189 -1.98056,1.67322 -2.35076,1.81441 -3.32187,1.24285 -0.83829,-0.49346 -1.46179,-0.51431 -2.67489,-0.0821 -1.43304,0.50976 -1.59833,0.46344 -1.74597,-0.51199 0.0289,-0.0658 0.0556,-0.13428 0.0871,-0.19932 0.563,-1.16727 1.50537,-2.65741 2.56293,-4.18201 0.0501,0.0895 0.1042,0.17229 0.16582,0.24232 0.36138,0.41004 0.86785,0.62049 1.12803,0.46902 0.6579,-0.38326 0.5817,-1.67708 -0.0498,-2.45058 1.17433,-1.58654 2.38044,-3.0924 3.33015,-4.16637 0.24665,-0.27925 0.53253,-0.52472 0.82528,-0.76604 0.52679,0.26701 1.1564,-0.063 1.45563,-1.00447 0.19811,-0.6222 0.86197,-1.50436 1.47639,-1.96203 0.96279,-0.71738 1.01644,-0.94539 0.38983,-1.65715 -0.51059,-0.57986 -1.14545,-0.73799 -1.76668,-0.60579 l 0,-1.84869 0,-0.53935 c 0.53016,-0.77491 0.90408,-1.56266 0.90408,-1.96203 0,-0.5888 0.77434,-1.31949 1.69619,-1.83696 0.65528,0.4341 1.38345,0.79099 2.1565,0.97321 0.29053,0.069 0.58732,0.0807 0.8875,0.0741 -0.029,0.10352 -0.0512,0.21453 -0.0705,0.34394 -0.0959,0.6374 0.1123,1.48431 0.46449,1.88386 0.5227,0.5935 0.43873,0.72696 -0.46034,0.72696 -0.60539,0 -1.24947,-0.2237 -1.43078,-0.50029 -0.69389,-1.05826 -1.33537,-0.43115 -1.33537,1.30933 0,1.66082 0.10785,1.78811 1.27318,1.51254 0.97638,-0.23112 1.33803,-0.0676 1.55104,0.6996 0.18451,0.66437 0.72701,1.00056 1.61737,1.00056 1.05651,0 1.4152,-0.32048 1.69204,-1.50863 0.25105,-1.0763 0.6645,-1.50866 1.44321,-1.50866 0.9457,0 1.04574,-0.21599 0.74648,-1.6259 -0.2462,-1.15942 -0.63572,-1.92709 -1.28148,-2.40756 l 2.4551,0 c -0.003,0.0318 -0.0106,0.0606 -0.0213,0.0939 -0.1427,0.91616 0.003,2.06408 0.32763,2.55219 0.7719,1.16491 0.82379,1.14259 1.47638,-0.62143 0.40571,-1.09716 0.89895,-1.50865 1.80814,-1.50865 0.74435,0 1.28463,-0.20377 1.54274,-0.51591 l 5.15074,0 c 0.7929,0 1.60297,0.14568 2.38049,0 1.22931,-0.23158 2.32541,-0.95457 3.56655,-1.12171 0.54513,-0.0736 1.09617,-0.0507 1.65055,-0.0161 -0.63748,0.36553 -1.41887,0.64879 -1.86205,0.64879 -1.26925,0 -1.66982,0.79768 -0.99534,1.98546 0.49717,0.87523 0.7437,0.92287 1.97404,0.39475 1.27241,-0.54629 1.51359,-0.47079 2.49658,0.76997 1.15261,1.455 2.03191,1.04375 1.54276,-0.71916 -0.23223,-0.83702 -0.0672,-0.92951 1.1363,-0.6449 1.18284,0.27974 1.40174,0.1669 1.40174,-0.72696 0,-1.10543 0.7622,-1.42664 1.33122,-0.55889 0.18114,0.27653 1.27242,0.50419 2.42195,0.50419 2.26796,0 3.29935,-0.95075 4.0186,-3.70518 0.18217,-0.69773 0.80559,-1.94414 1.45562,-2.96258 0.38786,-0.1821 0.80387,-0.37204 1.26902,-0.57453 3.07554,-1.33778 6.43801,-2.0234 9.51356,-3.36124 0.10441,-0.0454 0.20703,-0.0935 0.31102,-0.14068 -0.0337,0.0862 -0.054,0.1689 -0.054,0.25014 0,0.79327 1.31418,0.46252 3.3426,-0.8364 2.02551,-1.29724 2.44903,-2.09638 1.26904,-1.87213 3.51531,-2.14555 6.85033,-4.6039 10.5918,-6.36681 3.02973,-1.42771 6.39097,-2.13741 9.51768,-3.36513 3.40786,-1.33834 7.69218,-3.83077 10.70379,-5.60466 0.15183,-0.0894 0.43587,-0.25916 0.6594,-0.39084 0.20043,0.20978 0.42396,0.36361 0.63864,0.4104 0.4857,0.10485 1.34971,-0.0266 1.916,-0.28925 0.95281,-0.44499 0.96187,-0.52669 0.13271,-1.09825 -0.15416,-0.10673 -0.29997,-0.25738 -0.42716,-0.42993 0.48914,-0.32739 0.96489,-0.66903 1.40587,-1.01618 0.18111,-0.014 0.3562,-0.15869 0.49766,-0.40257 0.50981,-0.44228 0.91679,-0.87602 1.12388,-1.26632 0.35464,-0.66844 0,-1.4961 0,-2.24344 l 0,-2.23951 0,-2.05582 c 0.31128,0.0318 0.65341,0.0201 1.03679,-0.039 2.0627,-0.32786 2.93618,-0.99371 2.93618,-2.24344 0,-0.7801 -0.26005,-0.9402 -1.15705,-0.71913 -0.63425,0.15668 -1.60459,0.0555 -2.15653,-0.22279 -0.25152,-0.12706 -0.46083,-0.1945 -0.65939,-0.20715 l 0,-0.97318 c 0.44859,0.16889 0.90862,0.28806 1.33537,0.3244 2.29499,0.1939 3.7336,-0.04 3.39652,-0.55501 -0.18261,-0.27835 0.1809,-1.18961 0.80868,-2.02063 l 1.14462,-1.50866 1.53031,1.13735 c 2.19935,1.63512 2.07265,2.59015 -0.28616,2.17308 -2.59885,-0.45945 -2.94537,0.67538 -1.00776,3.31041 l 1.51371,2.05585 1.38928,-1.5673 c 0.76406,-0.86259 1.66992,-1.56727 2.01138,-1.56727 0.68577,0 2.23531,3.13448 2.23531,4.52205 0,1.3273 2.71699,5.63803 3.70754,5.88214 0.82736,0.20436 2.88284,6.87294 4.29231,13.91785 0.26983,1.34854 0.86276,2.836 1.31464,3.30651 0.45195,0.47058 0.82115,1.08054 0.82115,1.35624 0,0.27563 0.59773,1.0313 1.33122,1.6806 1.77653,1.57287 1.77653,2.73015 0,2.30988 -1.78184,-0.4214 -1.68316,0.13087 0.50595,2.83359 2.10142,2.59334 2.72488,2.90679 5.80601,2.89613 3.22418,-0.014 3.71938,-0.49671 3.98125,-3.90843 0.20681,-2.69275 0.10303,-3.07058 -1.02436,-3.81459 -1.07647,-0.71062 -1.1598,-0.966 -0.59303,-1.82131 1.16188,-1.75307 0.82288,-5.275 -0.67184,-6.94916 -0.73349,-0.8215 -1.33536,-1.86637 -1.3354,-2.32161 0,-1.59434 -2.2373,-3.80288 -3.85268,-3.80288 -1.3363,0 -1.45217,-0.11411 -0.96629,-0.96927 0.85388,-1.50375 0.65446,-2.96449 -0.48107,-3.53712 -0.56732,-0.28608 -1.10569,-1.14293 -1.19851,-1.90339 -0.13441,-1.09998 -0.48189,-1.41337 -1.69206,-1.54383 -1.48507,-0.1603 -1.50939,-0.22071 -1.15703,-2.43492 0.26213,-1.64862 0.14777,-2.49648 -0.41057,-3.10328 -0.42256,-0.45932 -0.92617,-1.46033 -1.11974,-2.2278 -0.19362,-0.76754 -0.85408,-1.87179 -1.46809,-2.45057 -0.61392,-0.5786 -1.26612,-1.54465 -1.4515,-2.14962 -0.35703,-1.16329 -7.36871,-7.3318 -11.84424,-10.41982 -1.7151,-1.18323 -3.03278,-1.74242 -3.71169,-1.57509 -0.77748,0.19169 -1.05338,5.4e-4 -1.05338,-0.70354 0,-1.36448 -1.03431,-2.17305 -2.78687,-2.17305 -1.11195,0 -1.63723,-0.32579 -2.00721,-1.24289 -0.24384,-0.60385 -0.82211,-1.13254 -1.50541,-1.42267 -0.0878,-0.15027 -0.17603,-0.3008 -0.25714,-0.45336 -0.39652,-0.74715 -0.45245,-1.77617 -1.19022,-2.23952 -0.65971,-0.41459 -1.6283,0.23612 -2.38047,0 -0.53195,-0.16709 -0.6542,-0.95463 -1.18606,-1.12171 -0.11959,-0.0363 -0.24482,-0.0504 -0.36911,-0.0586 -0.35899,-0.42729 -0.58475,-0.79606 -0.58475,-1.02011 0,-0.76658 -3.58156,-4.0022 -4.42915,-4.0022 -1.11176,0 -1.4532,-0.54691 -0.92483,-1.47737 0.68073,-1.19856 0.0251,-1.78221 -2.06939,-1.84868 -1.00188,-0.0318 -2.08275,-0.37535 -2.40122,-0.76214 -0.31847,-0.38688 -1.2528,-1.10728 -2.07357,-1.60245 -1.80822,-1.09041 -3.38592,-3.41682 -4.15958,-6.12447 -0.31608,-1.10593 -0.99074,-2.46428 -1.49712,-3.0173 -1.27098,-1.38771 -2.85684,-3.75328 -3.62875,-5.41315 -0.35559,-0.76473 -1.01571,-1.521 -1.46809,-1.68451 -0.45245,-0.1639 -0.82114,-0.69862 -0.82114,-1.18816 0,-0.4897 -0.36014,-1.17226 -0.80039,-1.51646 -0.4399,-0.3442 -0.8004,-0.81551 -0.8004,-1.04746 0,-0.23205 -1.3017,-2.46396 -2.89056,-4.95977 -1.58892,-2.49556 -3.67044,-6.13991 -4.62822,-8.09823 -0.95782,-1.95844 -2.13062,-3.82815 -2.60439,-4.15463 -0.28428,-0.19571 -1.03569,-0.95555 -1.91183,-1.88776 l 0,-0.57846 0,-8.58287 c 0.21824,-0.0721 0.4003,-0.0902 0.53083,-0.043 1.12278,0.40593 1.67605,-2.04911 0.84186,-3.74035 -0.80311,-1.62842 -1.73165,-4.14473 -2.64588,-7.02343 0.024,-1.2417 0.0871,-2.53242 0.0871,-3.02902 0,-0.37372 0.28042,-0.8535 0,-1.1178 -0.2804,-0.26427 -0.90989,0.26429 -1.1902,0 -0.28044,-0.26427 0.17729,-0.78755 0,-1.12171 -0.28044,-0.52875 -0.50549,-0.82203 -0.6926,-0.97709 -1.17266,-4.44709 -2.13991,-8.93531 -2.48,-12.02619 -0.29292,-2.66312 -0.77964,-5.45613 -1.0824,-6.20655 -0.30257,-0.75061 -0.70358,-4.38739 -0.89162,-8.08259 -0.32138,-6.31911 -0.40465,-6.71275 -1.40588,-6.61303 -1.14039,0.11445 -1.14149,0.10584 -1.65887,-8.18812 -0.23032,-3.69156 -0.7479,-10.90584 -1.31464,-18.35 -0.39315,-5.16477 -0.0952,-6.84884 1.64642,-9.30202 1.19017,-1.67666 1.57168,-3.9324 0.87504,-5.15908 -0.0434,-0.0798 -0.0737,-0.14447 -0.10783,-0.21106 0.18791,-0.16849 0.58067,-0.38581 1.06995,-0.62534 0.67729,0.014 1.67486,0.0856 3.19744,0.20322 2.59728,0.20164 5.04811,0.53639 5.44522,0.7426 0.39702,0.20618 1.62282,0.0773 2.7288,-0.28139 1.10587,-0.3592 5.8257,-1.23343 10.48399,-1.94641 9.83254,-1.50448 13.2483,-2.20269 15.23659,-3.11499 0.78823,-0.36192 1.75501,-0.54098 2.14823,-0.39866 0.39318,0.14267 1.53536,-0.31102 2.53805,-1.00836 1.00269,-0.69712 2.04057,-1.27024 2.30997,-1.27024 0.27993,0 1.40063,-0.45931 2.98593,-1.18424 0.28861,-0.014 0.51886,-0.0336 0.59304,-0.0664 0.20003,-0.0941 0.34975,-0.26083 0.48936,-0.43383 0.90518,-0.42686 1.89985,-0.9073 3.01499,-1.45785 0.42014,-0.11128 0.84423,-0.22234 1.25659,-0.35174 0.16478,-0.1553 0.30952,-0.33135 0.46034,-0.50419 0.40906,-0.20525 0.7899,-0.39412 1.21511,-0.60972 0.26502,0.0626 0.53145,0.15209 0.70087,0 0.1552,-0.14567 0.26133,-0.33195 0.34421,-0.53155 1.08832,-0.55628 2.20361,-1.13311 3.35504,-1.73531 0.79163,0.17489 1.58577,0.33617 2.24774,0.0234 0.35465,-0.16709 -0.2197,-0.81083 0,-1.1217 0.0337,-0.049 0.0762,-0.0924 0.11197,-0.14068 1.12292,-0.59637 2.25259,-1.20337 3.37579,-1.81348 -0.51016,1.12385 -0.1089,0.57907 0.0373,-0.0234 0.0192,-0.009 0.0428,-0.0221 0.0622,-0.0312 l 4.28399,-2.3294 1.00776,-4.02177 c 0.55361,-2.21186 1.08326,-5.45791 1.17779,-7.21493 0.10702,-1.98884 0.44343,-3.35402 0.89164,-3.61528 0.59423,-0.34599 0.57388,-0.57789 -0.11608,-1.32884 -0.46015,-0.50075 -1.12199,-2.15704 -1.47223,-3.67781 -2.51476,-10.91828 -3.09102,-12.72549 -4.42499,-13.83969 -0.67211,-0.56135 -2.16024,-2.10933 -3.30528,-3.44331 -2.11189,-2.46093 -10.92543,-8.95321 -12.99301,-9.57168 -0.62136,-0.18571 -1.89421,-1.15869 -2.82835,-2.16135 -3.05877,-3.28303 -7.03047,-6.1753 -8.48507,-6.1753 -0.75907,0 -1.85564,-0.30821 -2.43434,-0.68788 -0.57879,-0.37961 -2.96951,-1.40723 -5.31666,-2.2825 -2.34719,-0.87524 -4.86931,-1.98175 -5.60278,-2.4584 -1.196,-0.77723 -3.33565,-1.72503 -9.75409,-4.31489 -1.11024,-0.44818 -2.61812,-0.81294 -3.35089,-0.81294 -0.73273,0 -1.46112,-0.31568 -1.61739,-0.69961 -0.15606,-0.38371 -1.03363,-0.83581 -1.94914,-1.00836 -0.91554,-0.17249 -2.09095,-0.67667 -2.61272,-1.12172 -0.52176,-0.445 -1.33186,-0.67343 -1.79987,-0.50418 -0.46785,0.16929 -1.78713,-0.14128 -2.93205,-0.6918 -1.1449,-0.55045 -2.39615,-1.00055 -2.7827,-1.00055 -1.07173,0 -2.54221,-1.87279 -2.54221,-3.24006 0,-0.67009 0.24338,-1.8197 0.53914,-2.55219 0.65586,-1.62587 0.20383,-2.53643 -0.85017,-1.71189 -0.60946,0.47664 -0.75478,0.3746 -0.75478,-0.52764 0,-0.6913 0.40363,-1.21258 1.06581,-1.37576 1.3166,-0.32466 1.46853,-2.72646 0.23225,-3.69344 -0.53066,-0.41459 -0.71208,-1.0371 -0.49353,-1.69626 1.06688,-3.21804 1.93824,-10.04857 2.18556,-17.12664 0.21826,-6.24431 0.47511,-8.32632 1.14876,-9.30202 1.68356,-2.43773 3.09638,-17.80313 1.77497,-19.30363 -0.83333,-0.94615 -1.3046,-7.6732 -0.56814,-8.10213 0.28813,-0.1681 0.5184,-1.48034 0.5184,-2.91568 -10e-4,-1.43532 0.27002,-4.86808 0.60131,-7.63314 0.49604,-4.13956 0.4471,-6.36013 -0.27371,-12.56945 -1.17932,-10.15785 -2.33138,-17.30104 -3.06889,-19.0105 -0.77934,-1.80632 -5.87054,-6.43115 -8.02886,-7.29308 -1.70958,-0.68279 -5.08883,-2.85876 -6.02996,-3.88495 -0.84607,-0.92214 -6.3758,-3.24399 -7.72611,-3.24399 -0.67286,0 -1.49073,-0.30071 -1.81644,-0.66833 -0.32574,-0.36781 -2.15299,-1.30915 -4.06008,-2.091 -1.90705,-0.78181 -4.3063,-1.91005 -5.33323,-2.50531 -1.02686,-0.59523 -3.90936,-1.82606 -6.4032,-2.73587 -2.49388,-0.90981 -5.61372,-2.10379 -6.93401,-2.65382 -3.71011,-1.5456 -4.20922,-1.7161 -9.33524,-3.18144 -2.64052,-0.75482 -5.76045,-1.87983 -6.93402,-2.50138 -0.92866,-0.49191 -3.15174,-1.15018 -5.42029,-1.63763 -0.20768,-0.17349 -0.43403,-0.32794 -0.68428,-0.44554 -0.56145,-0.26476 -1.22781,-0.11353 -1.87452,-0.039 -2.70122,-0.46322 -6.0484,-1.07622 -7.83396,-1.43829 -1.94905,-0.39506 -4.22957,-0.71787 -5.06781,-0.71915 -0.49383,-4.9e-4 -1.61732,-0.10761 -3.02742,-0.26968 0.0766,-0.35055 0.25506,-0.76217 -0.0373,-0.89894 -0.27996,-0.13168 -3.97551,0 -4.75679,0 l -1.99893,0 c -3.45003,-0.49892 -6.7462,-1.03069 -7.92102,-1.32886 -1.17909,-0.29923 -2.78331,-0.43399 -3.56242,-0.30095 -0.77901,0.13309 -3.36895,-0.18089 -5.75623,-0.6957 -2.06145,-0.44408 -5.55635,-0.80996 -9.5343,-1.07479 -0.39896,-0.0704 -0.80528,-0.087 -1.21512,-0.0742 -3.79043,-0.22751 -7.91147,-0.36693 -11.6203,-0.38694 l 0.003,-0.008 z m -14.64355,5.83526 c 0.0482,10e-4 0.0759,0.006 0.11619,0.012 -0.32185,0.0761 -0.639,0.15909 -0.95383,0.25794 -0.84101,0.26426 -1.50086,1.01811 -2.38049,1.12173 -2.08466,0.24567 -4.20456,-0.1013 -6.30364,-0.0469 1.6224,-0.25928 3.48002,-0.56198 6.11289,-1.00444 1.38585,-0.23295 2.71383,-0.36048 3.40896,-0.34003 z m -14.54403,2.09101 c -3.89923,0.88617 -7.74763,2.14354 -11.86498,1.61806 2.40113,-0.38234 5.59121,-0.8162 10.30564,-1.41093 0.54105,-0.0681 1.04672,-0.13847 1.55934,-0.20713 z m 165.61206,76.66738 c -0.0807,-0.01 -0.13292,0.17329 -0.14926,0.53936 -0.024,0.52996 0.1007,0.82364 0.27786,0.6566 0.17729,-0.1671 0.1979,-0.59856 0.0456,-0.96146 -0.0641,-0.15027 -0.12182,-0.22725 -0.17009,-0.2345 l -0.003,0 z M 160.16393,551.35748 c 0.50077,-10e-4 0.91337,0.0296 1.16118,0.12507 1.04112,0.39234 1.30229,1.94919 2.38048,2.23954 1.90599,0.5132 4.00322,-0.36644 5.947,0 2.09353,0.39459 3.92159,1.60713 5.947,2.2434 4.1439,1.30178 7.49799,1.41561 11.88987,2.24343 1.60288,0.30198 3.18921,0.69459 4.76094,1.1178 0.71402,0.19212 1.40099,0.48421 2.09845,0.73087 -0.77773,0.0454 -1.58212,0.0836 -2.38049,0.10939 -3.37086,0.10983 -7.53968,0.34645 -9.26471,0.52374 -3.06949,0.31512 -4.88288,-0.1033 -11.6742,-2.70464 -1.06049,-0.40643 -10.34286,-4.74648 -12.83126,-5.99938 -0.31703,-0.15929 -0.57011,-0.32493 -0.77138,-0.49247 0.93349,-0.053 1.93579,-0.13409 2.73712,-0.13688 z m 403.51302,34.82002 c -0.21971,0.45409 -0.73959,0.67631 -2.0404,0.88329 0.56044,-0.28472 1.08962,-0.64322 1.69203,-0.83248 0.0733,-0.0226 0.20767,-0.0355 0.34837,-0.0509 z m -7.00867,1.05916 c 0.20998,0 0.44835,0.0306 0.71745,0.11329 0.56069,-0.13168 1.15195,-0.0516 1.7418,0.0275 -1.13533,0.12085 -2.40485,0.23531 -3.50435,0.31658 0.27368,-0.26246 0.60146,-0.44796 1.0451,-0.45728 z m -14.61455,24.32987 c -0.29344,0 -0.53498,0.22762 -0.53498,0.50418 0,0.27653 0.24149,0.50418 0.53498,0.50418 0.29341,0 0.53497,-0.2276 0.53497,-0.50418 0,-0.27656 -0.24149,-0.50418 -0.53497,-0.50418 z m 11.78619,107.95418 c 0.0862,0.46743 0.26726,0.92806 0.54326,1.37186 -0.23367,-0.2988 -0.48216,-0.58796 -0.72986,-0.87939 0.0698,-0.14888 0.13884,-0.3089 0.18661,-0.49247 z m 0.92066,1.89949 c 0.13016,0.15888 0.26835,0.31326 0.42301,0.4651 l 1.40588,1.38358 -0.16583,0.3322 c -0.28426,-0.0562 -0.55337,-0.13507 -0.80453,-0.24232 -0.18304,-0.50804 -0.38229,-1.01019 -0.6138,-1.50083 -0.0714,-0.15208 -0.155,-0.29515 -0.24467,-0.43773 z m -299.97955,0.78559 c 0.12868,0.28426 0.27574,0.55699 0.50594,0.77387 0.0386,0.0362 0.0819,0.0598 0.12446,0.0899 -0.10324,0.16209 -0.2425,0.26187 -0.39813,0.26187 -0.31318,0 -0.44997,-0.39555 -0.30688,-0.87941 0.0337,-0.10673 0.043,-0.14728 0.0747,-0.24621 z m 303.94837,0.81294 c 0.53011,0.0141 1.44736,0.97893 1.44736,1.7197 0,0.0613 0.0171,0.13767 0.0414,0.21888 -0.53482,-0.30923 -1.08952,-0.59349 -1.64641,-0.85595 -0.13249,-0.0626 -0.27161,-0.1127 -0.41471,-0.15629 0.12483,-0.38097 0.23045,-0.68028 0.28201,-0.76997 0.0651,-0.11305 0.16795,-0.16089 0.2903,-0.15628 z m -304.10181,14.92231 c 0.0765,-0.0181 0.21274,0.18309 0.46861,0.59799 0.305,0.49441 0.47347,1.13153 0.37323,1.41485 -0.28523,0.80582 -0.95942,-0.0979 -0.94137,-1.26242 0.003,-0.48343 0.0242,-0.73053 0.0996,-0.75042 z m -17.42631,2.95868 c 0.19471,0 0.32876,0.0181 0.41884,0.0664 -0.34303,0.0644 -0.68096,0.11946 -0.98702,0.0741 0.14739,-0.0877 0.34773,-0.14067 0.56818,-0.14067 z m 360.6191,19.19029 c 0.20724,0.46081 0.55541,0.74331 1.04093,0.82466 1.73662,0.29109 2.03929,0.90342 1.26488,2.55219 -0.7436,1.58322 -2.06526,2.11876 -2.06526,0.8364 0,-0.27562 -0.0823,-0.48868 -0.24055,-0.64488 l 0,-2.56783 0,-1.00054 z m -313.47437,2.89611 c 0.23176,0.10163 0.45951,0.2109 0.67184,0.34395 0.34211,0.21523 0.6131,0.51599 0.88749,0.80905 -0.35221,1.86673 0.34654,2.68092 1.69618,2.06755 0.0385,0.26109 0.0118,0.48854 -0.20318,0.48854 -1.30317,0 -2.49368,-1.17154 -3.48774,-2.18088 0.14354,-0.50927 0.28463,-1.0208 0.43543,-1.52821 z m 342.30117,33.71786 c 0.43992,0 0.65427,0.22747 0.47277,0.50418 -0.18113,0.27656 -0.68792,0.5042 -1.12803,0.5042 -0.43991,0 -0.65426,-0.22759 -0.47276,-0.5042 0.18112,-0.27652 0.68791,-0.50418 1.12802,-0.50418 z m -72.29717,7.41425 c -0.31078,0 -0.564,0.22751 -0.564,0.50418 0,0.27655 0.1025,0.50027 0.23223,0.50027 0.12952,0 0.38697,-0.22372 0.56817,-0.50027 0.18112,-0.27653 0.0745,-0.50418 -0.2364,-0.50418 z m -3.63289,2.51311 c -0.29343,0 -0.83325,0.33973 -1.19853,0.75432 -0.37052,0.42049 -0.42627,0.75434 -0.12847,0.75434 0.29346,0 0.82913,-0.33949 1.19438,-0.75434 0.37055,-0.42095 0.43012,-0.75432 0.13271,-0.75432 z m -8.5763,1.6689 c -0.92331,1.80746 -3.61875,3.10802 -4.56186,2.35286 2.61309,-0.71483 2.97746,-1.29646 4.56186,-2.35286 z m -41.76589,0.99663 c 0.53149,0.0362 0.88932,0.44251 1.22341,0.9185 -0.18601,0.0691 -0.37101,0.13827 -0.53498,0.21496 -0.30739,0.14448 -0.55406,0.24798 -0.76722,0.31657 l 0,-0.33613 c 0,-0.36736 0.0384,-0.74042 0.0787,-1.1139 z m 23.96635,4.08037 c -0.24236,-0.0454 -0.42715,0.26752 -0.42715,0.76606 0,0.56921 0.23736,1.03574 0.53083,1.03574 0.29344,0 0.53499,-0.32828 0.53499,-0.72698 0,-0.39824 -0.24151,-0.86088 -0.53499,-1.03181 -0.0384,-0.0226 -0.0686,-0.0387 -0.10356,-0.043 z m -15.17442,0.80905 c 0.67336,-0.0532 1.41005,0.21088 1.41005,0.71133 0,0.39824 -0.18473,0.83365 -0.41056,0.96538 -0.62822,0.36599 -2.32183,-0.68268 -1.96991,-1.21941 0.18409,-0.28062 0.56636,-0.425 0.97042,-0.4573 z m 12.79396,0.30488 c -0.27464,0 -0.60726,0.11505 -0.96214,0.35955 -0.60194,0.41459 -0.86169,1.00798 -0.6594,1.50475 0.38882,0.95477 1.74356,0.61989 2.21871,-0.54719 0.3315,-0.81379 0.003,-1.3278 -0.59717,-1.31711 z m 15.91674,1.2624 c -0.055,0 -0.11678,0.0161 -0.1824,0.039 -0.34159,0.10806 -0.96991,0.69453 -1.39756,1.30151 -0.85521,1.21382 -0.58304,1.37419 0.98698,0.58233 1.0293,-0.51915 1.41363,-2.01041 0.59306,-1.92294 z m -12.1843,0.26578 c -0.33248,0.0272 -0.7503,0.1747 -1.32295,0.45336 -1.62579,0.79234 -1.91661,1.65257 -0.88334,2.62646 0.44472,0.41911 0.46004,0.6019 0.0456,0.6019 -0.32765,0 -0.67768,-0.18831 -0.77554,-0.42212 -0.0978,-0.23386 -0.80199,-0.56994 -1.56761,-0.7465 -1.00275,-0.23113 -1.65032,-0.051 -2.31824,0.64488 -0.97145,1.01172 -0.72745,2.03238 0.4852,2.03238 0.39124,0 0.8654,0.37857 1.05337,0.84031 0.34598,0.8494 -0.47224,1.65089 -1.69616,1.66498 -0.36669,0 -0.66772,0.23309 -0.66772,0.50417 0,0.2711 -0.60188,0.63544 -1.33535,0.80905 -1.27796,0.30198 -1.72703,1.17088 -0.9746,1.87994 1.50184,1.41309 6.70845,-1.90739 7.2907,-4.65101 0.24427,-1.15105 0.53603,-1.41075 1.36025,-1.20769 0.77372,0.19072 1.26674,-0.14327 1.88695,-1.27413 0.99892,-1.82063 1.05627,-2.68636 0.2281,-3.46676 -0.23078,-0.21753 -0.47603,-0.31465 -0.80869,-0.28922 z m -8.43945,0.42992 c -0.24428,5e-4 -0.51673,0.16088 -0.78797,0.46902 -0.37534,0.42639 -1.10628,0.77383 -1.62152,0.77387 -0.83671,0 -1.4111,0.88428 -2.28922,3.53318 -0.14164,0.42774 -1.48532,1.06681 -3.02327,1.4383 -1.52246,0.36782 -2.89943,0.99561 -3.0606,1.39139 -0.42931,1.0545 0.21959,1.42112 1.18192,0.66834 1.39939,-1.09451 2.2159,0.1685 1.1239,1.73925 -0.4905,0.70543 -0.64444,1.28587 -0.34422,1.28587 0.30017,0 0.54328,-0.22763 0.54328,-0.50421 0,-0.27654 0.36013,-0.50417 0.80038,-0.50417 0.43991,0 0.80042,-0.40658 0.80042,-0.90676 0,-0.50018 0.31832,-1.3191 0.70501,-1.81741 0.64666,-0.83343 0.77194,-0.83917 1.56347,-0.0939 0.79153,0.74594 0.9483,0.69397 1.945,-0.62535 0.81433,-1.07787 1.00472,-1.88806 0.76723,-3.26744 -0.27849,-1.61679 -0.18579,-1.83699 0.78795,-1.83694 1.29906,0 2.03792,-0.88564 1.31051,-1.57118 -0.12145,-0.11447 -0.2558,-0.1725 -0.40227,-0.1719 z m 13.38697,0.73868 c -0.8339,0 -1.55522,1.35394 -1.09484,2.05584 0.63004,0.96086 1.83718,0.43784 1.83718,-0.79732 0,-0.73917 -0.30543,-1.25852 -0.74234,-1.25852 z m -1.70033,2.06755 c -0.0729,0 -0.16115,0.002 -0.26125,0.039 -0.38499,0.12087 -0.80475,0.51639 -0.93313,0.87939 -0.13355,0.37691 0.0685,0.56334 0.46865,0.43774 0.38498,-0.12087 0.80478,-0.51638 0.93309,-0.87938 0.10017,-0.2829 0.008,-0.4591 -0.20743,-0.47684 z m -1.47223,4.70181 c -0.2178,-0.0454 -0.64203,0.12027 -1.19022,0.51201 -0.9025,0.64353 -0.92031,0.7324 -0.12847,0.74651 0.49611,0.014 1.05908,-0.2251 1.25243,-0.51981 0.29057,-0.4432 0.28406,-0.69466 0.0662,-0.73871 z m -23.37744,1.74707 c -0.47125,0.014 -0.8557,0.64097 -0.82114,1.79005 0.0384,1.29909 0.2906,1.75879 0.95798,1.75879 1.1529,0 1.53156,-0.94453 0.96215,-2.38804 -0.31513,-0.79936 -0.73242,-1.16784 -1.09899,-1.1608 z m 20.91819,0.14069 0,0.003 c -1.38555,-0.0504 -8.02886,4.03423 -8.02886,4.99104 0,0.76079 0.79453,0.45058 1.47635,-0.57845 0.36669,-0.55303 0.94295,-1.00446 1.28148,-1.00446 0.94043,0 6.01449,-3.19538 5.38716,-3.39249 -0.0337,-0.014 -0.0714,-0.0161 -0.11619,-0.0201 z m -10.4052,1.60636 c -0.75246,0.0272 -1.8911,1.00074 -1.8911,1.82131 0,1.19169 0.69449,1.26831 1.82889,0.19931 0.89909,-0.84739 1.0387,-1.3702 0.50182,-1.87605 -0.11419,-0.10673 -0.26568,-0.15048 -0.43961,-0.14468 z m -17.58388,1.3015 c -0.46448,0 -0.84187,0.35962 -0.84187,0.79732 0,0.88779 1.14672,0.73282 1.47638,-0.19931 0.11607,-0.32831 -0.17007,-0.59799 -0.63451,-0.59799 z m 13.06349,0.0939 c -0.78386,-0.0272 -1.60375,1.18109 -1.29391,2.29815 0.17202,0.62046 0.62129,1.12562 0.99533,1.12562 0.90035,0 1.54578,-2.51011 0.82113,-3.19316 -0.16284,-0.15349 -0.34163,-0.22471 -0.52255,-0.23061 z m -3.84855,1.49303 c -0.26065,0 -0.45618,0.27305 -0.45618,0.67615 0,0.46097 0.25705,0.75568 0.57231,0.6566 0.3156,-0.0984 0.57647,-0.39373 0.57647,-0.6566 0,-0.26248 -0.26114,-0.56145 -0.57647,-0.66053 -0.0385,-0.014 -0.0747,-0.0161 -0.11196,-0.0161 l -0.003,0 z m -10.0651,0.55107 c -0.15415,-0.014 -0.34789,0.002 -0.59305,0.043 -1.43604,0.20661 -1.96475,1.27636 -0.9331,1.89168 1.05987,0.63204 1.77459,0.27804 1.96989,-0.9732 0.10409,-0.66564 0.0192,-0.9306 -0.44374,-0.96148 z m 17.36408,2.04019 c -0.64094,-0.083 -3.48772,1.41829 -3.48772,1.89167 0,0.25656 0.14437,0.46509 0.31933,0.46509 0.52793,0 3.49063,-2.10394 3.26379,-2.31768 -0.0192,-0.0181 -0.0528,-0.0344 -0.0954,-0.039 z m -14.2869,3.45893 c 0.77737,0 0.79324,0.073 0.10356,0.49248 -1.0447,0.63632 -1.75265,0.63632 -1.33538,0 0.18111,-0.27653 0.73557,-0.49634 1.2317,-0.49248 z m -5.41203,0.21107 c 0.0498,0.014 0.0908,0.0289 0.12021,0.0549 0.13885,0.13167 -0.43708,0.91256 -1.27731,1.73925 -1.69603,1.66835 -2.39286,1.88597 -2.39291,0.74257 0,-0.71722 2.80923,-2.6631 3.54995,-2.53655 z m 2.60439,4.51421 0,0.003 c 0.17541,-0.0409 0.24615,0.0733 0.24471,0.33613 -0.001,0.3887 -0.73852,1.10426 -1.63814,1.5868 -1.4142,0.7586 -1.61262,0.77115 -1.46393,0.0976 0.0944,-0.42776 0.32926,-0.70907 0.51839,-0.62534 0.1894,0.083 0.8505,-0.27829 1.4681,-0.80512 0.41823,-0.35692 0.69526,-0.55459 0.87087,-0.59409 z m 6.30784,7.01951 c 0.10984,-0.014 0.19641,-3.3e-4 0.24466,0.0469 0.19557,0.18429 -0.24131,0.76578 -0.97042,1.29368 -1.40362,1.0164 -2.1385,1.22738 -2.1109,0.60581 0.024,-0.54083 2.06776,-1.86626 2.83666,-1.94638 z m -12.96397,1.37185 c 0.35222,0 0.50594,0.31975 0.50594,0.95366 0,0.8028 -0.34963,1.00231 -1.73352,0.98882 l -1.73349,-0.0161 1.25656,-0.98883 c 0.7996,-0.62786 1.35238,-0.9407 1.70451,-0.93801 z m -11.18901,1.19988 c 0.28717,-0.0318 0.48936,0.072 0.48936,0.27359 0,0.2679 -0.36015,0.48465 -0.80041,0.48465 -0.43989,0 -0.80038,-0.0902 -0.80038,-0.19932 0,-0.10806 0.36016,-0.32553 0.80038,-0.48464 0.10985,-0.0409 0.21566,-0.0633 0.31105,-0.0742 z m 25.05705,1.7666 c 0.31076,0 0.41752,0.22356 0.23639,0.50027 -0.18113,0.27655 -0.43492,0.5042 -0.56402,0.5042 -0.12952,0 -0.2364,-0.22765 -0.2364,-0.5042 0,-0.27653 0.25325,-0.50027 0.56403,-0.50027 z m -4.68628,1.58291 c 0.0289,-1.9e-4 0.0418,-0.002 0.0498,0.0161 0.0482,0.0894 0.38397,0.66763 0.75065,1.28587 0.88008,1.48416 0.9632,1.32497 -1.45567,2.83362 -1.16734,0.72803 -2.2441,1.32102 -2.39702,1.32102 -0.15331,0 -0.27788,-0.89815 -0.27788,-1.99719 0,-1.72495 0.22204,-2.10822 1.64642,-2.80232 0.79405,-0.38689 1.49117,-0.65522 1.68373,-0.65663 z m -16.96598,4.45168 c 0.2062,0 0.47341,0.0362 0.82529,0.0861 1.0931,0.15748 1.05931,0.24472 -0.56401,1.6728 l -1.71277,1.50863 0.38156,-1.50863 c 0.35558,-1.40246 0.45099,-1.75424 1.06993,-1.7588 z m 19.96435,2.54829 c -0.32812,0.0454 -0.69777,0.31558 -0.86259,0.78166 -0.11607,0.32831 0.16606,0.59801 0.63037,0.59801 0.46447,0 0.84602,-0.35935 0.84602,-0.79734 0,-0.44408 -0.28568,-0.62659 -0.6138,-0.58233 z m -25.44687,1.4891 c 0.54562,-0.0409 1.00426,0.15328 0.84186,0.61752 -0.12082,0.34555 -0.74114,0.70121 -1.37683,0.7895 -0.86497,0.11947 -1.07389,-0.0372 -0.83358,-0.62926 0.18984,-0.46661 0.82294,-0.73808 1.36855,-0.77776 z m -50.65321,8.03567 c 0.27079,0 0.41055,0.1577 0.41055,0.47293 0,0.27654 -0.5384,0.4975 -1.1985,0.49245 -0.97058,0 -1.04957,-0.0979 -0.40229,-0.49245 0.51713,-0.31514 0.91945,-0.47293 1.19024,-0.47293 z m -8.39383,4.02958 c 0.29341,0 0.17495,0.2204 -0.26542,0.48857 -0.4399,0.26788 -1.04195,0.48855 -1.33538,0.48855 -0.29343,0 -0.17094,-0.22081 0.26954,-0.48855 0.43992,-0.26792 1.03785,-0.48857 1.33126,-0.48857 z m -35.2217,35.83229 c 0.34934,-0.014 0.25721,0.1689 -0.20746,0.69571 -0.0931,0.10485 -0.18769,0.19611 -0.282,0.28141 0.13292,-0.32739 0.2689,-0.67657 0.38984,-0.96147 0.0289,0 0.0764,-0.0161 0.0996,-0.0161 z m -40.05728,58.58318 c 0.21875,0.018 0.30763,0.19391 0.20745,0.47683 -0.12868,0.36282 -0.55218,0.76241 -0.93727,0.88328 -0.3999,0.12528 -0.59776,-0.0642 -0.46447,-0.44165 0.12824,-0.36282 0.54802,-0.75849 0.93309,-0.87938 0.0999,-0.0318 0.18813,-0.0444 0.26128,-0.0353 l 0,-0.003 z m -10.90282,3.04074 c 0.003,0.0581 0.0127,0.10485 0.0127,0.16809 0,0.70747 -0.23731,1.28582 -0.53083,1.28582 -0.29343,0 -0.53499,-0.43637 -0.53499,-0.97315 0,-0.0787 0.015,-0.15949 0.0249,-0.23841 0.45387,-0.11305 0.74063,-0.1779 1.0285,-0.24231 z m -3.7283,0.94973 c -0.30017,0.18792 -0.78682,0.32636 -1.31881,0.37134 0.36766,-0.10673 0.78972,-0.22784 1.31881,-0.37134 z m 3.05231,2.11054 c 0.11689,0.0318 0.15352,0.21962 0.15352,0.56677 0,0.46657 -0.24802,1.28641 -0.55158,1.82128 -0.65439,1.15228 -1.04815,1.19903 -2.36801,0.28922 -1.17538,-0.80983 -0.75771,-2.47366 0.50594,-2.01676 0.45484,0.16486 1.18523,0.0165 1.62153,-0.32443 0.32428,-0.25377 0.52147,-0.37012 0.63869,-0.33608 z m -9.95732,0.74647 -1.23998,0.83257 0.0787,-0.40262 0.0171,0 c 0.40887,-0.0647 0.78206,-0.2314 1.14461,-0.42995 z m 3.16428,1.18043 c 0.0683,0 0.13124,0.0142 0.18665,0.027 0.40474,0.14567 0.877,0.94738 1.05337,1.77841 0.19661,0.92748 0.75276,1.63922 1.43907,1.84471 1.43429,0.42912 1.04681,1.54537 -0.48109,1.38356 -1.45616,-0.15343 -1.98785,1.0509 -1.19021,2.70071 0.45533,0.93961 0.87571,1.17983 1.6713,0.94196 0.87281,-0.26107 1.06167,-0.0919 1.06167,0.96929 0,1.43773 -0.40656,1.68949 -0.87506,0.53934 -0.16922,-0.41453 -0.73296,-0.75438 -1.25244,-0.75438 -0.51945,0 -1.18123,-0.2838 -1.47224,-0.62919 -0.80933,-0.96104 -1.35058,-4.40092 -0.69257,-4.40092 0.30643,0 0.55571,-0.56337 0.55571,-1.25449 0,-1.26793 -1.21113,-1.7518 -1.87036,-0.74661 -0.18408,0.2811 -0.57134,0.37424 -0.85847,0.20714 -0.70303,-0.40957 1.69518,-2.59789 2.72469,-2.60685 z m -13.26258,1.43432 c 0.55087,0 1.00362,0.30206 1.00362,0.67229 0,0.88626 -2.50943,1.98626 -2.96106,1.2976 -0.47169,-0.71928 0.77042,-1.96989 1.95744,-1.96989 z m -12.78148,2.34118 c -0.093,0.24883 -0.21714,0.52639 -0.37326,0.83633 -1.69218,3.36075 -2.55757,2.60591 -1.08655,-0.80124 0.49064,0.027 0.9777,0.0236 1.45981,-0.0353 z m 21.55685,0.1525 c 0.4645,0 0.75063,0.26932 0.6345,0.59799 -0.32956,0.93206 -1.47637,1.08727 -1.47637,0.19924 0,-0.43771 0.37715,-0.79734 0.84187,-0.79734 z m -47.9949,1.98544 0,0 c 0.0106,2.3e-4 0.0192,0 0.0249,0 -0.17879,1.02687 -0.78977,2.16701 -1.70863,3.0329 -0.69549,0.65557 -1.26488,1.42666 -1.26488,1.71576 0,0.8361 -1.9819,0.61106 -2.33898,-0.26566 -0.17772,-0.43689 -0.17835,-1.65535 0,-2.70472 0.0925,-0.54451 0.11654,-1.01732 0.0829,-1.39521 0.63641,-0.0683 1.40956,-0.14332 2.28921,-0.22281 1.04457,0.70421 1.44766,0.69821 1.54275,-0.12505 0.45728,-0.027 0.91402,-0.0436 1.37272,-0.0389 z m 28.80607,0.19924 c 0.0634,0.0141 0.13419,0.0365 0.20724,0.0789 0.29343,0.17064 0.53501,0.41358 0.53501,0.53545 0,0.12213 -0.24155,0.21893 -0.53501,0.21893 -0.29346,0 -0.53084,-0.23871 -0.53084,-0.53157 0,-0.21986 0.13207,-0.33138 0.3235,-0.301 z m -36.59025,0.51591 c 0.0118,0.15215 0.0213,0.30418 0.0171,0.46126 -0.7105,-0.11186 -1.21085,-0.24293 -0.0171,-0.46126 z m -23.30697,1.58681 0.76723,0 0.21564,0 c 0.20046,0.45715 0.47168,0.81974 0.80041,1.00449 0.39317,0.22116 0.7133,0.71657 0.7133,1.10224 0,0.40227 -0.56255,1.3095 -1.23999,2.06363 l -1.24,1.36013 0.0786,-3.14243 c 0.0289,-1.0589 -0.001,-1.83846 -0.0954,-2.38806 z m 20.17588,0.43783 c -0.11172,-0.0141 -0.23302,0.0306 -0.35251,0.14462 -0.17583,0.16568 -0.134,0.58761 0.0954,0.93808 0.33585,0.5106 0.46203,0.51083 0.64282,0 0.19322,-0.54677 -0.0503,-1.0522 -0.38568,-1.0827 z m 15.9665,0.0165 c -1.0561,0 -2.81927,1.90429 -2.49657,2.69681 0.25872,0.63568 0.70787,0.76368 1.82059,0.51191 0.81331,-0.18383 1.52023,-0.36082 1.5676,-0.39073 0.28189,-0.17994 -0.5528,-2.81799 -0.89162,-2.81799 z m 22.5729,0.95751 c 0.19132,0 0.32349,0.19335 0.32349,0.50424 0,0.41452 -0.23736,0.89604 -0.53085,1.06702 -0.29342,0.17063 -0.53496,-0.0295 -0.53496,-0.4456 0,-0.41463 0.24144,-0.89215 0.53496,-1.06313 0.0733,-0.0412 0.14375,-0.0624 0.20745,-0.0624 z m -86.81217,0.54722 c -0.54466,0 -0.83773,0.45668 -0.83773,1.30148 0,1.57492 1.25414,1.40265 1.50541,-0.20713 0.11325,-0.72505 -0.11172,-1.09435 -0.66768,-1.09435 z m 75.15041,0.2228 c 0.0767,0 0.15267,0.0141 0.23638,0.0318 0.84169,0.20749 0.85488,0.40651 0.141,2.45058 -0.5687,1.62792 -1.05788,2.22778 -1.82474,2.22778 -0.63033,0 -0.93771,-0.25165 -0.77137,-0.6293 0.15225,-0.34551 0.56035,-1.44822 0.90822,-2.45059 0.4062,-1.16983 0.77483,-1.64122 1.31051,-1.62979 z m -28.51163,0.28134 c -0.29343,0 -0.53498,0.3395 -0.53498,0.75436 0,0.41451 0.24148,0.75426 0.53498,0.75426 0.29342,0 0.53498,-0.33975 0.53498,-0.75426 0,-0.41463 -0.2415,-0.75436 -0.53498,-0.75436 z m -62.3689,0.60975 c 0.53677,0.0141 0.67101,0.2957 0.14525,0.75825 -0.27369,0.24059 -1.04017,0.58998 -1.70033,0.7777 -1.71372,0.48811 -1.5283,-0.63637 0.20724,-1.25851 0.55668,-0.19925 1.02576,-0.28651 1.34783,-0.27744 z m 121.51963,0.32042 c 0.83793,-0.0647 2.76127,1.045 2.55878,1.61815 -0.37777,1.06914 -1.89766,0.98341 -2.53805,-0.14473 -0.33681,-0.59351 -0.47649,-1.20845 -0.3069,-1.3679 0.066,-0.0624 0.16669,-0.0965 0.28617,-0.10596 z m -96.55796,0.98107 c 0.11125,-0.0176 0.22839,0.0212 0.34836,0.13683 0.2068,0.1949 0.14544,1.08998 -0.13697,1.99333 l -0.51423,1.64545 -0.28618,-1.35236 c -0.24524,-1.1558 0.10678,-2.34165 0.5889,-2.42313 z m 40.54662,0.19548 c -0.35268,-0.0318 -0.74234,0.54263 -0.74234,1.48907 0,0.93054 -0.31909,1.30078 -1.2317,1.42266 -1.38383,0.185 -2.12008,1.40229 -1.31048,2.16536 0.35365,0.33315 0.8046,0.24188 1.34367,-0.26577 0.72581,-0.68408 0.91112,-0.66229 1.74593,0.20713 1.11027,1.15617 1.61417,0.95892 2.08602,-0.81302 0.23417,-0.87836 0.0936,-1.50378 -0.42716,-1.88768 -0.42884,-0.31607 -0.85988,-1.01439 -0.95799,-1.54783 -0.0944,-0.51332 -0.29461,-0.75003 -0.50595,-0.76992 z m 61.9998,0.39473 c 0.27756,0.0141 0.45129,0.32714 0.35251,0.98494 -0.0978,0.65004 -0.59964,1.26027 -1.11142,1.35236 -0.7618,0.13624 -0.84792,-0.0436 -0.48109,-0.97717 0.3527,-0.89852 0.88306,-1.37803 1.24,-1.36013 z m -130.13737,0.57066 c 0.16137,0.0365 0.37543,0.28333 0.73403,0.76604 0.44716,0.60127 0.6621,1.31867 0.48108,1.5947 -0.87344,1.33186 -2.28467,-0.25672 -1.63811,-1.84483 0.15075,-0.37094 0.26158,-0.55123 0.423,-0.51591 z m 121.54035,1.05913 c 0.86726,-0.0141 2.10259,0.49318 2.10261,1.04748 0,0.3488 -0.34123,0.89969 -0.75478,1.22341 -0.59651,0.46644 -0.9237,0.35245 -1.5925,-0.54723 -0.46401,-0.62413 -0.66217,-1.30679 -0.4396,-1.51652 0.14842,-0.13942 0.39518,-0.2016 0.68427,-0.20714 z m -96.88559,0.29712 c 0.45723,0 0.83358,0.22762 0.83358,0.50413 0,0.27661 -0.22563,0.50024 -0.50181,0.50036 -0.2761,0 -0.65225,-0.22375 -0.83357,-0.50036 -0.18112,-0.27651 0.0439,-0.50413 0.5018,-0.50413 z m -19.0893,0.13224 c 0.97291,0.0141 0.89874,0.63638 -0.25711,1.62203 -1.32834,1.13296 -1.79924,1.04676 -1.59669,-0.29711 0.10938,-0.72706 0.60132,-1.19032 1.37274,-1.29372 0.18175,-0.0224 0.34181,-0.0354 0.48106,-0.0318 z m 7.14967,1.25073 c -0.53443,-0.0647 -1.59249,0.73635 -1.59249,1.31313 0,0.24248 0.47883,0.44172 1.0658,0.44172 1.02513,0 1.44773,-0.98447 0.71745,-1.67277 -0.0504,-0.0471 -0.11443,-0.073 -0.19067,-0.0825 z m 62.45186,0.23834 c -0.27608,0 -0.64806,0.22763 -0.82945,0.50425 -0.18112,0.27651 0.043,0.50024 0.50181,0.50024 0.45727,0 0.82943,-0.22373 0.82943,-0.50024 0,-0.27662 -0.22566,-0.50425 -0.50179,-0.50425 z m -15.46055,0.56289 c -1.50912,0 -2.74692,0.54453 -2.4095,1.05913 0.34211,0.52192 1.38363,0.57998 2.58782,0.14474 1.17313,-0.42418 1.0581,-1.20387 -0.17837,-1.20387 z m -3.95638,0.14839 c -0.22888,-0.0271 -0.47539,0.0824 -0.6138,0.29321 -0.18452,0.28098 0.0403,0.51191 0.49767,0.51191 0.93701,0 1.07595,-0.2997 0.33592,-0.73082 -0.0683,-0.0412 -0.14353,-0.066 -0.21979,-0.0742 z m 72.19349,1.42666 c -0.24187,0 -0.48021,0.033 -0.66355,0.1013 -0.36668,0.13943 -0.0696,0.25401 0.66355,0.25401 0.73349,0 1.03447,-0.11541 0.66769,-0.25401 -0.18368,-0.0695 -0.42587,-0.1013 -0.66769,-0.1013 z m 93.01629,0.0659 c -0.0808,-0.0141 -0.13758,0.17346 -0.15352,0.53934 -0.024,0.53004 0.10462,0.82761 0.28202,0.66051 0.17729,-0.1671 0.19512,-0.60233 0.0414,-0.96539 -0.0641,-0.15026 -0.1212,-0.22716 -0.17008,-0.23446 z"
       id="path2620"
       inkscape:export-xdpi="179.89"
       inkscape:export-ydpi="179.89" />
  </g>
</svg>
